<?xml version="1.0" encoding="utf-8"?>
<!-- Generator: Adobe Illustrator 28.3.0, SVG Export Plug-In . SVG Version: 6.00 Build 0)  -->
<svg version="1.1" id="Layer_1" xmlns="http://www.w3.org/2000/svg" xmlns:xlink="http://www.w3.org/1999/xlink" x="0px" y="0px"
	 viewBox="0 0 25 25" style="enable-background:new 0 0 25 25;" xml:space="preserve">
<style type="text/css">
	.st0{clip-path:url(#SVGID_00000005262454900858792590000005129640475866887854_);}
	.st1{display:none;}
	.st2{display:inline;fill:#CFCDC4;}
	.st3{display:inline;fill:#D1DCDB;}
	.st4{fill:#111418;}
	.st5{fill:#2A211F;}
	.st6{fill:#51504F;}
	.st7{fill:#2F2F2F;}
	.st8{fill:url(#SVGID_00000094607849977991254330000002635459036095949200_);}
	.st9{fill:#122533;}
	.st10{fill:#4E5656;}
	.st11{fill:#867C73;}
	.st12{fill:#6F6B66;}
	.st13{fill:#988984;}
	.st14{fill:#C4B2A4;}
	.st15{fill:url(#SVGID_00000132787854802884703070000012880439722565161345_);}
	.st16{fill:#AA988A;}
	.st17{fill:#66554E;}
	.st18{fill:url(#SVGID_00000119108790775752081470000011213547761321286551_);}
	.st19{fill:#776960;}
	.st20{fill:#433430;}
	.st21{fill:#28120C;}
	.st22{fill:#E0D1C4;}
	.st23{fill:#1F1209;}
	.st24{fill:#772C2A;}
	.st25{fill:#97423B;}
	.st26{fill:#AD5A55;}
	.st27{fill:#625E5F;}
	.st28{fill:#2F3C46;}
	.st29{fill:#44474E;}
	.st30{fill:url(#SVGID_00000011015489249099469800000008331153208349600683_);}
	.st31{fill:#504541;}
	.st32{fill:#B7B1A8;}
	.st33{fill:#C26E56;}
	.st34{fill:#E9A784;}
	.st35{fill:#381919;}
	.st36{fill:#120E0E;}
	.st37{fill:#631824;}
	.st38{fill:#DE7A60;}
	.st39{fill:#D8706C;}
	.st40{fill:#CB7E57;}
	.st41{fill:#A8543E;}
	.st42{fill:#FCFDFC;}
	.st43{fill:#D7E1EC;}
</style>
<g>
	<defs>
		<circle id="SVGID_1_" cx="12.5" cy="12.5" r="12.5"/>
	</defs>
	<clipPath id="SVGID_00000015352061900508786530000006576139556872207793_">
		<use xlink:href="#SVGID_1_"  style="overflow:visible;"/>
	</clipPath>
	<g style="clip-path:url(#SVGID_00000015352061900508786530000006576139556872207793_);">
		<g id="Background_00000090271130441100190780000001007662422603719060_" class="st1">
			<path class="st2" d="M6.42,25c-2.08,0-4.15,0-6.23,0c0-12.5,0-12.5,0-25c12.5,0,12.5,0,25,0c0,12.5,0,12.5,0,25
				c-1.9,0-3.81,0-5.71,0c-0.02-0.32,0.07-0.7-0.1-0.66c0.03-0.04,0.04-0.02,0.07-0.02c0.02-0.01,0.23-0.01,0.51-0.07
				c0.07-0.02,0.05-0.02,0.05-0.02c0.86-0.22,2.93-0.98,2.81-2.11c-0.01-0.07-0.09-0.19-0.1-0.23c-0.01-0.04,0.03-0.08-0.1-0.18
				c-0.14-0.97-0.37-1.94-0.68-2.87c0.24-0.2,0.48-0.41,0.79-0.44c0.42-0.52,0.37-1,0.45-1.23c0.01-0.04,0.27-0.41,0.39-0.83
				c0.01-0.02-0.01-0.16,0.02-0.29c0.01-0.06,0.12-0.18,0.12-0.2c0.02-0.1-0.03-0.19-0.02-0.24c0.05-0.26,0.09-0.65,0.1-0.68
				c0.01-0.02,0.16-0.08,0.15-0.2c0-0.03-0.17-0.05-0.12-0.61c0-0.02,0.09-0.05,0.1-0.1c0.01-0.06-0.05-0.12-0.05-0.12
				c0.05-0.47-0.04-0.92,0-1.42c-0.1-0.43-0.07-0.87-0.12-1.29c0-0.04-0.1-0.11-0.1-0.12c0-0.03,0.09-0.38-0.05-0.63
				c-0.04-0.07-0.13-0.08-0.17-0.17c-0.11-0.24-0.06-0.63-0.1-0.81c-0.03-0.15-0.29-0.32-0.29-0.34c-0.01-0.03,0.12-0.81-0.12-0.29
				c-0.04,0-0.04,0-0.07,0c0.07-0.37-0.14-0.4-0.2-0.51c-0.01-0.03,0.01-0.17,0-0.2c-0.1-0.18-0.5-0.48-0.44-0.81
				c-0.57-0.2-0.25-0.22-0.29-0.34c-0.02-0.07-0.45-0.55-0.46-0.59c-0.05-0.12,0.04-0.51-0.26-0.11c-0.18-0.12,0.26-0.18-0.15-0.37
				c-0.04,0.09-0.04,0.09-0.07,0.17c-0.05-0.38-0.36-0.07-0.16-0.6c-0.16-0.13-0.22-0.31-0.2-0.54c-0.45-0.57-0.4-0.25-0.48-0.21
				C20,4.79,19.89,4.37,19.81,4.35c-0.1-0.03-0.2,0.07-0.27,0.07c-0.17,0.01-0.45-0.04-0.65,0.15C18.8,4.21,18.34,4,18.09,3.78
				c-0.02-0.3,0.04-0.48-0.15-0.74C17.87,2.93,17.17,2.4,17,2.27c-0.09-0.07-0.29-0.11-0.37-0.17c-0.16-0.12-0.47-0.52-0.71-0.61
				c-0.27-0.11-0.82-0.1-0.9-0.12c-0.05-0.01-0.44-0.33-0.56-0.39C13.79,0.67,13.29,0.94,13,0.93c-0.15-0.01-1.06-0.38-1.64-0.2
				c-0.1,0.03-1.65,0.88-1.73,0.95c-0.48,0.39-0.48,0.89-0.5,0.94c-0.01,0.02-0.3,0.3-0.37,0.37c-0.01,0.01,0.01,0.09,0,0.1
				C8.61,3.24,8.26,3.31,8,3.87C7.95,3.98,7.96,4.14,7.96,4.15C7.72,3.94,7.93,3.75,7.5,3.81C7.45,3.7,6.99,3.74,6.92,3.76
				C6.88,3.77,6.58,4.15,6.5,4.17C6.41,4.2,6.11,4.12,6.08,4.24C6.05,4.35,6.41,4.38,5.69,4.6c0.15,0.35-0.05,0.19-0.13,0.23
				c-0.2,0.1-0.28,0.54-0.65,0.55c0.13,0.33-0.3,0.35-0.34,0.39C4.5,5.84,4.63,6.04,4.5,6.1c-0.02,0.01-0.05-0.05-0.12,0
				C4.33,6.13,4.3,6.25,4.29,6.26C3.75,6.79,3.95,6.69,3.68,7.07C3.66,7.11,3.37,7.33,3.34,7.41c-0.06,0.15,0,0.23,0,0.24
				C3.32,7.71,3.23,7.67,3.2,7.7C3.15,7.74,3.11,7.98,3.1,8C3.08,8.03,2.99,8.07,2.95,8.14C2.91,8.21,2.84,8.49,2.83,8.51
				c-0.01,0.02-0.09,0.03-0.1,0.05C2.65,8.75,2.49,9.48,2.22,9.85c0.04,0.28-0.16,0.3-0.2,0.37c-0.07,0.14-0.21,1.19-0.17,1.42
				c-0.11,0.17-0.06,0.31-0.07,0.39c0,0.02-0.16,0.13-0.12,0.42c0.01,0.11,0.09,0.13,0.1,0.15c0.03,0.1-0.25,0.2,0.04,0.21
				c0.14,0.43-0.1-0.37,0.28-0.38c-0.12,0.31-0.01,0.43-0.02,0.56C2.03,13.19,1.74,13.52,2,13.76c-0.01,0.36,0.01,1.09,0.05,1.42
				c0.01,0.07,0.18,0.61,0.2,0.76c0.01,0.13-0.06,0.44-0.05,0.46c0.01,0.04,0.35,0.2,0.13,0.43c-0.23-0.18-0.22,0.36-0.18,0.52
				c0.05,0.25,0.32,0.8,0.42,1.05c0.01,0.03-0.02,0.18,0.02,0.27c0.03,0.05,0.22,0.05,0.17,0.37c0.13,0.08,0.42,0.49,0.48,0.52
				c0.05,0.03,0.32,0.04,0.38,0c-0.22,0.63-0.38,1.38-0.59,1.94c-0.02,0.05,0.03,0.07,0.02,0.1c-0.01,0.02-0.07,0.05-0.12,0.16
				c-0.01,0.02-0.13,0.06-0.15,0.32c-0.04,0.5,0.4,0.82,0.76,1.1c0.55,0.43,1,0.66,1.66,0.88c0.48,0.16,0.68,0.19,1.17,0.27
				c0.02,0,0.03,0,0.05,0C6.42,24.66,6.42,24.66,6.42,25z"/>
			<path class="st2" d="M7.96,4.15c-0.08,0.18-0.82,0.7-0.42,1.68C7.03,5.96,7.18,6.28,7.17,6.31c-0.01,0.04-0.2,0.1-0.23,0.13
				C6.81,6.58,6.62,7.28,6.48,7.3c-0.02,0-0.16-0.11-0.31,0.18C6.16,7.51,6.19,7.61,6.15,7.7c-0.01,0.03-0.38,0.43-0.4,0.45
				c-0.06,0.05-0.09,0-0.1,0C5.43,8.29,5.54,8.4,5.51,8.46c-0.04,0.09-0.16,0.17-0.17,0.2C5.3,8.79,5.51,8.97,5.15,9
				C5.13,9.64,4.73,9.08,4.73,9.7C4.26,9.77,4.43,10,4.37,10.49c0,0.01-0.07,0.11-0.07,0.12c-0.03,0.19,0.06,0.5-0.16,0.96
				c-0.2-0.62-0.1,0.4-0.13,0.5c-0.04,0.1-0.2,0.05-0.23,0.06c-0.07,0.03-0.04,1.29-0.04,1.45c0,0.01,0.07,0.07,0.07,0.12
				c0.04,0.64-0.11,0.8-0.12,0.88c-0.03,0.28,0.14,0.24,0.17,0.37c0.02,0.07,0.03,0.51,0.05,0.61c0.01,0.04,0.18-0.01,0.12,0.76
				c0.07,0,0.07,0,0.15,0c0.01,0.49,0.16,0.52,0.17,0.56c0.04,0.15-0.17,0.41,0.21,0.23c0.18,0.12-0.12,0.26,0.01,0.27
				c-0.37,0.63-0.71,1.48-0.95,2.17c-0.06,0.04-0.33,0.03-0.38,0c-0.06-0.03-0.35-0.45-0.48-0.52c0.05-0.31-0.15-0.31-0.17-0.37
				c-0.04-0.09-0.01-0.24-0.02-0.27c-0.1-0.25-0.36-0.8-0.42-1.05c-0.03-0.16-0.05-0.71,0.18-0.52c0.22-0.22-0.12-0.39-0.13-0.43
				c-0.01-0.03,0.06-0.33,0.05-0.46c-0.02-0.15-0.19-0.69-0.2-0.76C2.01,14.85,1.99,14.12,2,13.76c-0.26-0.23,0.03-0.56,0.05-0.78
				c0.01-0.13-0.1-0.25,0.02-0.56c-0.38,0.01-0.14,0.81-0.28,0.38c-0.29-0.01-0.01-0.1-0.04-0.21c0-0.02-0.08-0.03-0.1-0.15
				c-0.03-0.28,0.12-0.39,0.12-0.42c0.02-0.08-0.04-0.22,0.07-0.39c-0.04-0.23,0.1-1.27,0.17-1.42c0.04-0.07,0.24-0.08,0.2-0.37
				c0.27-0.37,0.43-1.1,0.51-1.29c0.01-0.02,0.09-0.03,0.1-0.05c0.01-0.02,0.08-0.3,0.12-0.37C2.99,8.07,3.08,8.03,3.1,8
				C3.11,7.98,3.15,7.74,3.2,7.7c0.03-0.03,0.13,0.01,0.15-0.05c0-0.01-0.06-0.09,0-0.24c0.03-0.08,0.31-0.3,0.34-0.34
				c0.27-0.38,0.07-0.28,0.61-0.81C4.3,6.25,4.33,6.13,4.38,6.1c0.07-0.05,0.1,0.01,0.12,0c0.13-0.07,0-0.26,0.06-0.33
				C4.6,5.73,5.03,5.72,4.9,5.38c0.37-0.01,0.45-0.45,0.65-0.55C5.64,4.79,5.84,4.95,5.69,4.6c0.73-0.22,0.36-0.25,0.39-0.37
				C6.11,4.12,6.41,4.2,6.5,4.17c0.07-0.02,0.37-0.4,0.42-0.42C6.99,3.74,7.45,3.7,7.5,3.81C7.93,3.75,7.72,3.94,7.96,4.15z"/>
			<path class="st2" d="M21.95,18.82c-0.24-0.7-0.54-1.39-0.93-2.03c0.07,0.06,0.22-0.17,0.22-0.21c0.01-0.07-0.11-0.06,0-0.51
				c0-0.02,0.14-0.07,0.1-0.37c0.56-0.04,0.3-0.28,0.39-0.81c0-0.01,0.09-0.09,0.1-0.17c0-0.01-0.04-0.02-0.02-0.17
				c0-0.01,0.07-0.12,0.07-0.15c0.01-0.11,0.03-1.34,0.02-1.42c0-0.03-0.07-0.18-0.07-0.2c-0.02-0.21-0.03-0.43-0.05-0.63
				c0-0.01-0.1-0.16-0.1-0.17c-0.03-0.28,0.01-1.21-0.05-1.39c-0.05-0.16-0.28-0.09-0.32-0.15c-0.03-0.04-0.12-0.45-0.12-0.63
				c-0.27-0.34-0.3-0.58-0.32-0.61c-0.08-0.13-0.22-0.04-0.29-0.15c0.35-0.23-0.03-0.55-0.05-0.59c-0.04-0.07-0.02-0.21-0.13-0.28
				c-0.05-0.03-0.14,0.06-0.45-0.31c0.02-0.11,0.13-0.07,0.2-0.12c-0.08-0.49-0.3-0.28-0.5-0.38c-0.13-0.07-0.17-0.86-0.33-0.67
				c-0.03,0.15-0.03,0.15-0.06,0.31c-0.15-0.38,0.05-0.2-0.26-0.48c-0.12-0.11,0.02-0.16-0.39-0.2c0.2-0.62-0.05-0.44-0.09-0.45
				c-0.21-0.07-0.11-0.11-0.04-0.22c0.2-0.28,0.58-0.47,0.42-1.12c0.2-0.19,0.48-0.13,0.65-0.15c0.07-0.01,0.17-0.1,0.27-0.07
				c0.08,0.02,0.19,0.45,0.34,0.37c0.07-0.04,0.03-0.36,0.48,0.21c-0.02,0.23,0.03,0.41,0.2,0.54c-0.2,0.53,0.11,0.22,0.16,0.6
				c0.04-0.09,0.04-0.09,0.07-0.17c0.41,0.19-0.03,0.24,0.15,0.37c0.29-0.4,0.21-0.01,0.26,0.11c0.01,0.03,0.44,0.52,0.46,0.59
				c0.04,0.12-0.27,0.14,0.29,0.34c-0.06,0.32,0.34,0.63,0.44,0.81c0.01,0.03-0.01,0.17,0,0.2c0.06,0.11,0.27,0.15,0.2,0.51
				c0.04,0,0.04,0,0.07,0c0.24-0.52,0.11,0.26,0.12,0.29c0.01,0.02,0.26,0.2,0.29,0.34c0.04,0.17-0.01,0.57,0.1,0.81
				c0.04,0.09,0.13,0.1,0.17,0.17c0.14,0.26,0.04,0.6,0.05,0.63c0,0.01,0.09,0.09,0.1,0.12c0.06,0.43,0.02,0.87,0.12,1.29
				c-0.04,0.49,0.05,0.95,0,1.42c0,0.01,0.06,0.06,0.05,0.12c-0.01,0.05-0.1,0.08-0.1,0.1c-0.05,0.56,0.12,0.58,0.12,0.61
				c0.02,0.12-0.14,0.17-0.15,0.2c-0.01,0.03-0.05,0.42-0.1,0.68c-0.01,0.06,0.05,0.14,0.02,0.24c0,0.01-0.11,0.13-0.12,0.2
				c-0.03,0.14-0.02,0.27-0.02,0.29c-0.13,0.42-0.38,0.79-0.39,0.83c-0.08,0.23-0.03,0.71-0.45,1.23
				C22.43,18.42,22.19,18.63,21.95,18.82z"/>
			<path class="st3" d="M7.54,5.83c0.21,0.51,0.79,0.88,1.32,0.98C8.85,6.96,9.15,6.93,8.94,7.03c-0.4-0.15-0.16,0.02-0.18,0.06
				C8.74,7.13,8.26,7.53,8.22,7.7C7.49,8.09,8.13,8.37,7.6,8.32C7.54,8.39,7.3,9,7.26,9.01c-0.01,0-0.1-0.06-0.12-0.05
				C7.03,8.99,7.1,9.22,7.08,9.29C7.04,9.4,6.95,9.45,6.93,9.51C6.89,9.6,7.04,9.78,6.72,9.74c-0.04,0.13-0.08,0.93-0.17,0.95
				c-0.05,0.01-0.08-0.04-0.12-0.02c-0.17,0.07-0.13,0.74-0.18,0.94c-0.03,0.14-0.18,0.34-0.2,0.39c-0.02,0.08,0.03,0.36,0.02,0.39
				c-0.03,0.12-0.13,0.11-0.15,0.15c-0.04,0.11,0.19,0.21-0.05,0.27c0.03,0.5-0.04,1.39,0,1.81c0,0.02,0.06-0.06,0.07,0.42
				c0,0.01,0.08,0.05,0.05,0.12c-0.02,0.05-0.12,0.02-0.12,0.1c0,0.02,0.15,0.2,0.12,0.28c-0.11,0.08-0.2,0.17-0.29,0.27
				c-0.05,0.05-0.08,0.09-0.12,0.15c-0.09,0.11-0.18,0.17-0.24,0.32c-0.16,0.17-0.26,0.37-0.39,0.56c-0.13,0.19-0.28,0.36-0.39,0.56
				c-0.13-0.01,0.17-0.15-0.01-0.27c-0.38,0.18-0.17-0.08-0.21-0.23c-0.01-0.04-0.16-0.07-0.17-0.56c-0.07,0-0.07,0-0.15,0
				c0.06-0.77-0.11-0.72-0.12-0.76c-0.02-0.1-0.03-0.54-0.05-0.61c-0.04-0.12-0.2-0.09-0.17-0.37c0.01-0.08,0.16-0.24,0.12-0.88
				c0-0.05-0.07-0.11-0.07-0.12c-0.01-0.16-0.03-1.42,0.04-1.45C3.8,12.12,3.96,12.17,4,12.07c0.04-0.1-0.07-1.12,0.13-0.5
				c0.22-0.47,0.13-0.78,0.16-0.96c0-0.01,0.07-0.11,0.07-0.12C4.43,10,4.26,9.77,4.73,9.7C4.73,9.08,5.13,9.64,5.15,9
				c0.36-0.02,0.15-0.21,0.2-0.34c0.01-0.02,0.13-0.1,0.17-0.2C5.54,8.4,5.43,8.29,5.65,8.15c0,0,0.03,0.05,0.1,0
				c0.02-0.02,0.39-0.42,0.4-0.45c0.04-0.09,0.01-0.19,0.02-0.22C6.32,7.19,6.46,7.3,6.48,7.3c0.14-0.02,0.33-0.72,0.46-0.85
				c0.04-0.04,0.22-0.1,0.23-0.13C7.18,6.28,7.03,5.96,7.54,5.83z"/>
			<path class="st3" d="M18.48,5.69c-0.08,0.11-0.17,0.15,0.04,0.22c0.03,0.01,0.29-0.17,0.09,0.45c0.41,0.04,0.27,0.09,0.39,0.2
				c0.3,0.27,0.11,0.1,0.26,0.48c0.03-0.15,0.03-0.15,0.06-0.31c0.16-0.19,0.2,0.61,0.33,0.67c0.2,0.1,0.42-0.11,0.5,0.38
				c-0.07,0.05-0.18,0.02-0.2,0.12c0.31,0.37,0.4,0.28,0.45,0.31c0.12,0.07,0.09,0.21,0.13,0.28c0.02,0.03,0.4,0.36,0.05,0.59
				c0.07,0.11,0.21,0.02,0.29,0.15c0.02,0.03,0.05,0.27,0.32,0.61c0,0.18,0.09,0.59,0.12,0.63c0.03,0.05,0.27-0.01,0.32,0.15
				c0.05,0.18,0.02,1.11,0.05,1.39c0,0.01,0.1,0.16,0.1,0.17c0.02,0.21,0.03,0.43,0.05,0.63c0,0.02,0.07,0.16,0.07,0.2
				c0.01,0.08-0.01,1.31-0.02,1.42c0,0.03-0.07,0.14-0.07,0.15c-0.02,0.15,0.03,0.16,0.02,0.17c-0.01,0.08-0.1,0.16-0.1,0.17
				c-0.09,0.52,0.17,0.76-0.39,0.81c0.04,0.3-0.09,0.35-0.1,0.37c-0.11,0.45,0.01,0.44,0,0.51c0,0.04-0.15,0.27-0.22,0.21
				c-0.1-0.17-0.2-0.33-0.32-0.49c-0.1-0.14-0.23-0.26-0.34-0.39c0,0-0.01-0.03-0.07-0.1c-0.26-0.27-0.46-0.45-0.78-0.66
				c0.53-0.17,0.1,0.08,0.34,0.06c0.12-0.36,0.03-0.45,0.05-0.51c0-0.01,0.12-0.12,0.12-0.15c0.03-0.11-0.03-0.28-0.02-0.29
				c0.07-0.77-0.02-0.72-0.02-0.76c0-0.01,0.07-0.12,0.05-0.27c0-0.01-0.09-0.09-0.1-0.12c0-0.01,0.07-0.13,0.05-0.22
				c0-0.02-0.15-0.24-0.15-0.32c0-0.12,0.23-0.41-0.12-0.42c0.15-0.23-0.09-0.13-0.12-0.66c-0.01-0.15,0.06-0.34,0.05-0.37
				c-0.04-0.09-0.23,0.06,0-0.37c-0.17-0.15-0.3-0.03-0.39-0.15c-0.09-0.12,0-0.41-0.2-0.39c0-0.19,0.17-0.01,0.07-0.34
				c-0.49,0.08-0.15-0.19-0.15-0.22c0.06-0.2-0.16-0.3-0.2-0.37c-0.01-0.01-0.01-0.16-0.07-0.27c-0.07-0.12-0.39-0.45-0.39-0.63
				c-0.29-0.12-0.11-0.14-0.15-0.27c-0.02-0.09-0.23-0.22-0.26-0.35c-0.34,0.08-0.36-0.09-0.44-0.12c-0.08-0.03-0.37-0.05-0.38-0.11
				c0-0.01,0.13-0.12-0.07-0.15c-0.06,0.25-0.08,0-0.21-0.01c-0.27-0.03-0.45,0.39-0.43-0.06c-0.09-0.09-0.13,0.2-0.24,0.16
				c0-0.31,0.03-0.64,0.02-0.95c0.69-0.01,1.4,0.38,1.9-0.28C18.23,6.04,18.21,5.78,18.48,5.69z"/>
			<path class="st3" d="M9.91,8.47C9.78,8.62,9.93,8.67,9.93,8.7c0.02,0.24-0.06,0.5-0.07,0.74C8.85,9.2,8.98,10.2,9.57,10.99
				c0.03,0.05,0.07,0.13,0.12,0.17c0,0.03,0,0.07,0,0.1c-0.46-0.09-0.48,0.13-0.37,0.52c0.21,0.24,0.22-0.06,0.34-0.01
				c0,0.09,0.01,0.64-0.01,0.66c-0.2-0.18-0.2-0.18-0.4-0.35c0.2,0.27,0.52,0.41,0.44,0.78c-0.26,0.35-0.66,0.89,0,0.22
				c0.01,0.24-0.02,0.48,0,0.72C8.65,14.26,6.86,14.87,6,15.53c0.03-0.08-0.12-0.26-0.12-0.28c0-0.08,0.1-0.05,0.12-0.1
				c0.03-0.07-0.05-0.11-0.05-0.12c-0.02-0.48-0.07-0.39-0.07-0.42c-0.04-0.42,0.03-1.31,0-1.81c0.24-0.06,0.01-0.16,0.05-0.27
				c0.01-0.03,0.11-0.03,0.15-0.15c0.01-0.03-0.04-0.31-0.02-0.39c0.01-0.05,0.16-0.25,0.2-0.39c0.05-0.2,0.01-0.87,0.18-0.94
				c0.04-0.02,0.08,0.04,0.12,0.02c0.09-0.03,0.14-0.83,0.17-0.95C7.04,9.78,6.89,9.6,6.93,9.51C6.95,9.45,7.04,9.4,7.08,9.29
				c0.02-0.07-0.05-0.3,0.06-0.33c0.02-0.01,0.12,0.05,0.12,0.05C7.3,9,7.54,8.39,7.6,8.32C8.13,8.37,7.49,8.09,8.22,7.7
				c0.04-0.17,0.52-0.57,0.54-0.61c0.02-0.04-0.21-0.21,0.18-0.06c0.2-0.1-0.09-0.07-0.09-0.22c0.35,0.07,0.72,0.1,1.05-0.05
				C9.89,7.33,9.93,7.9,9.91,8.47z"/>
			<path class="st3" d="M19.5,15.16c-0.75-0.48-2.16-1.07-3.03-1.37c0.02-0.24,0.01-0.46,0.06-0.56c0.41,0.36-0.22-0.26,0-0.76
				c0.55,0.27,0.27,0.11-0.04-0.11c0.12-0.06,0.12-0.06,0.24-0.12c-0.35-0.01-0.25-0.02-0.27-0.31c0.16-0.04,0.29-0.14,0.37-0.29
				c0.16-0.31-0.07-0.35-0.39-0.46c0-0.02-0.02-0.03-0.02-0.05c0.41-0.29,0.86-1.13,0.49-1.56c-0.2-0.24-0.43-0.12-0.71-0.15
				c-0.04-0.39-0.1-0.61-0.1-0.65c0-0.05,0.09-0.16,0.1-0.21c0-0.03,0.05-0.03-0.07-0.15c0-0.31,0-0.62,0-0.93
				c0.12,0.04,0.15-0.25,0.24-0.16c-0.02,0.45,0.16,0.03,0.43,0.06c0.12,0.02,0.15,0.27,0.21,0.01c0.21,0.03,0.07,0.13,0.07,0.15
				c0.01,0.06,0.3,0.08,0.38,0.11c0.08,0.03,0.1,0.21,0.44,0.12c0.02,0.13,0.23,0.26,0.26,0.35c0.03,0.13-0.14,0.15,0.15,0.27
				c0,0.18,0.32,0.52,0.39,0.63c0.06,0.11,0.07,0.26,0.07,0.27c0.03,0.07,0.25,0.17,0.2,0.37c-0.01,0.02-0.34,0.3,0.15,0.22
				c0.1,0.34-0.08,0.15-0.07,0.34c0.2-0.02,0.11,0.27,0.2,0.39c0.09,0.12,0.22,0,0.39,0.15c-0.23,0.42-0.04,0.28,0,0.37
				c0.01,0.03-0.06,0.21-0.05,0.37c0.03,0.53,0.27,0.43,0.12,0.66c0.35,0,0.12,0.29,0.12,0.42c0,0.08,0.14,0.3,0.15,0.32
				c0.02,0.09-0.05,0.21-0.05,0.22c0.01,0.04,0.1,0.11,0.1,0.12c0.02,0.15-0.05,0.25-0.05,0.27c0,0.04,0.09-0.02,0.02,0.76
				c0,0.01,0.05,0.18,0.02,0.29c-0.01,0.02-0.12,0.14-0.12,0.15c-0.01,0.06,0.07,0.15-0.05,0.51C19.61,15.24,20.04,14.99,19.5,15.16
				z"/>
		</g>
		<g>
			<path class="st4" d="M19.48,25c-0.06,0-0.11,0-0.17,0c0.03-0.13,0.03-0.6,0.07-0.66C19.55,24.3,19.46,24.68,19.48,25z"/>
			<g>
				<path class="st5" d="M9.4,15.53c-0.07,0.16-0.08,0.43-0.1,0.61c-0.03,0.28-0.04,0.57-0.05,0.85c-0.02,0.39-0.02,0.78-0.02,1.17
					c-0.02,0.93-0.04,1.89-0.02,2.82c0.01,0.55,0.08,1.1,0.1,1.65c0.01,0.24-0.01,0.49,0,0.73c0.01,0.55,0.04,1.09,0.02,1.64
					c-0.04,0-0.08,0-0.12,0c-0.01-0.65,0-3.18-0.1-3.54c-0.01-0.45-0.01-0.45-0.02-0.9c0.1-1.86-0.04-3.16,0.27-5.05
					C9.42,15.46,9.38,15.5,9.4,15.53z"/>
				<path class="st4" d="M6.64,25c-0.07,0-0.15,0-0.22,0c0-0.34,0-0.34,0-0.68c0.05,0.01,0.17-0.03,0.2,0.04
					C6.64,24.42,6.57,24.82,6.64,25z"/>
				<path class="st6" d="M9.74,14.23c0.08,0.64,0.26,1.14,0.56,1.71c0.62,1.18,1.2,1.6,2.29,2.27c-1.22-0.04-2.05-0.75-2.69-1.73
					c-0.2-0.3-0.33-0.64-0.51-0.95c-0.01-0.03,0.02-0.07-0.05-0.02c0.08-0.49,0.16-0.98,0.33-1.44C9.71,14.07,9.65,14.26,9.74,14.23
					z"/>
				<g>
					<path class="st7" d="M5.73,17.85c0.01-0.01,0.01-0.01,0.02-0.02c0.17,0.64,0.5,1.27,0.63,1.95c0.03,0.16,0.06,0.32,0.07,0.49
						c0.07,0.76-0.01,1.52,0.05,2.28c-0.04,0.01-0.04,0.01-0.07,0.01c-0.04-0.35-0.1-1.39-0.12-1.5c0-0.01-0.08-0.07-0.1-0.12
						c-0.3-1.04-1-2.56-1.05-3.55c-0.03-0.7,0.19-1.15-0.2-0.56c-0.01,0-0.01,0-0.02,0c0.13-0.19,0.24-0.39,0.39-0.56
						c-0.53,1.27,0.67,3.33,0.92,4.61C6.23,19.84,5.95,18.85,5.73,17.85z"/>
					<g>
						
							<linearGradient id="SVGID_00000142145734731332185550000004405546412592610178_" gradientUnits="userSpaceOnUse" x1="3.3435" y1="20.3023" x2="6.7377" y2="20.7044">
							<stop  offset="0" style="stop-color:#39393D"/>
							<stop  offset="0.5571" style="stop-color:#998B7F"/>
							<stop  offset="1" style="stop-color:#323136"/>
						</linearGradient>
						<path style="fill:url(#SVGID_00000142145734731332185550000004405546412592610178_);" d="M5.17,17.38
							c0.05,0.99,0.75,2.52,1.05,3.55c0.02,0.05,0.1,0.11,0.1,0.12c0.03,0.11,0.08,1.15,0.12,1.5c0.02,0.2,0,0.4,0.02,0.6
							c0.01,0.1,0.1,0.09,0.1,0.1c0.02,0.14-0.03,0.75,0.15,0.98c-0.17,0.04-0.17,0.04-0.34,0.09c-0.49-0.08-0.69-0.11-1.17-0.27
							c0.07-0.02-0.09-0.11-0.12-0.12c-0.04-0.05-0.01-0.1-0.04-0.12c-0.05-0.06-0.88-0.47-1.31-0.78
							c-0.39-0.29-0.56-0.47-0.88-0.83c-0.01-0.05-0.02-0.11-0.07-0.12c0.02-0.26,0.14-0.3,0.15-0.32
							c-0.02,0.15,0.35-0.21,0.37-0.23c0.04-0.07,0.34-1.33,0.42-1.59c0.32-1.01,0.7-2.19,1.27-3.09
							C5.16,16.81,4.82,17.15,5.17,17.38z"/>
						<path class="st9" d="M4.98,16.82c0,0.01,0,0.02,0,0.02c-0.57,0.9-0.95,2.08-1.27,3.09c-0.08,0.26-0.38,1.51-0.42,1.59
							c-0.01,0.02-0.39,0.38-0.37,0.23c0.05-0.1,0.11-0.14,0.12-0.16c0.01-0.03-0.04-0.05-0.02-0.1c0.2-0.56,0.37-1.31,0.59-1.94
							c0.24-0.69,0.59-1.54,0.95-2.17c0.12-0.2,0.26-0.37,0.39-0.56C4.97,16.82,4.97,16.82,4.98,16.82z"/>
						<path class="st10" d="M3.76,23.22c0.46,0.32,0.84,0.46,1.32,0.71c0.03,0.02,0.19,0.1,0.12,0.12
							c-0.66-0.22-1.11-0.45-1.66-0.88c-0.02-0.06-0.02-0.06-0.05-0.12C3.56,23.11,3.67,23.16,3.76,23.22z"/>
						<path class="st7" d="M2.85,22.19c0,0-0.04,0.03-0.02,0.09c0.07,0.2,0.48,0.62,0.66,0.77c0.02,0.06,0.02,0.06,0.05,0.12
							c-0.35-0.28-0.8-0.59-0.76-1.1C2.83,22.08,2.85,22.15,2.85,22.19z"/>
						<path class="st11" d="M5.08,23.93c-0.48-0.25-0.86-0.39-1.32-0.71c-0.01-0.1-0.01-0.1-0.02-0.2c0.43,0.31,1.26,0.72,1.31,0.78
							C5.06,23.83,5.04,23.88,5.08,23.93z"/>
						<path class="st12" d="M3.73,23.02c0.01,0.1,0.01,0.1,0.02,0.2c-0.08-0.06-0.19-0.11-0.27-0.17c-0.18-0.15-0.59-0.56-0.66-0.77
							c-0.02-0.06,0.03-0.08,0.02-0.09C3.17,22.56,3.34,22.74,3.73,23.02z"/>
						<path class="st13" d="M5.17,17.38c-0.36-0.23-0.02-0.57-0.2-0.54c0-0.01,0-0.02,0-0.02C5.36,16.23,5.14,16.68,5.17,17.38z"/>
					</g>
					<path class="st14" d="M5.73,17.85c0.22,1,0.5,1.99,0.52,3.03c-0.25-1.28-1.44-3.34-0.92-4.61c0.06-0.15,0.15-0.2,0.24-0.32
						C5.47,16.79,5.57,17.08,5.73,17.85z"/>
					<g>
						<g>
							
								<linearGradient id="SVGID_00000137101667410496642730000016395485625474114999_" gradientUnits="userSpaceOnUse" x1="9.0893" y1="21.8959" x2="6.1824" y2="23.5992">
								<stop  offset="0" style="stop-color:#CAB7A8"/>
								<stop  offset="1" style="stop-color:#383639"/>
							</linearGradient>
							<path style="fill:url(#SVGID_00000137101667410496642730000016395485625474114999_);" d="M6.74,20.8
								C6.59,20.82,6.82,20.95,7,21.02c0.11,0.04,0.46,0.13,0.54,0.07c0.25,0.05,0.31,0,0.33,0c0.02,0,0.11,0.08,0.29,0.1
								c0.35,0.04,0.83-0.15,0.94,0.27C9.2,21.82,9.19,24.35,9.2,25c-0.85,0-1.71,0-2.56,0c-0.06-0.18,0-0.58-0.02-0.65
								c-0.03-0.06-0.14-0.03-0.2-0.04c-0.01,0-0.03,0-0.05,0c0.17-0.04,0.17-0.04,0.34-0.09c-0.17-0.23-0.13-0.83-0.15-0.98
								c0-0.01-0.09,0-0.1-0.1c-0.02-0.19,0-0.4-0.02-0.6c0.04-0.01,0.04-0.01,0.07-0.01c-0.06-0.76,0.02-1.53-0.05-2.28
								C6.56,20.29,6.51,20.58,6.74,20.8z"/>
							<path class="st14" d="M9.08,20.56c0.01,0.45,0.01,0.45,0.02,0.9c-0.11-0.42-0.59-0.23-0.94-0.27
								c-0.19-0.02-0.28-0.1-0.29-0.1c-0.02,0-0.08,0.05-0.33,0c-0.05-0.01-0.1-0.01-0.15-0.02c-0.02-0.09,0.12-0.21,0.12-0.26
								c0.01-0.08-0.1-0.17-0.05-0.26C7.89,20.71,8.73,20.89,9.08,20.56z"/>
							<path class="st16" d="M6.71,20.36c0.16,0.31,0.34,0.37,0.68,0.4c-0.33-0.1-0.54-0.18-0.61-0.55
								c0.24,0.07,0.45,0.26,0.68,0.34c-0.06,0.09,0.06,0.18,0.05,0.26c0,0.04-0.14,0.17-0.12,0.26c-0.12-0.03-0.25-0.05-0.37-0.1
								c-0.07-0.03-0.24-0.12-0.29-0.17c-0.22-0.22-0.17-0.51-0.27-0.54c-0.01-0.16-0.04-0.33-0.07-0.49
								C6.54,19.78,6.62,20.19,6.71,20.36z"/>
							<path class="st17" d="M6.74,20.8c0.05,0.05,0.22,0.14,0.29,0.17C7.02,21,7.02,21,7,21.02C6.82,20.95,6.59,20.82,6.74,20.8z"
								/>
							<path class="st11" d="M7.39,21.07c0.05,0.01,0.1,0.02,0.15,0.02C7.46,21.15,7.12,21.06,7,21.02C7.02,21,7.02,21,7.03,20.97
								C7.14,21.02,7.27,21.04,7.39,21.07z"/>
						</g>
						<g>
							
								<linearGradient id="SVGID_00000158014926319623733890000014781942209741494445_" gradientUnits="userSpaceOnUse" x1="9.9868" y1="14.7297" x2="6.3765" y2="19.5293">
								<stop  offset="0" style="stop-color:#685F5E"/>
								<stop  offset="0.8374" style="stop-color:#D0BFB0"/>
							</linearGradient>
							<path style="fill:url(#SVGID_00000158014926319623733890000014781942209741494445_);" d="M9.74,14.23
								c-0.09,0.03-0.02-0.16-0.06-0.17c-0.17,0.46-0.25,0.95-0.33,1.44c-0.31,1.89-0.17,3.19-0.27,5.05
								c-0.35,0.33-1.19,0.15-1.61,0c-0.23-0.09-0.45-0.27-0.68-0.34c-0.01,0-0.08-0.15-0.07,0.15c-0.09-0.17-0.17-0.58-0.32-0.59
								c-0.13-0.69-0.47-1.31-0.63-1.95c-0.19-0.72-0.21-1.29-0.05-2.03c0.1-0.1,0.18-0.18,0.29-0.27c0.85-0.66,2.65-1.27,3.69-1.73
								C9.7,13.94,9.72,14.09,9.74,14.23z"/>
							<path class="st19" d="M5.76,17.82c-0.01,0.01-0.01,0.01-0.02,0.02c-0.17-0.76-0.27-1.05-0.15-1.9
								c0.04-0.05,0.07-0.1,0.12-0.15C5.55,16.53,5.57,17.1,5.76,17.82z"/>
						</g>
						<path class="st20" d="M6.78,20.21c0.07,0.37,0.28,0.45,0.61,0.55c-0.35-0.03-0.52-0.1-0.68-0.4
							C6.7,20.06,6.77,20.21,6.78,20.21z"/>
					</g>
				</g>
				<g>
					<g>
						<path class="st14" d="M19.65,21.04c-0.02,0.12-0.03,0.24-0.05,0.37c-0.02,0.13-0.03,0.26-0.05,0.39
							c-0.05,0.41-0.1,0.83-0.15,1.25c-0.5,0.29-1,0.7-1.5,1.05c-0.37,0.08-0.76,0.28-0.81,0.29c-0.22,0.06-0.9-0.13-1.04,0.61
							c-1.87,0-3.74,0-5.62,0c-0.04-0.05-0.59-0.15-0.62-0.15c-0.16,0.01-0.27,0.16-0.31,0.11c-0.11-0.44-0.07-0.89-0.1-1.33
							c0.26,0.08,0.29,0.38,0.56,0.46c0.08,0.34,0.71,0.25,0.78-0.05c0.24-0.12,0.55-0.01,0.82,0c0.02,0,0.12-0.03,0.32-0.02
							c0.01,0,0.09,0.05,0.1,0.05c0.94,0.03,1.87-0.06,2.81-0.05c0.01-0.01,0-0.04,0.04-0.1c0.05,0.46,0.3,0.41,0.63,0.29
							c0.18-0.06,0.35-0.14,0.46-0.31c0.08-0.11,0.1-0.28,0.17-0.39c0.33-0.5,0.73-0.44,1.21-0.65c0.14-0.06,1.26-0.75,1.35-0.84
							C18.85,21.87,19.39,20.99,19.65,21.04z"/>
						<path class="st16" d="M19.41,23.05c-0.01,0.08-0.02,0.16-0.02,0.24c-0.02,0.2-0.06,0.41-0.07,0.61
							c-0.02,0.27-0.11,0.33,0.15,0.42c-0.03,0.01-0.04-0.02-0.07,0.02c-0.04,0.05-0.04,0.53-0.07,0.66c-1.08,0-2.16,0-3.25,0
							c0.14-0.74,0.82-0.55,1.04-0.61c0.04-0.01,0.43-0.22,0.81-0.29C18.4,23.75,18.9,23.34,19.41,23.05z"/>
					</g>
					<path class="st16" d="M9.42,23.63c0.03,0.44-0.01,0.89,0.1,1.33c0.03,0.05,0.14-0.1,0.31-0.11c0.03,0,0.59,0.1,0.62,0.15
						c-0.37,0-0.75,0-1.12,0c0.02-0.55-0.01-1.09-0.02-1.64c0.04-0.05,0.04-0.05,0.07-0.11C9.37,23.38,9.41,23.51,9.42,23.63z"/>
					<path class="st21" d="M10.76,24.05c-0.07,0.3-0.7,0.39-0.78,0.05C9.82,23.41,10.92,23.38,10.76,24.05z"/>
					<path class="st21" d="M15.48,24.22c-0.33,0.11-0.59,0.16-0.63-0.29c0.02-0.03,0.04-0.16,0.07-0.21
						C15.22,23.3,15.89,23.75,15.48,24.22z"/>
					<g>
						<path class="st11" d="M20.33,24.1c-0.1,0.04-0.23,0.04-0.32,0.12c0,0,0.02,0.01-0.05,0.02c0-0.03-0.05-0.03-0.1-0.02
							c-0.05-0.35-0.22-0.67-0.37-0.99c-0.13-0.06-0.03,0.13-0.12,0.06c0.01-0.08,0.02-0.16,0.02-0.24
							c0.04-0.42,0.09-0.83,0.15-1.25c0.25,0.04,0.38,0.69,0.49,0.92C20.35,23.34,20.83,23.69,20.33,24.1z"/>
						<path class="st4" d="M21.02,16.8c0.39,0.63,0.69,1.32,0.93,2.03c0.32,0.93,0.55,1.9,0.68,2.87c0.13,0.1,0.09,0.15,0.1,0.18
							c-0.01,0.08,0.01,0.15,0.02,0.22c-0.04,0.2-0.09,0.69-0.17,0.32c-0.03-0.13-0.08-0.64-0.1-0.67c0-0.01-0.07-0.05-0.12-0.13
							c-0.17-1.41-0.75-3.55-1.39-4.8c-0.09-0.17-0.3-0.44-0.27-0.5C20.82,16.47,20.92,16.63,21.02,16.8z"/>
						<path class="st7" d="M20.02,24.22c0.09-0.08,0.21-0.08,0.32-0.12c0.72-0.26,2.63-1.05,2.42-2c-0.02-0.07-0.04-0.14-0.02-0.22
							c0.01,0.04,0.09,0.16,0.1,0.23C22.95,23.23,20.87,24,20.02,24.22z"/>
						<path class="st7" d="M19.87,24.22c0.04-0.01,0.1-0.01,0.1,0.02c-0.28,0.07-0.49,0.07-0.51,0.07
							c-0.26-0.08-0.17-0.14-0.15-0.42C19.54,24.06,19.25,24.3,19.87,24.22z"/>
						<path class="st14" d="M20.7,16.31c-0.03,0.06,0.18,0.33,0.27,0.5c0.64,1.25,1.23,3.38,1.39,4.8c0,0-0.06,0.01-0.07-0.04
							c-0.01-0.03,0.04-0.52-0.13-0.52c-1.34,0.6-1.49,0.94-2.37-0.44c-0.12-0.05-0.1,0.2-0.13,0.44c-0.26-0.05-0.8,0.82-0.98,0.99
							c-0.1,0.09-1.22,0.78-1.35,0.84c-0.47,0.21-0.88,0.14-1.21,0.65c-0.07,0.11-0.09,0.28-0.17,0.39
							c-0.12,0.17-0.29,0.24-0.46,0.31c0.42-0.46-0.25-0.92-0.56-0.5c-0.04,0.05-0.06,0.18-0.07,0.21c-0.03,0.06-0.02,0.09-0.04,0.1
							c-0.94-0.01-1.87,0.08-2.81,0.05c-0.01,0-0.09-0.05-0.1-0.05c-0.2-0.01-0.3,0.03-0.32,0.02c-0.26-0.01-0.58-0.12-0.82,0
							c0.16-0.67-0.94-0.64-0.78,0.05c-0.27-0.08-0.3-0.39-0.56-0.46c-0.01-0.12-0.05-0.25-0.05-0.38
							c-0.04,0.05-0.04,0.05-0.07,0.11c-0.01-0.24,0.01-0.49,0-0.73c0.09,0-0.06-0.25,0.16-0.34c0.09,0.04,0.1,0.15,0.12,0.17
							c0.03,0.02,0.69,0.38,0.73,0.39c0.07,0.03,0.41,0.06,0.44,0.07c0.04,0.01,0.12,0.11,0.15,0.12c0.05,0.01,0.17-0.01,0.22,0
							c0.23,0.07,0.76,0.24,0.88,0.27c0.11,0.02,0.64,0.09,0.73,0.1c0.18,0.01,1.59-0.08,1.68-0.1c0.05-0.01,0.4-0.33,0.73-0.12
							c1.18-0.26,0.78-0.3,1.04-0.74c0.23-0.4,0.76-0.34,0.79-0.67c0.36,0.14,0.33-0.1,0.46-0.2c0.25-0.17,0.74-0.22,0.73-0.59
							c-0.34,0.06-0.44,0-0.49,0c-0.39,0.02-1.46,0.3-1.46-0.34c0.34,0.1,0.69,0.2,1.05,0.22c0.37,0.02,1.21-0.05,1.54-0.2
							c0.06-0.03,0.96-0.67,0.99-0.72c0.07-0.11,0.05-0.61,0.15-0.89c0.02-0.04,0.09-0.13,0.02-0.17c0.01-0.03,0.02-0.02,0.02-0.02
							c0.33-0.89,0.51-2.01,0.37-2.95C20.47,16.05,20.6,16.17,20.7,16.31z"/>
						<path class="st14" d="M22.36,21.61c0.06,0.09,0.12,0.12,0.12,0.13c0.01,0.03,0.07,0.54,0.1,0.67
							c-0.06-0.12-0.17,0.05-0.23,0.07c-0.04,0.01-0.16-0.01-0.2,0c-0.09,0.04-1.1,0.88-1.77,0.11c-0.27-0.31-0.56-1.13-0.78-1.18
							c0.02-0.12,0.03-0.24,0.05-0.37c0.04-0.24,0.01-0.49,0.13-0.44c0.87,1.38,1.03,1.04,2.37,0.44c0.17,0.01,0.12,0.5,0.13,0.52
							C22.31,21.61,22.36,21.6,22.36,21.61z"/>
						<path class="st16" d="M22.58,22.41c0.09,0.37,0.13-0.12,0.17-0.32c0.21,0.96-1.7,1.75-2.42,2c0.49-0.41,0.01-0.76-0.29-1.38
							c-0.11-0.22-0.23-0.87-0.49-0.92c0.02-0.13,0.03-0.26,0.05-0.39c0.22,0.05,0.51,0.87,0.78,1.18c0.67,0.77,1.68-0.07,1.77-0.11
							c0.03-0.01,0.15,0.01,0.2,0C22.41,22.46,22.52,22.29,22.58,22.41z"/>
						<path class="st6" d="M19.87,24.22c-0.62,0.08-0.33-0.16-0.56-0.32c0.01-0.2,0.05-0.41,0.07-0.61c0.09,0.07,0-0.12,0.12-0.06
							C19.65,23.55,19.82,23.87,19.87,24.22z"/>
					</g>
					<path class="st14" d="M9.62,17.16c-0.54,0.72,0.42,1.06,0.73,0.54c0.63,0.71,1.59,1.01,2.51,1.07
						c-0.17,0.11-0.59,0.31-0.77,0.32c-0.06,0-0.03-0.05-0.05-0.05c-0.72-0.01-1.29-0.34-1.95-0.54c-0.16-0.05-0.74-0.1-0.82-0.21
						c-0.02-0.02,0.04-0.15-0.05-0.13c0.01-0.39,0.01-0.78,0.02-1.17C9.28,17.12,9.49,17.18,9.62,17.16z"/>
					<path class="st16" d="M9.91,16.48c0.63,0.98,1.47,1.69,2.69,1.73c0.12,0.07,0.31,0.14,0.32,0.16c0.02,0.03,0.02,0.2,0.02,0.26
						c-0.05,0.05-0.37,0.02-0.5,0c-0.72-0.12-1.53-0.52-2.04-1.05c0.01-0.79-0.72-0.42-0.78-0.42c-0.13,0.02-0.34-0.04-0.37-0.17
						c0.01-0.29,0.02-0.57,0.05-0.85C9.58,16.09,9.47,16.38,9.91,16.48z"/>
					<path class="st11" d="M9.91,16.48c-0.44-0.1-0.33-0.39-0.61-0.34c0.02-0.18,0.03-0.45,0.1-0.61
						C9.57,15.84,9.71,16.18,9.91,16.48z"/>
					<path class="st16" d="M12.94,18.63c0,0,0.04-0.01,0.02,0.1c-0.08,0.06-0.09,0.05-0.1,0.05c-0.92-0.07-1.89-0.37-2.51-1.07
						c0.02-0.04,0.05-0.08,0.05-0.12c0.51,0.53,1.32,0.93,2.04,1.05C12.56,18.65,12.89,18.68,12.94,18.63z"/>
					<g>
						<path class="st22" d="M19.5,15.16c0.32,0.21,0.53,0.39,0.78,0.66c0.24,1.03-0.05,2.05-0.29,3.05c0,0-0.01-0.01-0.02,0.02
							c-0.02,0.05-0.03,0.11-0.02,0.17c-0.1,0.28-0.08,0.78-0.15,0.89c-0.03,0.05-0.93,0.69-0.99,0.72
							c-0.33,0.15-1.17,0.22-1.54,0.2c-0.36-0.02-0.71-0.12-1.05-0.22c0.01,0.64,1.07,0.36,1.46,0.34c0.05,0,0.15,0.06,0.49,0
							c0.01,0.37-0.48,0.41-0.73,0.59c-0.13,0.09-0.11,0.34-0.46,0.2c-0.03,0.33-0.57,0.27-0.79,0.67
							c-0.25,0.45,0.14,0.48-1.04,0.74c-0.33-0.21-0.69,0.11-0.73,0.12c-0.09,0.02-1.5,0.1-1.68,0.1c-0.09,0-0.63-0.08-0.73-0.1
							c-0.12-0.02-0.65-0.2-0.88-0.27c-0.05-0.01-0.17,0.01-0.22,0c-0.02-0.01-0.11-0.11-0.15-0.12c-0.03-0.01-0.37-0.05-0.44-0.07
							c-0.04-0.02-0.7-0.37-0.73-0.39c-0.03-0.02-0.03-0.13-0.12-0.17c-0.21,0.1-0.07,0.34-0.16,0.34c-0.02-0.55-0.09-1.1-0.1-1.65
							c-0.01-0.93,0-1.89,0.02-2.82c0.09-0.02,0.03,0.11,0.05,0.13c0.08,0.11,0.66,0.16,0.82,0.21c0.67,0.2,1.24,0.53,1.95,0.54
							c0.02,0-0.01,0.05,0.05,0.05c0.18-0.01,0.6-0.21,0.77-0.32c0,0,0.02,0.01,0.1-0.05c0.17-0.13,0.32-0.37,0.38-0.42
							c0.11-0.09,0.74-0.36,1.03-0.56c0.98-0.68,1.73-1.98,1.99-3.12c0.08-0.34,0.09-0.5,0.12-0.83
							C17.35,14.1,18.75,14.68,19.5,15.16z"/>
						<g>
							<g>
								<path class="st14" d="M20.36,15.92c0.14,0.94-0.04,2.06-0.37,2.95c0.24-1,0.53-2.02,0.29-3.05
									C20.35,15.88,20.35,15.91,20.36,15.92z"/>
								<path class="st14" d="M19.94,19.07c0-0.06,0-0.12,0.02-0.17C20.04,18.94,19.96,19.02,19.94,19.07z"/>
							</g>
							<path class="st21" d="M15.68,17.14c0.56-0.08,0.57,0.74,0.07,0.78C15.23,17.96,15.27,17.2,15.68,17.14z"/>
							<g>
								<path class="st21" d="M10.37,20.73c0.3-0.46-0.32-0.24-0.56-0.17C9.61,19.83,11,20,10.37,20.73z"/>
								<path class="st23" d="M10.37,20.73c-0.2,0.13-0.49,0.08-0.56-0.17C10.05,20.49,10.67,20.26,10.37,20.73z"/>
							</g>
							<g>
								<path class="st21" d="M15.65,20.68c-0.09-0.31-0.42-0.12-0.63-0.05C14.76,19.9,16.09,20.03,15.65,20.68z"/>
								<path class="st23" d="M15.65,20.68c-0.15,0.22-0.54,0.23-0.63-0.05C15.23,20.56,15.56,20.36,15.65,20.68z"/>
							</g>
						</g>
					</g>
					<path class="st21" d="M10.4,17.58c0,0.04-0.03,0.09-0.05,0.12c-0.31,0.52-1.27,0.19-0.73-0.54
						C9.67,17.16,10.41,16.79,10.4,17.58z"/>
				</g>
			</g>
			<g>
				<path class="st24" d="M9.86,9.77c-0.04,0.46-0.14,0.93-0.17,1.39c-0.05-0.04-0.09-0.12-0.12-0.17c0.16-0.11-0.19-0.58-0.22-0.67
					C9.22,9.89,9.41,9.46,9.86,9.77z"/>
				<path class="st25" d="M9.86,9.45c-0.01,0.1,0.01,0.21,0,0.32c-0.45-0.31-0.64,0.12-0.51,0.55c0.03,0.09,0.38,0.56,0.22,0.67
					C8.98,10.2,8.85,9.2,9.86,9.45z"/>
				<path class="st26" d="M9.69,11.25c-0.01,0.17-0.02,0.34-0.02,0.51c-0.12-0.05-0.13,0.25-0.34,0.01
					C9.21,11.38,9.23,11.17,9.69,11.25z"/>
			</g>
			<g>
				<g>
					<path class="st9" d="M18.09,3.78c-0.13-0.12-0.07-0.25-0.17-0.34c-0.04-0.29-1.04-1.18-1.4-1.17
						c-0.59-0.86-1.27-0.61-1.56-0.68c-0.06-0.01-0.36-0.29-0.46-0.34c-0.7-0.37-1.09-0.06-1.51-0.07c-0.15-0.01-0.86-0.24-1.29-0.2
						c-0.31,0.03-1.27,0.55-1.57,0.73c-0.06,0.04-0.22,0.08-0.28,0.12C9.37,2.15,9.27,2.89,9.2,2.98C9.16,3.03,8.39,3.52,8.22,3.89
						C8.06,4.25,7.95,5,8.05,5.37C8.26,6.09,9.4,6.22,9.81,5.6c0-0.08-0.43-0.17-0.63-0.26C8.66,5.13,8.19,4.87,9.1,5.2
						c0.15,0.05,0.56,0.24,0.67,0.24c0.48,0.02,0.72-0.49,0.24-0.2c-0.17-0.42,1.14-0.44,0.77-0.55c0.02-0.05,0.02-0.05,0.04-0.11
						c0.02,0.2,0.55-0.17,0.63-0.2c0.03-0.01,0.2,0.01,0.57-0.1c-0.12,0.04-0.25,0.1-0.37,0.15c-0.09,0.03-0.16,0.06-0.24,0.1
						c-0.32,0.14-0.67,0.27-0.9,0.55c-0.11,0.16,0.19-0.02,0.54-0.16c0.01,0.02,0.01,0.02,0.02,0.05c-1.25,0.5-1.14,0.88-1.17,1.78
						c-0.33,0.15-0.7,0.11-1.05,0.05c-0.52-0.1-1.11-0.46-1.32-0.98c-0.4-0.98,0.34-1.51,0.42-1.68c0.01-0.01,0-0.17,0.05-0.28
						c0.26-0.56,0.61-0.63,0.76-0.78c0.01-0.01-0.01-0.09,0-0.1c0.06-0.07,0.36-0.34,0.37-0.37c0.02-0.05,0.02-0.55,0.5-0.94
						c0.09-0.07,1.64-0.92,1.73-0.95c0.58-0.19,1.48,0.19,1.64,0.2c0.29,0.02,0.79-0.26,1.46,0.05c0.12,0.06,0.51,0.38,0.56,0.39
						c0.09,0.03,0.64,0.02,0.9,0.12c0.24,0.09,0.54,0.49,0.71,0.61c0.08,0.06,0.27,0.1,0.37,0.17c0.17,0.13,0.87,0.66,0.94,0.77
						C18.13,3.31,18.07,3.49,18.09,3.78z"/>
					<path class="st9" d="M18.09,3.78C18.34,4,18.8,4.21,18.89,4.57c0.17,0.65-0.21,0.84-0.42,1.12c-0.27,0.09-0.25,0.36-0.42,0.57
						c-0.5,0.66-1.22,0.27-1.9,0.28c0-0.22-0.01-0.73-0.1-0.88c0-0.04,0.04-0.01,0.05-0.05c0-0.05-0.02-0.05-0.02-0.07
						c0.63-0.18,0.63-0.18,1.27-0.37c-0.02,0.05-0.04,0.09-0.07,0.13C17.3,5.4,17.3,5.4,17.32,5.49c0.23-0.21,0.42-0.44,0.57-0.71
						c0.01,0,0.02,0,0.02,0c-0.1,0.25-0.23,0.48-0.37,0.71c-0.04,0.07-0.05,0.09-0.05,0.1c-0.07,0.12-0.28,0.25-0.13,0.32
						c0.4-0.07,0.25,0.07,0.29,0.1c0.15,0.11,0.28-0.08,0.35-0.15c0.08-0.08,0.15-0.16,0.22-0.24c0.21-0.23,0.45-0.45,0.46-0.78
						c0.02-0.55-0.74-0.83-0.78-0.99c-0.02-0.07,0.02-0.29,0-0.4C18.02,3.54,17.95,3.67,18.09,3.78z"/>
					<path class="st14" d="M17.92,3.44c0.02,0.11-0.02,0.34,0,0.4c0.05,0.16,0.8,0.44,0.78,0.99c-0.09-0.11-0.63-0.13-0.77-0.1
						c-0.02,0-0.01,0.05-0.01,0.05c-0.01,0-0.02,0-0.02,0c-0.12,0.03-0.22,0.12-0.34,0.07c0.08-0.18-0.13,0.08-0.24,0.15
						c-0.11-0.12-0.28-0.27-0.44-0.29c0.05-0.13,0.11-0.57,0.09-0.59c-0.07,0.16-0.17,0.29-0.26,0.44
						c-0.11-0.04-0.11-0.04-0.22-0.07c0.07-0.04,0.4-0.14,0.12-0.1c-0.1-0.13-0.25-0.18-0.39-0.22c-0.04-0.82-0.18-1.14-0.12-0.31
						c-0.19,0.14-0.27,0.41-0.54,0.27c0.62-0.45-0.04-0.08-0.21-0.06c-0.14,0.01-0.72-0.1-0.84-0.17c-0.37-0.21-0.51-1-0.43-0.17
						c-0.18-0.05-0.51-0.19-0.67-0.22c-0.05-0.01-0.12-0.02-0.12-0.02c-0.2-0.23-0.2-0.23-0.4-0.46c-0.02,0.01,0.15,0.48,0.07,0.46
						c-0.08-0.15-0.48-0.58-0.5-0.7c-0.01-0.05,0.02-0.77-0.07-0.15c-0.06,0.4,0.1,0.56,0.29,0.87c-0.16-0.08-0.43,0.19-0.37,0.34
						c-0.01,0-0.06,0.07-0.11,0.05c-0.07-0.02-0.49-0.95-0.54-1.1c0.03,0.4,0.17,0.79,0.33,1.16c-0.04,0.01-0.04,0.01-0.07,0.01
						c-0.36-0.24-0.36-0.24-0.72-0.49c0.31,0.85-0.59-0.27-0.63-0.54c-0.03-0.01-0.25,0.25-0.26,0.27c-0.15,0-0.03-0.3-0.05-0.62
						c-0.02-0.3-0.11-0.59-0.15-0.89c0.31-0.18,1.27-0.7,1.57-0.73c0.44-0.05,1.15,0.19,1.29,0.2c0.42,0.01,0.81-0.29,1.51,0.07
						c0.1,0.05,0.4,0.33,0.46,0.34c0.3,0.07,0.98-0.18,1.56,0.68C16.87,2.26,17.88,3.15,17.92,3.44z"/>
					<path class="st9" d="M12.3,3.86c0.15-0.05,0.29-0.14,0.44-0.2c0.1-0.04,0.47-0.17,0.54-0.17c0.01,0,0.08,0.02,0.12,0.02
						c-0.16,0.36,0.8,0.56,1.11,0.46c-0.01-0.04-0.01-0.04-0.01-0.07c0.12,0.07,0.7,0.19,0.84,0.17c0.17-0.02,0.83-0.39,0.21,0.06
						c0.27,0.14,0.35-0.13,0.54-0.27c-0.06-0.84,0.08-0.52,0.12,0.31c0,0.09-0.02,0.23-0.01,0.24c0.14,0.05,0.26,0,0.4-0.02
						c0.27-0.04-0.05,0.06-0.12,0.1c-0.16,0.03,0.01,0.1,0.07,0.15c-0.26-0.02-0.07-0.19-0.42-0.04c-0.03,0.16,0.39,0.24,0.48,0.21
						c0.02-0.01,0-0.05,0.04-0.1c0.06-0.09,0.04-0.14,0.05-0.15c0.09-0.15,0.19-0.28,0.26-0.44c0.03,0.01-0.03,0.46-0.09,0.59
						c-0.01,0.02-0.16,0.21-0.17,0.22c-0.03,0.02-0.05,0.05-0.1,0.05c-0.06,0-0.42-0.23-0.11,0.27c0.03-0.02,0.14-0.05,0.16-0.05
						c0.1-0.01,0.2-0.02,0.29-0.05C17.11,5.1,17.15,5.1,17.31,5c0.12-0.07,0.32-0.33,0.24-0.15c-0.05,0.1-0.16,0.23-0.2,0.32
						c-0.63,0.18-0.63,0.18-1.27,0.37c-0.21-1.07-1.46-1.05-2.28-1.29c-0.08-0.02-0.1-0.25-0.9-0.17c-0.28,0.03-0.6,0.14-0.87,0.22
						c-0.37,0.11-0.55,0.09-0.57,0.1c-0.08,0.03-0.61,0.4-0.63,0.2c-0.02,0.05-0.02,0.05-0.04,0.11c0.37,0.11-0.94,0.13-0.77,0.55
						c0.48-0.29,0.23,0.21-0.24,0.2c-0.11,0-0.52-0.19-0.67-0.24c0.13-0.11,0.13-0.11,0.27-0.22c0.11,0.17,0.47,0.38,0.32,0.15
						c0.38-0.27,0.05-0.64-0.02-0.32c0.03-0.25,0.05-0.17,0.05-0.18c0-0.05-0.42-0.48-0.43-0.89c0.06,0.04,0.06,0.12,0.06,0.12
						c0.17,0.27,0.2,0.38,0.44,0.68c0.06,0.07,0.1,0.16,0.17,0.22c0.05,0.12,0.1-0.07,0.12-0.12c0.13-0.28,0.06-0.15-0.1-0.34
						C9.98,4.29,9.96,4.25,9.96,4.25c0.17-0.15,0.1-0.38,0.22-0.34c0.11,0.11,0.24,0.21,0.35,0.32c0.14-0.03,0.15-0.1,0.11-0.2
						c-0.03-0.32,0.56,0.21,1.27-0.05c0.04-0.01,0.04-0.01,0.07-0.01c-0.16-0.37-0.29-0.76-0.33-1.16c0.04,0.15,0.47,1.07,0.54,1.1
						C12.25,3.92,12.3,3.86,12.3,3.86z"/>
					<path class="st27" d="M9.2,2.98c0.19,0.17,0.19,0.57,0.52,0.9c0.31-0.21,0.2-0.24,0.22-0.24c0.02-0.01,0.19,0.23,0.23,0.27
						c-0.12-0.03-0.05,0.19-0.22,0.34c-0.36-0.44-0.4-0.6-0.61-0.39c0-0.01-0.01-0.08-0.06-0.12C9.3,4.15,9.71,4.58,9.71,4.63
						c0,0.01-0.02-0.06-0.05,0.18C9.66,4.9,9.64,4.99,9.64,5.08c-0.25-0.32-0.31-0.4-0.38-0.85C9.24,4.48,9.23,4.76,9.37,4.98
						C9.24,5.09,9.24,5.09,9.1,5.2C8.19,4.87,8.66,5.13,9.18,5.35C8.8,5.61,8.45,5.62,8.05,5.37C7.95,5,8.06,4.25,8.22,3.89
						C8.39,3.52,9.16,3.03,9.2,2.98z"/>
					<path class="st11" d="M10.1,1.71c0.04,0.3,0.13,0.59,0.15,0.89c0.02,0.32-0.1,0.62,0.05,0.62c-0.1,0.25,0.24,0.6,0.34,0.81
						c0.04,0.09,0.03,0.16-0.11,0.2c-0.11-0.11-0.24-0.21-0.35-0.32c-0.04-0.04-0.21-0.27-0.23-0.27c-0.02,0.01,0.09,0.03-0.22,0.24
						C9.39,3.55,9.39,3.15,9.2,2.98c0.06-0.09,0.17-0.83,0.62-1.15C9.88,1.79,10.04,1.74,10.1,1.71z"/>
					<path class="st28" d="M8.05,5.37C8.45,5.62,8.8,5.61,9.18,5.35c0.2,0.09,0.64,0.18,0.63,0.26C9.4,6.22,8.26,6.09,8.05,5.37z"/>
					<path class="st11" d="M18.7,4.83c-0.01,0.33-0.26,0.55-0.46,0.78c-0.34-0.06-0.34-0.06-0.68-0.12
						c0.14-0.23,0.27-0.46,0.37-0.71c0,0-0.01-0.04,0.01-0.05C18.07,4.71,18.61,4.72,18.7,4.83z"/>
					<path class="st10" d="M18.01,5.86c-0.07,0.07-0.2,0.26-0.35,0.15c-0.04-0.03,0.1-0.17-0.29-0.1c-0.15-0.06,0.06-0.2,0.13-0.32
						c0.2,0,0.33,0.15,0.52,0.15C18.13,5.81,17.89,5.85,18.01,5.86z"/>
					<path class="st11" d="M17.89,4.78c-0.16,0.26-0.35,0.5-0.57,0.71C17.3,5.4,17.3,5.4,17.28,5.31c0.03-0.04,0.05-0.09,0.07-0.13
						c0.04-0.09,0.15-0.22,0.2-0.32C17.68,4.9,17.77,4.82,17.89,4.78z"/>
					<path class="st27" d="M18.23,5.61c-0.07,0.08-0.14,0.17-0.22,0.24c-0.13-0.01,0.11-0.05,0.01-0.12
						c-0.19,0.01-0.32-0.15-0.52-0.15c0,0,0.01-0.03,0.05-0.1C17.89,5.55,17.89,5.55,18.23,5.61z"/>
					<path class="st28" d="M11.91,3.98c-0.71,0.26-1.3-0.27-1.27,0.05c-0.1-0.21-0.44-0.55-0.34-0.81c0.01-0.02,0.22-0.28,0.26-0.27
						c0.04,0.27,0.95,1.39,0.63,0.54C11.55,3.74,11.55,3.74,11.91,3.98z"/>
					<path class="st28" d="M14.5,3.91c0.01,0.04,0.01,0.04,0.01,0.07c-0.31,0.1-1.27-0.1-1.11-0.46c0.16,0.03,0.49,0.17,0.67,0.22
						C13.99,2.91,14.13,3.69,14.5,3.91z"/>
					<path class="st28" d="M13.28,3.49c-0.06,0-0.44,0.13-0.54,0.17c-0.01-0.05-0.05-0.1-0.07-0.15c-0.2-0.31-0.35-0.46-0.29-0.87
						c0.09-0.62,0.06,0.1,0.07,0.15c0.02,0.12,0.42,0.55,0.5,0.7c0.08,0.02-0.1-0.46-0.07-0.46C13.08,3.26,13.08,3.26,13.28,3.49z"
						/>
					<path class="st11" d="M17.31,5c-0.16,0.1-0.19,0.1-0.37,0.15c-0.12-0.11-0.12-0.11-0.24-0.22c0.01-0.01,0.16-0.2,0.17-0.22
						C17.03,4.73,17.2,4.88,17.31,5z"/>
					<path class="st11" d="M12.67,3.52c0.03,0.04,0.06,0.09,0.07,0.15c-0.15,0.05-0.29,0.15-0.44,0.2
						C12.23,3.71,12.51,3.44,12.67,3.52z"/>
					<path class="st11" d="M16.6,4.39c-0.14,0.02-0.26,0.07-0.4,0.02c-0.01-0.01,0.02-0.16,0.01-0.24
						C16.35,4.21,16.5,4.27,16.6,4.39z"/>
					<path class="st27" d="M16.48,4.49c0.11,0.04,0.11,0.04,0.22,0.07c0,0.01,0.01,0.06-0.05,0.15c-0.04-0.02-0.07-0.05-0.1-0.07
						C16.49,4.6,16.32,4.52,16.48,4.49z"/>
					<path class="st11" d="M9.96,4.25C9.96,4.25,9.98,4.29,9.98,4.3c-0.11,0.09-0.06,0.16-0.2,0.24c-0.24-0.3-0.27-0.41-0.44-0.68
						C9.56,3.65,9.6,3.81,9.96,4.25z"/>
					<path class="st9" d="M9.64,5.08c0.03,0.04,0.05,0.05,0.05,0.05c0.15,0.24-0.21,0.02-0.32-0.15c-0.14-0.22-0.14-0.5-0.11-0.76
						C9.33,4.68,9.39,4.76,9.64,5.08z"/>
					<path class="st27" d="M10.08,4.64C10.02,4.7,10.02,4.7,9.96,4.76C9.89,4.7,9.84,4.61,9.79,4.54c0.14-0.08,0.09-0.15,0.2-0.24
						C10.14,4.49,10.21,4.36,10.08,4.64z"/>
					<path class="st28" d="M16.55,4.64c0.03,0.02,0.06,0.06,0.1,0.07c-0.03,0.05-0.02,0.09-0.04,0.1c-0.08,0.04-0.5-0.05-0.48-0.21
						C16.48,4.45,16.29,4.62,16.55,4.64z"/>
					<path class="st28" d="M9.69,5.13c0,0-0.02-0.01-0.05-0.05c0-0.09,0.01-0.18,0.02-0.27C9.74,4.49,10.07,4.86,9.69,5.13z"/>
					<path class="st28" d="M16.6,4.98c-0.06,0.14,0.03,0.12,0.05,0.22c-0.02,0-0.13,0.03-0.16,0.05C16.18,4.75,16.54,4.98,16.6,4.98
						z"/>
					<path class="st27" d="M16.94,5.15c-0.09,0.02-0.2,0.04-0.29,0.05c-0.02-0.1-0.11-0.08-0.05-0.22c0.05,0,0.06-0.03,0.1-0.05
						C16.82,5.04,16.82,5.04,16.94,5.15z"/>
					<path class="st29" d="M9.96,4.76c0.06-0.06,0.06-0.06,0.12-0.12C10.06,4.69,10.01,4.88,9.96,4.76z"/>
				</g>
				<g>
					
						<linearGradient id="SVGID_00000124864036626661331990000007541190932398697151_" gradientUnits="userSpaceOnUse" x1="10.099" y1="6.4521" x2="15.9491" y2="6.7816">
						<stop  offset="0" style="stop-color:#615C5C"/>
						<stop  offset="0.7375" style="stop-color:#E4D8CA"/>
					</linearGradient>
					<path style="fill:url(#SVGID_00000124864036626661331990000007541190932398697151_);" d="M16.06,5.66
						c0.09,0.15,0.09,0.66,0.1,0.88c0.01,0.31-0.02,0.64-0.02,0.95c0,0.31,0,0.62,0,0.93c-0.09-0.08-0.66-0.41-0.79-0.46
						c-1.37-0.58-3.73-0.51-5.03,0.24c-0.05,0.03-0.39,0.25-0.4,0.27c0.02-0.57-0.02-1.14,0-1.71c0.03-0.91-0.08-1.28,1.17-1.78
						c1.21-0.48,2.81-0.52,4.02,0C15.34,5.08,15.93,5.46,16.06,5.66z"/>
					<g>
						<path class="st22" d="M16.09,5.54c0,0.03,0.03,0.03,0.02,0.07c-0.96-1.04-2.7-1.21-4.03-1c-0.15-0.18-0.2-0.15-0.24,0.05
							c-0.04,0.01-0.1,0.01-0.15,0.02c0.06-0.06,0.05-0.18-0.02-0.24c0.12-0.05,0.24-0.11,0.37-0.15c0.27-0.08,0.59-0.19,0.87-0.22
							c0.8-0.08,0.82,0.15,0.9,0.17C14.63,4.5,15.88,4.47,16.09,5.54z"/>
						<path class="st31" d="M16.11,5.61c0,0.04-0.05,0.01-0.05,0.05c-0.13-0.21-0.72-0.58-0.96-0.68c-1.2-0.52-2.81-0.48-4.02,0
							c-0.01-0.02-0.01-0.02-0.02-0.05c0.13-0.05,0.24-0.1,0.37-0.15c0.09-0.03,0.18-0.07,0.27-0.1c0.04-0.01,0.1-0.01,0.15-0.02
							c0.08-0.02,0.16-0.04,0.24-0.05C13.41,4.4,15.15,4.58,16.11,5.61z"/>
						<path class="st11" d="M11.42,4.54c0,0.12,0,0.12,0,0.24c-0.13,0.04-0.24,0.1-0.37,0.15c-0.35,0.14-0.65,0.32-0.54,0.16
							C10.76,4.81,11.1,4.68,11.42,4.54z"/>
						<path class="st13" d="M11.67,4.44c0.07,0.06,0.09,0.19,0.02,0.24c-0.09,0.02-0.18,0.07-0.27,0.1c0-0.12,0-0.12,0-0.24
							C11.51,4.5,11.58,4.48,11.67,4.44z"/>
						<path class="st32" d="M12.08,4.61C12,4.63,11.92,4.64,11.84,4.66C11.89,4.47,11.93,4.43,12.08,4.61z"/>
					</g>
				</g>
			</g>
			<g>
				<path class="st33" d="M16.92,9.57c0.38,0.43-0.08,1.27-0.49,1.56c-0.01-0.1-0.01-0.2-0.02-0.29c0.1-0.14,0.2-0.27,0.29-0.42
					c0.13-0.2,0.1-0.22,0.12-0.26c0.01-0.03,0.11,0.1,0.12-0.24c-0.21-0.17-0.44-0.08-0.68-0.06c-0.01-0.07-0.02-0.15-0.02-0.22
					C16.57,9.61,16.57,9.61,16.92,9.57z"/>
				<path class="st34" d="M16.92,9.57c-0.34,0.04-0.34,0.04-0.68,0.07c-0.01-0.07-0.02-0.15-0.02-0.22
					C16.49,9.45,16.71,9.33,16.92,9.57z"/>
				<g>
					<path class="st25" d="M16.84,11.65c-0.08,0.16-0.2,0.25-0.37,0.29c-0.01-0.2-0.01-0.4-0.02-0.61
						C16.56,11.46,16.77,11.49,16.84,11.65z"/>
					<path class="st34" d="M16.84,11.65c-0.07-0.15-0.28-0.18-0.39-0.32c0-0.05,0-0.1,0-0.15C16.78,11.29,17,11.34,16.84,11.65z"/>
				</g>
				<path class="st24" d="M16.7,10.42c-0.09,0.14-0.2,0.28-0.29,0.42c0-0.04-0.02-0.1-0.02-0.15c0.19-0.24,0.43-0.65-0.07-0.61
					c0-0.02-0.02-0.02-0.02-0.07C16.62,9.98,16.74,10.08,16.7,10.42z"/>
				<path class="st26" d="M16.7,10.42c0.05-0.34-0.08-0.44-0.42-0.42c-0.01-0.05-0.02-0.09-0.02-0.15c0.25-0.02,0.47-0.11,0.68,0.06
					c-0.01,0.35-0.11,0.22-0.12,0.24C16.8,10.21,16.83,10.23,16.7,10.42z"/>
				<path class="st33" d="M16.38,10.69c-0.02-0.2-0.05-0.41-0.07-0.61C16.81,10.04,16.57,10.46,16.38,10.69z"/>
			</g>
			<g>
				<g>
					<path class="st21" d="M16.35,14.62c-0.26,1.15-1.01,2.44-1.99,3.12c-0.29,0.2-0.91,0.47-1.03,0.56
						c-0.05,0.04-0.21,0.28-0.38,0.42c0.01-0.11-0.02-0.09-0.02-0.1c-0.01-0.05,0-0.22-0.02-0.26c-0.01-0.02-0.2-0.09-0.32-0.16
						c-1.1-0.67-1.67-1.09-2.29-2.27c0.05,0.02,0.1-0.04,0.1-0.06c0.01-0.07-0.35-1.13-0.39-1.32c-0.09-0.49-0.06-1-0.17-1.49
						c0.03-0.01,0.03-0.01,0.06-0.01c0.25,0.39,0.67,0.51,1.11,0.49c-0.04,0.41,0.04,0.81,0.2,1.18c0.09,0.23,0.94,1.69,1.12,1.98
						c0.1,0.16,0.52,0.7,0.62,0.72c0.04,0.01,0.17-0.07,0.24-0.07c0.25-0.01,0.51,0.05,0.76,0.02c0.02,0,0.14-0.07,0.17-0.07
						c0.01,0,0.1,0.05,0.17,0.02c0.04-0.01,0.07-0.12,0.12-0.15c0.17-0.09,0.16,0.04,0.55-0.43c0.82-0.97,1.4-2.9,1.27-4.16
						c0.03-0.05,0.16-0.35,0.24-0.09C16.56,12.78,16.39,14.22,16.35,14.62z"/>
					<path class="st21" d="M11.01,13.55c0.37-0.02,0.8-0.24,0.84-0.24c0.1,0,0.54,0.66,1.51,0.37c0.26-0.08,0.51-0.32,0.54-0.32
						c0.08-0.01,0.67,0.38,1.49,0.07c0.45-0.16,0.62-0.46,0.84-0.83c0.13,1.27-0.45,3.19-1.27,4.16c-0.39,0.47-0.38,0.34-0.55,0.43
						c-0.05,0.03-0.08,0.13-0.12,0.15c-0.07,0.02-0.16-0.03-0.17-0.02c-0.03,0.01-0.15,0.07-0.17,0.07
						c-0.25,0.02-0.51-0.03-0.76-0.02c-0.07,0-0.2,0.08-0.24,0.07c-0.1-0.02-0.52-0.56-0.62-0.72c-0.19-0.29-1.03-1.75-1.12-1.98
						C11.05,14.36,10.96,13.96,11.01,13.55z"/>
				</g>
				<g>
					<path class="st21" d="M16.21,8.57c-0.01,0.05-0.1,0.15-0.1,0.21c0,0.03,0.06,0.26,0.1,0.65c0.01,0.07,0.02,0.15,0.02,0.22
						c0.01,0.07,0.02,0.15,0.02,0.22c0.01,0.06,0.02,0.1,0.02,0.15c0.01,0.05,0.02,0.06,0.02,0.07c0.02,0.2,0.05,0.41,0.07,0.61
						c-0.04,0.06-0.01,0.09-0.04,0.12c-0.01,0.01-0.08-0.06-0.23,0.15c-0.04-0.78-0.23-1.91-0.54-2.64c0.2,0.13,0.23,0.24,0.26,0.24
						c0.02,0,0.09-0.18,0.24,0.15C16.14,8.64,16.14,8.64,16.21,8.57z"/>
					<path class="st35" d="M13.94,11.6c0.18,0.01,0.29-0.02,0.48,0.07c0.13,0.06,0.45,0.43,0.52,0.46c-0.03,0.09,0.11,0.34,0.2,0.24
						c0.26,0.13,0.56,0.1,0.83,0.05c-0.07,0.16-0.16,0.27-0.29,0.39c-0.92,0.22-1.56-0.35-2.14-0.61c-0.09-0.04-0.25-0.1-0.31-0.05
						c-0.09-0.3,0.16-0.17,0.29-0.59c0.01-0.02,0-0.05,0.02-0.07c0.23-0.06,0,0.05,0.09,0.1C13.65,11.61,13.87,11.59,13.94,11.6z"/>
					<path class="st21" d="M12.23,11.57c-0.04,0.1,0.01,0.12,0.07,0.2c-0.12-0.04-0.2,0.21-0.29,0.33
						c-0.06,0.07-0.16,0.14-0.22,0.22c-0.01,0.02,0.11,0.04-0.27,0.34c-0.06,0.08,0.29,0.05,0.34,0.04
						c-0.35,0.16-0.73,0.22-1.11,0.2c-0.05,0-0.45-0.15-0.4,0c-0.11-0.07-0.19-0.15-0.27-0.26c0.25-0.01,0.38-0.06,0.4-0.06
						c0.02,0,0.08,0.07,0.33-0.06c0.01-0.05-0.02-0.06-0.02-0.09c-0.02-0.13-0.1-0.15-0.1-0.16c0-0.01,0.09-0.04,0.15-0.09
						c0.05-0.04,0.13-0.12,0.17-0.15c0.06-0.05,0.22-0.16,0.27-0.2c0.23-0.14,0.41-0.23,0.68-0.27
						C12.03,11.56,12.15,11.57,12.23,11.57z"/>
					<path class="st21" d="M15.67,12.82c-0.01,0.01,0.01,0.06-0.13,0.15c-0.63,0.36-2.09-0.07-2.31-0.81
						c0.06-0.05,0.22,0.01,0.31,0.05C14.11,12.47,14.75,13.03,15.67,12.82z"/>
					<path class="st21" d="M12.81,12.26c0,0.03,0.02,0.01,0.05,0.05c-0.2,0.17-0.35,0.38-0.57,0.51c-0.55,0.32-1.39,0.43-1.94,0.07
						c-0.05-0.15,0.35,0,0.4,0c0.38,0.02,0.76-0.04,1.11-0.2c0.36-0.06,0.71-0.39,0.85-0.44C12.73,12.25,12.72,12.35,12.81,12.26z"
						/>
					<path class="st21" d="M12.3,11.77c0.11,0.12,0.38,0.19,0.42,0.49c-0.15,0.05-0.5,0.38-0.85,0.44
						c-0.05,0.01-0.41,0.04-0.34-0.04c0.37-0.3,0.25-0.32,0.27-0.34c0.06-0.08,0.16-0.14,0.22-0.22
						C12.1,11.98,12.18,11.73,12.3,11.77z"/>
					<g>
						<path class="st36" d="M16.13,8.42c0.12,0.11,0.08,0.12,0.07,0.15c-0.07,0.07-0.07,0.07-0.13,0.15
							c-0.16-0.33-0.23-0.14-0.24-0.15c-0.02,0-0.06-0.11-0.26-0.24c-0.97-0.64-2.6-0.66-3.71-0.46c-0.28,0.05-0.53,0.12-0.81,0.22
							c-0.1,0.04-0.52,0.17-0.56,0.23c-0.05,0.07-0.36,1.52-0.39,1.71c-0.07,0.43-0.26,1.98-0.05,2.27
							c0.14,0.19,0.52,0.12,0.73,0.13c0,0.02,0.04,0.04,0.02,0.09c-0.25,0.13-0.31,0.06-0.33,0.06c-0.02,0-0.15,0.05-0.4,0.06
							c0.08,0.1,0.16,0.18,0.27,0.26c0.55,0.36,1.39,0.25,1.94-0.07c0.23-0.14,0.38-0.34,0.57-0.51c0.13,0.19,0.37,0.09,0.09-0.22
							c-0.23,0.17-0.13,0.16-0.13,0.17c-0.09,0.1-0.09,0-0.1,0c-0.04-0.3-0.3-0.37-0.42-0.49c-0.07-0.07-0.12-0.1-0.07-0.2
							c0.04,0,0.13-0.05,0.21-0.02c0.16,0.05,0.27,0.6,1.09,0.02c-0.13,0.41-0.38,0.29-0.29,0.59c0.22,0.74,1.68,1.17,2.31,0.81
							c0.15-0.08,0.13-0.14,0.13-0.15c0.13-0.12,0.22-0.23,0.29-0.39c0.06-0.14,0.12-0.34,0.15-0.49c0.05-0.31,0.02-0.66,0-0.98
							c0.15-0.2,0.22-0.14,0.23-0.15c0.03-0.03-0.01-0.07,0.04-0.12c0.01,0.05,0.02,0.1,0.02,0.15c0.01,0.1,0.01,0.2,0.02,0.29
							c0,0.02,0.02,0.03,0.02,0.05c0,0.05,0,0.1,0,0.15c0.02,0.21,0.01,0.41,0.02,0.61c0.02,0.29-0.08,0.29,0.27,0.31
							c-0.12,0.06-0.12,0.06-0.24,0.12c0.31,0.22,0.59,0.38,0.04,0.11c-0.22,0.5,0.41,1.11,0,0.76c-0.05,0.1-0.04,0.33-0.06,0.56
							c-0.03,0.33-0.05,0.5-0.12,0.83c0.04-0.4,0.2-1.85,0.12-2.11c-0.08-0.26-0.21,0.03-0.24,0.09c-0.22,0.37-0.4,0.67-0.84,0.83
							c-0.82,0.3-1.41-0.08-1.49-0.07c-0.03,0-0.28,0.24-0.54,0.32c-0.97,0.3-1.41-0.36-1.51-0.37c-0.04,0-0.47,0.23-0.84,0.24
							c-0.44,0.02-0.86-0.1-1.11-0.49c-0.03,0.01-0.03,0.01-0.06,0.01c0.11,0.49,0.08,1,0.17,1.49c0.04,0.19,0.4,1.25,0.39,1.32
							c0,0.02-0.05,0.08-0.1,0.06c-0.3-0.57-0.48-1.07-0.56-1.71c-0.02-0.14-0.04-0.29-0.05-0.44c-0.02-0.24,0.01-0.48,0-0.72
							c-0.66,0.67-0.26,0.13,0-0.22c0.08-0.37-0.24-0.52-0.44-0.78c0.2,0.18,0.2,0.18,0.4,0.35c0.03-0.02,0.01-0.57,0.01-0.66
							c0.01-0.17,0.01-0.34,0.02-0.51c0-0.03,0-0.07,0-0.1c0.04-0.46,0.13-0.93,0.17-1.39c0.01-0.1-0.01-0.22,0-0.32
							c0.02-0.24,0.09-0.5,0.07-0.74c0-0.03-0.16-0.08-0.02-0.23c0.02-0.02,0.36-0.24,0.4-0.27c1.3-0.75,3.66-0.82,5.03-0.24
							C15.48,8.02,16.05,8.34,16.13,8.42z"/>
						<g>
							<path class="st37" d="M12.86,12.3c-0.02-0.04-0.05-0.02-0.05-0.05c0.01-0.01-0.09-0.01,0.13-0.17
								C13.24,12.39,13,12.5,12.86,12.3z"/>
							<g>
								<path class="st38" d="M12.77,13.4c0.02-0.02,0.02-0.02,0.05-0.04c-0.2-0.01-0.03-0.15-0.05-0.28
									c0.23,0.02,0.52,0.06,0.73-0.05c0.05,0.05,0.24,0.17,0.24,0.18C13.5,13.46,13.08,13.45,12.77,13.4z"/>
								<path class="st37" d="M12.72,12.87c0.17,0,0.34,0,0.51,0c0.04,0,0.04,0,0.07,0c0.07,0.05,0.13,0.11,0.2,0.17
									c-0.21,0.11-0.51,0.07-0.73,0.05c-0.13-0.01-0.24-0.01-0.37-0.05c0.08-0.06,0.16-0.14,0.24-0.2
									C12.64,12.88,12.68,12.87,12.72,12.87z"/>
								<path class="st26" d="M12.4,13.04c0.12,0.04,0.24,0.04,0.37,0.05c0.02,0.13-0.15,0.27,0.05,0.28
									c-0.02,0.02-0.02,0.02-0.05,0.04c-0.23-0.03-0.4-0.09-0.59-0.23C12.17,13.12,12.37,13.06,12.4,13.04z"/>
								<path class="st34" d="M13.3,12.87c-0.04,0-0.04,0-0.07,0c0.02-0.09-0.55-0.12-0.51,0c-0.04,0-0.07,0.01-0.07-0.02
									c0.04-0.03,0.14-0.14,0.16-0.15C13.15,12.6,13.27,12.84,13.3,12.87z"/>
								<path class="st39" d="M13.23,12.87c-0.17,0-0.34,0-0.51,0C12.68,12.75,13.25,12.77,13.23,12.87z"/>
							</g>
						</g>
					</g>
					<g>
						<path class="st25" d="M11.06,8.08c-0.02,0.23,0.04,0.65,0,0.82c-0.04,0.17-0.12,0.13-0.22,0.21
							c-0.21,0.17-0.36,0.66-0.33,0.68c0.29-0.17,0.61-0.23,0.94-0.24c0.06,0.02,0.06,0.02,0.12,0.05c-0.16,0-0.32-0.03-0.29,0.11
							c0.24,0.34-0.09,0.11-0.24,0.33c-0.1,0.05-0.23,0.13-0.27,0.24c-0.08,0.06-0.12,0.05-0.05,0.12c-0.1-0.07-0.11-0.08-0.2-0.17
							c-0.07-0.08-0.03-0.17-0.13-0.12c-0.12,0.07-0.26,1.66,0.34,2.03c0.02,0.01,0.14-0.07,0.11,0.05
							c-0.06,0.05-0.14,0.08-0.15,0.09c0,0.01,0.08,0.03,0.1,0.16c-0.21-0.01-0.59,0.06-0.73-0.13c-0.22-0.29-0.02-1.84,0.05-2.27
							c0.03-0.19,0.34-1.64,0.39-1.71C10.54,8.25,10.95,8.12,11.06,8.08z"/>
						<path class="st40" d="M11.86,7.86c0,0.28,0.36,0.81,0.34,1.09c0,0.04-0.12,0.01-0.02,0.11C11.75,9,11.26,9.05,10.84,9.11
							c0.1-0.08,0.18-0.04,0.22-0.21c0.04-0.17-0.02-0.59,0-0.82C11.33,7.98,11.58,7.91,11.86,7.86z"/>
						<path class="st25" d="M12.74,9.72c0.01,0,0.1,0.07,0.1,0.1c0,0.03,0.04,0.25-0.02,0.57c-0.12,0.6-0.63,1.21,0.22,1.23
							c0.26,0.01,0.3-0.07,0.51-0.12c-0.02,0.03-0.02,0.05-0.02,0.07c-0.81,0.57-0.92,0.02-1.09-0.02
							c-0.08-0.02-0.17,0.02-0.21,0.02c-0.08,0-0.2-0.01-0.27,0c-0.08-0.55,0.28-0.15,0.44-0.83c0.05-0.23,0.09-0.62,0-0.83
							C12.49,9.87,12.47,9.67,12.74,9.72z"/>
						<path class="st40" d="M14.62,11.62c0.5,0.44,0.92,0.24,1.49,0.32c-0.02,0.15-0.08,0.35-0.15,0.49
							c-0.27,0.05-0.57,0.08-0.83-0.05c0.88-0.28,0.15-0.08-0.2-0.24c-0.08-0.04-0.39-0.4-0.52-0.46c-0.18-0.09-0.3-0.06-0.48-0.07
							c-0.05-0.18-0.22-0.4-0.24-0.59C13.95,10.97,14.29,11.59,14.62,11.62z"/>
						<path class="st36" d="M12.18,9.06c0.06,0.01,0.13-0.02,0.2,0.04c-0.02,0.19-0.02,0.19-0.05,0.38c0,0.01,0,0.11-0.06,0.12
							c-0.04,0.01-0.53-0.06-0.82-0.05c-0.33,0.02-0.65,0.07-0.94,0.24c-0.04-0.02,0.12-0.51,0.33-0.68
							C11.26,9.05,11.75,9,12.18,9.06z"/>
						<path class="st40" d="M13.03,11.62c-0.85-0.02-0.34-0.64-0.22-1.23c0.07-0.33,0.02-0.55,0.02-0.57c0-0.01,0.05-0.15,0.06-0.15
							c0.22,0.17,0.07,0.4,0.06,0.62c0,0.01,0.05,0.08,0.05,0.12c0,0.02-0.07,0.1-0.07,0.32C12.94,11.05,12.96,11.31,13.03,11.62z"
							/>
						<path class="st33" d="M12.74,9.72c-0.27-0.05-0.25,0.15-0.34,0.2c-0.02-0.06-0.07-0.07-0.07-0.07
							c-0.18-0.2-0.48-0.25-0.76-0.24c-0.06-0.02-0.06-0.02-0.12-0.05c0.29-0.01,0.78,0.06,0.82,0.05c0.06-0.02,0.06-0.12,0.06-0.12
							c0.06-0.06,0.07-0.12,0.09-0.12c0.03-0.01,0.67,0.4,0.32,0.29C12.74,9.68,12.74,9.68,12.74,9.72z"/>
						<path class="st40" d="M10.71,10.4c0.13,0.09,0.28,0.16,0.44,0.17c0.01,0.32-0.04,0.85,0.07,1.14
							c0.03,0.07,0.15,0.04,0.05,0.13c-0.05,0.03-0.21,0.15-0.27,0.2c-0.27,0.05-0.43-0.11-0.51-0.35
							c-0.06-0.16-0.24-1.42,0.02-1.45C10.6,10.32,10.61,10.33,10.71,10.4z"/>
						<path class="st40" d="M11.57,9.59c0.27-0.01,0.58,0.04,0.76,0.24c-0.13,0.05-0.03,0.12-0.17,0.24
							c-0.32-0.2-0.78-0.21-1.12-0.05c0.15-0.22,0.48,0.01,0.24-0.33C11.25,9.56,11.41,9.6,11.57,9.59z"/>
						<path class="st36" d="M12.16,10.08c0,0,0,0.03,0,0.05c-0.01-0.01-0.05,0.01-0.07,0c-0.39-0.11-0.12,0.09-0.34,0.2
							c-0.1,0.05-0.14,0.01-0.22,0c-0.3-0.18,0.02-0.26-0.34-0.2c-0.14,0.02-0.3,0.07-0.42,0.15c0.03-0.12,0.17-0.2,0.27-0.24
							C11.37,9.88,11.84,9.89,12.16,10.08z"/>
						<path class="st41" d="M11.18,10.13c0.12,0.17,0.16,0.18,0.34,0.2c0.08,0.01,0.12,0.05,0.22,0c0.02,0.01,0.02,0.01,0.05,0.02
							c-0.2,0.12-0.39,0.23-0.63,0.22c-0.16-0.01-0.31-0.09-0.44-0.17c-0.07-0.07-0.03-0.07,0.05-0.12
							C10.88,10.2,11.04,10.16,11.18,10.13z"/>
						<path class="st41" d="M10.52,10.23c-0.26,0.03-0.08,1.29-0.02,1.45c0.09,0.25,0.24,0.41,0.51,0.35
							c-0.04,0.03-0.12,0.1-0.17,0.15c0.03-0.12-0.09-0.04-0.11-0.05c-0.6-0.36-0.47-1.95-0.34-2.03
							C10.49,10.06,10.44,10.15,10.52,10.23z"/>
						<path class="st21" d="M15.13,12.38c-0.09,0.09-0.23-0.16-0.2-0.24C15.29,12.3,16.01,12.1,15.13,12.38z"/>
						<path class="st34" d="M12.16,10.13c0.23,0.1,0.09,0.47,0.24,0.61c-0.16,0.68-0.52,0.28-0.44,0.83
							c-0.28,0.04-0.45,0.13-0.68,0.27c0.1-0.1-0.02-0.06-0.05-0.13c-0.12-0.28-0.06-0.82-0.07-1.14c0.24,0.01,0.43-0.1,0.63-0.22
							c0.09-0.05,0.26-0.15,0.29-0.22C12.1,10.14,12.14,10.13,12.16,10.13z"/>
						<path class="st40" d="M12.4,9.91c0.09,0.21,0.05,0.6,0,0.83c-0.16-0.14-0.01-0.51-0.24-0.61c0-0.02,0-0.05,0-0.05
							c0.14-0.13,0.04-0.19,0.17-0.24C12.33,9.84,12.37,9.85,12.4,9.91z"/>
						<g>
							<path class="st34" d="M15.57,8.32c0.3,0.72,0.49,1.85,0.54,2.64c0.02,0.31,0.05,0.66,0,0.98c-0.57-0.07-0.99,0.13-1.49-0.32
								c-0.02-0.02-0.16-0.24-0.31-0.37c-0.1-0.09-0.67-0.58-0.62-0.24c0.03,0.19,0.19,0.4,0.24,0.59c-0.07,0-0.29,0.01-0.31,0
								c-0.08-0.05,0.15-0.16-0.09-0.1c-0.21,0.05-0.25,0.13-0.51,0.12c-0.07-0.32-0.1-0.57-0.1-0.89c0-0.22,0.07-0.3,0.07-0.32
								c0-0.04-0.05-0.12-0.05-0.12c0.01-0.22,0.15-0.45-0.06-0.62c-0.01,0-0.06,0.14-0.06,0.15c0-0.03-0.09-0.1-0.1-0.1
								c-0.01-0.04-0.01-0.04-0.01-0.07c0.35,0.11-0.28-0.3-0.32-0.29c-0.01,0-0.03,0.06-0.09,0.12c0.02-0.19,0.02-0.19,0.05-0.38
								c-0.07-0.05-0.13-0.03-0.2-0.04c-0.1-0.1,0.02-0.07,0.02-0.11c0.02-0.28-0.34-0.8-0.34-1.09C12.97,7.67,14.6,7.68,15.57,8.32
								z"/>
							<g>
								<path class="st36" d="M15.5,9.72c-0.2-0.06-0.37-0.16-0.57-0.2c-0.26-0.04-0.51,0-0.77,0c-0.13,0-0.35,0.05-0.37,0.05
									c-0.23-0.02-0.22-0.32-0.18-0.49C14.72,9.07,15.45,8.67,15.5,9.72z"/>
								<path class="st40" d="M15.5,9.72c0.01,0.21,0.01,0.76-0.29,0.49c-0.01-0.01,0.03-0.04,0.02-0.04
									c-0.29-0.26-0.65-0.31-1.03-0.26c0.13-0.17,0.24-0.38-0.05-0.39c0.26,0,0.51-0.04,0.77,0C15.13,9.55,15.3,9.66,15.5,9.72z"
									/>
								<path class="st40" d="M14.16,9.52c0.29,0.02,0.18,0.22,0.05,0.39c-0.12,0.02-0.37,0.05-0.42,0.17
									c-0.07,0.01-0.05,0.02-0.05,0.02c-0.09,0.01-0.19,0.06-0.21,0.05c-0.13-0.2,0.16-0.42,0.26-0.59
									C13.81,9.57,14.03,9.52,14.16,9.52z"/>
								<path class="st40" d="M14.62,11.62c-0.33-0.03-0.67-0.65-0.93-0.61c-0.05-0.33,0.52,0.15,0.62,0.24
									C14.46,11.38,14.6,11.6,14.62,11.62z"/>
								<path class="st34" d="M14.08,10.06c0.07,0.12,0.07,0.12,0.15,0.24c-0.11,0.06-0.38-0.12-0.49-0.2c0,0-0.02-0.01,0.05-0.02
									C13.9,10.07,13.98,10.06,14.08,10.06z"/>
								<g>
									<path class="st36" d="M15.21,10.2c-0.1,0.02-0.13-0.03-0.2-0.05c-0.04-0.02-0.23-0.09-0.26-0.07
										c-0.02,0.01-0.01,0.16-0.13,0.24c-0.1,0.01-0.26,0.05-0.34-0.05c-0.06-0.07-0.04-0.26-0.09-0.27
										c-0.01,0-0.1,0.05-0.11,0.05c-0.1,0-0.19,0.01-0.29,0.02c0.05-0.12,0.29-0.15,0.42-0.17c0.38-0.05,0.73,0,1.03,0.26
										C15.23,10.17,15.2,10.2,15.21,10.2z"/>
									<path class="st42" d="M15.01,10.16c-0.12,0.09-0.27,0.16-0.39,0.17c0.13-0.08,0.12-0.23,0.13-0.24
										C14.78,10.06,14.97,10.14,15.01,10.16z"/>
									<path class="st42" d="M14.28,10.28c-0.02,0-0.03,0.02-0.05,0.02c-0.07-0.12-0.07-0.12-0.15-0.24c0.01,0,0.1-0.05,0.11-0.05
										C14.23,10.02,14.22,10.2,14.28,10.28z"/>
									<path class="st43" d="M14.63,10.06c0.03,0.01,0.03,0.01,0.06,0.01C14.72,10.21,14.58,10.18,14.63,10.06z"/>
								</g>
							</g>
						</g>
						<path class="st42" d="M12.08,10.13c-0.03,0.07-0.21,0.17-0.29,0.22c-0.02-0.01-0.02-0.01-0.05-0.02
							C11.96,10.22,11.69,10.02,12.08,10.13z"/>
						<path class="st42" d="M11.52,10.33c-0.18-0.02-0.22-0.03-0.34-0.2C11.54,10.07,11.22,10.15,11.52,10.33z"/>
					</g>
				</g>
			</g>
		</g>
	</g>
</g>
<g>
	<path d="M12.5,0.5c6.62,0,12,5.38,12,12s-5.38,12-12,12s-12-5.38-12-12S5.88,0.5,12.5,0.5 M12.5,0C5.6,0,0,5.6,0,12.5
		S5.6,25,12.5,25S25,19.4,25,12.5S19.4,0,12.5,0L12.5,0z"/>
</g>
</svg>
