<?xml version="1.0" encoding="utf-8"?>
<!-- Generator: Adobe Illustrator 28.3.0, SVG Export Plug-In . SVG Version: 6.00 Build 0)  -->
<svg version="1.1" id="Layer_1" xmlns="http://www.w3.org/2000/svg" xmlns:xlink="http://www.w3.org/1999/xlink" x="0px" y="0px"
	 viewBox="0 0 130 40" style="enable-background:new 0 0 130 40;" xml:space="preserve">
<style type="text/css">
	.st0{fill:#231F20;}
</style>
<g>
	<g>
		<path class="st0" d="M23.4,6.1L23,6.4L22.7,7c0.1,0.2,0.2,0.5,0.4,0.8c0,0.6-0.1,1.1-0.4,1.5l-0.6,0.1l-0.2-0.3
			c-0.1-0.3-0.2-0.5-0.2-0.6h-0.1V8.2L21,7.5h-0.5l-0.9,0.5l-0.8-0.1c-0.4,0.1-0.6,0.1-0.6,0.1c-0.4-0.1-1.1-0.2-1.9-0.4
			c-0.6,0-1.6-0.1-2.9-0.1c-0.4-0.1-1.1-0.2-2-0.4c-0.1,0.2-0.2,0.4-0.5,0.9v0.2c-0.1,0.1-0.2,0.3-0.3,0.7c-0.1,0.4-0.1,0.6-0.1,0.8
			h0.1l0.5,0.7l-0.1,0.5l0.4,0.9v1.1l0.1,0.1v0.9c-0.3,0.2-0.5,0.5-0.6,0.8c0,0,0.6,0.4,1.8,1.1l1.2,0.1l0.9-0.4l-0.1-0.9
			c0-0.3,0.2-0.6,0.5-0.8l0.8-0.4c0.4,0,0.9,0.1,1.6,0.2l0.1,0.1v0.8l-0.5,0.1l-0.1,0.2v0.9c0.1,0.3,0.2,0.7,0.4,1l-0.2,0.9
			l-0.7,0.5l-0.4-0.3V17l-0.2-0.6l-0.4-0.3h-0.2L15,16.5l-1.1,0.1c-1,0-1.8-0.3-2.4-0.8l-0.9-0.1l-0.4,0.1v0.6l0.1,0.1v0.3l0.1,0.1
			v0.2l-0.4,0.1c0,0.2,0,0.5-0.1,0.8c-0.1,0.4-0.2,0.6-0.1,0.7h0.1v0.1c0,0.4-0.1,0.8-0.3,1.3l-0.4,0.5l0,0.1
			C9.2,21.4,9.1,22,9,22.8c-0.1,0.2-0.3,0.4-0.5,0.8L8,24l-0.1,0.2l0.5,0.3H9l0.9,0.4h0.5l0.5,0.6v0.2l-0.5,0.5L9,25.4
			c-0.9-0.1-1.5-0.1-1.9-0.1c0,0-0.1,0-0.3,0.1c-0.2,0.1-0.3,0.1-0.4,0.1c-0.3,0-0.8,0.1-1.5,0.2C4.6,26,4.3,26.2,4,26.6v0.1H3.7
			l-0.9-0.2l-0.5-0.6l0.1-0.7L2.9,25L3,24.5l0.7,0.3l0.6-0.3c0.3,0.1,0.9,0,1.7-0.4l0.3-0.6l0.1-0.1v-0.4l0.4-0.6v-1.2l-0.2-0.5
			v-0.5c0.2-0.4,0.3-1.2,0.3-2.3c0-0.1,0-0.3,0.1-0.6c0-0.3,0.1-0.5,0.1-0.7l0.4-0.5v-0.2c0.3-0.2,0.5-0.3,0.8-0.4l0.2-0.5L8.6,15
			l-0.1-0.1l-0.3-0.1l-2.9,0.1l-1,0.5L3.9,16c-0.2,0.1-0.5,0.2-0.9,0.1v-0.5c0.1-0.3,0.1-0.4,0.1-0.5l0.5-0.2L4,14.4
			c0.1,0,0.6-0.1,1.4-0.3C6,14,6.4,13.9,6.7,13.9c-0.1,0,0.5,0.1,1.8,0.2l0.1-0.2v-0.7l0.1-0.1c-0.1-0.4-0.2-0.7,0-1l-0.2-0.6
			l0.3-0.5l-0.3-0.1l-0.1-0.5l0.1-0.5L8.1,9.6l0.2-0.9h0.1c0-0.2,0.1-0.5,0.4-0.9c0.3-0.4,0.5-0.6,0.7-0.7l0.2-0.4L9.6,6.4l-1-0.2
			L7.9,5.6c-0.2-0.1-0.6-0.2-1-0.1L6.5,5.2C5.6,5.3,5.2,5.3,5.4,5.3c-0.1,0-0.3,0-0.6-0.1C4.5,5.3,4.2,5.4,3.9,5.3L2.6,5.9v0.5
			l0.8,1.1l0.9,0.1l0.2-0.4C4.9,7,5.2,7,5.4,7l0.5,0.2L6,7.6L5.8,8.4C5,8.7,4.5,8.8,4.2,8.8C3.8,8.6,3.3,8.4,2.8,8.4L2.7,7.9
			L1.9,7.7C1.9,7.4,1.8,7,1.7,6.4l0.4-0.9l0.6-0.4l0.1-0.4H3l0.4-0.2c0.2,0,0.6,0,1.1-0.1c0.6-0.1,1.1-0.2,1.4-0.2
			c0.2,0,0.5,0,0.9,0.1c0.4,0.1,0.7,0.1,1,0.1C8,4.6,8.3,4.8,8.6,5l1-0.1l0.2-0.2l1.1,0.2l0.5-0.5l0.3-0.1V3.8
			c0.3-0.2,0.7-0.4,1-0.6V3l1.2-0.2l0.2-0.2l0.9-0.3l0.1-0.1c0.5-0.1,1.2-0.1,2-0.1c0.1,0,0.4-0.1,0.9-0.2c0.4-0.1,0.7-0.2,0.8-0.1
			l0.5,0.5c-0.5,0.4-1,0.6-1.5,0.6c-0.6,0-1.1,0-1.7,0l-1.7,0.8l-0.1,0.1L14,3.8L13.8,4l-0.8,0.1l-0.1,0.4c-0.3,0.1-0.5,0.3-0.6,0.5
			c0.1,0.1,0.4,0.3,1.1,0.6h0.6v0.1l0.8,0.5c0.1,0,0.4,0,0.9-0.1c0.3,0,0.6,0,0.8,0c0.1,0,0.5,0.1,1.2,0.3c0.3,0.3,0.9,0.5,1.8,0.5
			c0.3,0,0.9-0.2,1.8-0.5L21.4,6V5.9h0.1c0.4-0.3,0.7-0.6,1-0.9h0.4C23,5.2,23.2,5.6,23.4,6.1z"/>
		<path class="st0" d="M31.7,7.8l-0.2,0.1h-0.7c-0.2-0.1-0.3-0.1-0.3-0.1c-0.2,0-0.5,0.1-0.9,0.3c-0.4,0.2-0.7,0.3-0.9,0.3
			c-0.2,0.3-0.4,0.6-0.7,1c0,0.1,0,0.2,0,0.4c0,0.2,0,0.3,0,0.4c-0.1,0.4-0.3,0.7-0.6,0.9l-0.1,1.3l-0.3,0.4v0.9
			c-0.3,0.3-0.5,0.6-0.6,0.9l0,0.5c-0.2,0.4-0.2,0.7-0.2,0.9c-0.2,0.3-0.4,0.6-0.5,0.9c0,0.2-0.1,0.6-0.2,1.3
			c-0.1,0.6-0.2,0.9-0.2,1c-0.2,0.2-0.4,0.3-0.5,0.4l0.2,0.4L24.6,20c-0.1,0.1-0.2,0.4-0.3,0.8L24,21.2l-0.1,1l-0.3,0.5
			c0,0.7-0.3,1.3-0.8,1.7l-0.5,0.1c-0.3,0.3-0.6,0.6-1.1,0.9c-0.5,0.2-0.9,0.3-1.3,0.4c-0.2-0.1-0.6-0.2-1-0.1l-0.3-0.1L18,24.9
			v-0.5l0.5-0.4h0.2l0.2,0.2l0.6,0.3c0.2-0.1,0.5-0.3,0.7-0.5c0.2-0.3,0.5-0.4,0.6-0.5c0.1-0.2,0.2-0.5,0.3-0.9
			c0-0.4,0.1-1.1,0.2-1.8h0.1v-0.3l0.2-0.5v-0.6l0.4-0.5c0.2-1,0.5-1.8,0.9-2.2c0-0.3,0.3-1.1,0.7-2.4c0-0.2,0.1-0.5,0.2-0.9
			c0.2-0.3,0.5-0.9,0.9-1.6l-0.1-0.5l0.1-0.6l0.5-0.1l0.1-0.2v-0.5l0.2-0.1L26,9.1c0.3-0.3,0.7-0.7,1.2-1.2l0.4,0l0.3-0.4h0.2
			c0.2-0.2,0.6-0.4,1.2-0.6c0.6-0.2,1.1-0.3,1.2-0.4c0.4,0.1,0.6,0.1,0.8,0.1l0.4,0.5V7.8z"/>
		<path class="st0" d="M36.9,20.5l-0.1,0.9h-0.1v0.2l-0.2,0.3V22l-0.4,0.3l-0.4,0.6l-0.4,0.2l0.1,0.2c-0.1,0.3-0.3,0.5-0.4,0.6
			L35,24.2c-0.2,0.1-0.4,0.3-0.7,0.7c-0.3,0.4-0.6,0.7-0.8,0.8c-0.3,0-0.5,0-0.8,0.1c-0.3-0.1-0.7-0.1-1.3-0.1
			c-0.3,0.1-0.5,0.1-0.6,0.2l-0.6-0.2c-0.4-0.3-0.7-0.5-1-0.6c-0.2-0.2-0.4-0.4-0.7-0.8c0-0.2-0.1-0.5-0.1-0.9
			c-0.2-0.2-0.4-0.5-0.6-1c-0.4-0.4-0.7-1-0.7-1.8l0.3-0.9c0.2-0.2,0.5-0.4,0.9-0.6c0.1-0.2,0.2-0.3,0.3-0.5l0.6-0.4l0.6-0.8
			l0.6-0.2h0.4l0.5-0.5l0.6-0.1l0.2,0.1c0.1,0.1,0.2,0.4,0.3,0.9h0.2l0.1-0.1l0.6-0.2l0.2-0.3h0.6l0.5,0.3l0.2,0.8l0.6,0.2h0.1
			c0.1,0.2,0.3,0.4,0.6,0.5C36.4,19.1,36.6,19.7,36.9,20.5z M35.9,20.2l-0.2-0.6v-0.1l-0.3-0.2L35.4,19l-0.5-0.2L34.5,19
			c-0.1,0.2-0.2,0.4-0.4,0.6c0,0.1,0,0.2-0.1,0.5l-0.3,0.1v0.1l-0.4,0.3l-0.6-0.4l-0.1-0.1v-0.9l-0.3-0.6v-0.1l-0.2-0.1v-0.1
			L32,18.1l-0.5,0.1l-0.2,0.3l-0.6,0.3h-0.1c-0.1,0.2-0.3,0.4-0.6,0.7v0.2l0.1,0.1v0.2l0.1,0.2L30,20.9v0.5c0.1,0.1,0.1,0.2,0.2,0.4
			c0,0,0,0.1,0,0.2c0,0.1,0,0.1,0,0.2c0,0,0,0.1,0,0.2c0,0.1,0,0.1,0,0.2c0.1,0.2,0.2,0.4,0.2,0.8l0.5,0.4l0.2,0.5l0.6,0.5l0.8,0.1
			c0.2-0.2,0.6-0.4,1.1-0.6l0-0.3c0.2-0.1,0.5-0.3,0.8-0.6l0.1-0.3c0.2-0.2,0.4-0.4,0.6-0.7l0.5-0.2C35.9,21.4,36,20.8,35.9,20.2z"
			/>
		<path class="st0" d="M48,18.8L48,19.6l-0.4,0.1c-0.1,0-0.4-0.1-0.9-0.1c-0.2,0-0.5-0.1-0.8-0.2c-0.2-0.3-0.4-0.6-0.5-0.8l-0.5-0.2
			c-0.3,0.2-0.5,0.5-0.7,0.9l-0.1,0.5L43.7,20l-0.4,0.6l0,0.4l-0.1,0.4L43,21.6l0,0.5l-0.4,0.4c0,0.3-0.2,0.6-0.3,0.8L42,23.3
			l-0.1,0.4l0.1,0.3l-0.1,0.5l-0.2,0.3l-0.1,0.5l-0.4,0.5c-0.4,0.1-0.7,0.2-0.9,0.2c-0.2-0.2-0.6-0.3-1-0.3c-0.1,0-0.3,0-0.6,0.1
			c-0.3,0.1-0.5,0.1-0.6,0.1l-0.2-0.3l0-0.4c0.2-0.1,0.4-0.4,0.8-0.7c-0.1-0.4,0-0.7,0.1-0.9H39l0.1-0.3l0.2-0.1l0.1-0.3h0.1
			l0.2-0.6c0.1-0.2,0.3-0.4,0.7-0.6c0-0.2,0.2-0.5,0.5-0.9v-0.4c0.3-0.6,0.4-1.1,0.3-1.5l-0.2-0.5l-0.3-0.1c-0.1,0-0.3,0-0.6,0
			l-0.4,0.2l-0.4-0.2l-0.4,0.1l-0.1-0.1h-0.5v-0.3c0.2-0.2,0.4-0.4,0.7-0.5l0.3,0c0.2-0.3,0.5-0.4,1-0.5h0.5l0.1-0.1l0.5,0.1
			c0.2,0,0.4-0.2,0.8-0.5c0.3,0.1,0.6,0.3,0.8,0.4c0.2,0.3,0.3,0.5,0.4,0.7V18l0.3,0.6h0.1c0.2-0.3,0.4-0.7,0.8-1.1
			c0.4-0.4,0.8-0.7,1.1-0.8l0.4,0.1l0.2,0.3c0.3,0.1,0.5,0.3,0.7,0.5v0.3l0.4,0.4l0.5,0.1v0.1L48,18.8z"/>
		<path class="st0" d="M57.6,19l-0.1,0.1l0,0.4l0.1,0.3l-0.1,0.4l0.1,0.5c-0.3,0.6-0.5,1-0.8,1.2c0,0-0.1,0-0.2,0s-0.2,0-0.2,0
			c0,0-0.3,0-0.7-0.1l-0.2-0.1c-0.3,0-0.8,0-1.8-0.2c-0.9-0.2-1.5-0.3-1.8-0.4l-0.4,0.2c0,0.1-0.1,0.3-0.3,0.9
			c-0.2,0.5-0.3,0.8-0.3,0.9c0,0.1,0,0.2,0,0.4c0,0.2,0,0.3,0,0.4l0.5,1c0.3,0.1,0.5,0.2,0.5,0.2c0,0,0.1,0,0.1,0c0,0,0.1,0,0.1,0
			l1,0.1c0.3-0.1,0.5-0.2,0.9-0.4c0.4-0.3,0.7-0.4,0.8-0.5l0.2,0c0.3-0.2,0.4-0.4,0.6-0.7l0.7-0.2l0.1,0.4c-0.1,0.3-0.6,0.9-1.7,2
			c-0.4,0.2-0.9,0.3-1.5,0.3c-0.7,0.1-1.2,0.1-1.5,0.2l-0.7-0.1l-0.1-0.1L50,25.9c-0.6-0.4-1.1-1-1.6-1.9c0-0.3-0.1-0.6-0.2-0.9
			c0.1-0.2,0.1-0.6,0.2-1.2l0.1-0.1l-0.1-0.1l0.2-0.2l0.1-0.5c0.2-0.1,0.3-0.4,0.5-0.7v-1.1l0.3-0.1l0.2-0.9
			c0.8-0.9,1.6-1.5,2.5-1.8c0.1,0,0.1,0,0.2,0c0.1,0,0.2,0,0.2,0c0.3-0.1,0.5-0.1,0.5-0.1l0.4,0.2c0.1,0,0.3-0.1,0.6-0.2
			c0.2,0,0.4,0.1,0.7,0.2s0.6,0.2,0.7,0.2L56,17l0.3,0.1l0.2,0.2l0.5,0.2l0.3,0.3c0.1,0.1,0.1,0.3,0.2,0.6S57.5,18.9,57.6,19z
			 M55.7,19.4l-0.1-0.1c0-0.4,0-0.7,0-0.9c-0.1-0.3-0.5-0.7-1.2-1.2c-0.4,0-0.9,0.1-1.6,0.4l-0.2,0.3L52.2,18l-0.1,0.3L52,18.4v0.3
			l-0.2,0.2c-0.1,0.1-0.1,0.3-0.2,0.7h-0.1l0,0.3l0.1,0.4c0.7,0.3,1.9,0.6,3.6,0.7c0.1-0.3,0.2-0.5,0.4-0.6L55.7,19.4z"/>
		<path class="st0" d="M70.7,17.8l-0.1,0.1v0.6l-0.1,0.1l-0.3,0.6l0.1,0.2l-0.1,0.1c0,0.3-0.1,0.6-0.2,1l0.1,0.2
			c-0.2,0.3-0.5,0.7-0.8,1.3c-0.3,0.6-0.5,1.1-0.5,1.4l-0.2,0.4l0.1,0.5c0.5-0.3,0.8-0.7,1.1-1l0.4-0.2l0.5,0.1c0,0.2-0.2,0.6-0.6,1
			c-0.4,0.5-0.7,0.9-0.8,1.1L69,25.5v0.1l-0.8,0.5c-0.4,0-0.8-0.2-1.2-0.6c-0.1-0.1-0.2-0.2-0.4-0.4l-0.2-0.4v-0.4l-0.1-0.2l0.1-0.3
			l0-0.4c0-0.5,0.2-1.1,0.7-1.9s0.7-1.6,0.6-2.2c0.2-0.4,0.4-0.9,0.5-1.4l-0.3-0.1l-0.1,0.1V18L67,18.5v0.1l-0.5,0.1v0.1
			c-0.4,0.1-0.6,0.3-0.7,0.5v0.3c-0.1,0.1-0.4,0.2-0.9,0.2v0.2h-0.2l-0.1,0.1h-0.1l-0.1,0.2v0.3l-0.4,0.1v0.2l-0.2,0.4l0,0.6
			c-0.1,0.2-0.3,0.5-0.4,1c-0.1,0.5-0.2,0.8-0.4,1c-0.2,0.1-0.4,0.4-0.6,0.7c-0.3,0.4-0.4,0.6-0.6,0.8c-0.4,0.1-1,0.2-1.8,0.4
			l-0.4-0.2l-0.6,0.2l-0.6-0.4L58,24.8l0.1-0.6l0.4-0.1c0.3,0.2,0.6,0.3,0.8,0.5l0.6-0.1l0.4-0.3l0.1-0.7l0.1-0.1c0-0.4,0-0.7,0.1-1
			c0.2-0.3,0.4-0.8,0.7-1.4c0.1-0.5,0.4-1.3,0.7-2.3l-0.1-0.4l0.1-0.3L62,17.8l-0.4,0.1V18l-0.5,0.1l-0.3,0.2
			c-0.5,0.1-0.9,0.2-1.2,0.3l-0.6-0.3L58.8,18l0.1-0.2c1.2,0,2.4-0.3,3.7-1.1h0.3l0.8-0.6l0.4-0.1l0.4,0.2c0.5,0.5,0.7,0.9,0.6,1.2
			l-0.2,0.1v0.2l-0.2,0.4c0,0.1,0,0.2-0.1,0.5l0.1,0.3l0.2,0.1c0.4-0.1,0.9-0.4,1.3-0.7v-0.1h0.1l0.3-0.2h0.1l0.4-0.3l0.1-0.2
			l0.5-0.1v-0.1c0.3-0.2,0.6-0.3,0.9-0.4l0.1-0.1h0.3c0.3-0.1,0.6-0.3,0.7-0.5H70l0.1,0.2h0.1c0.2,0.2,0.3,0.6,0.5,1V17.8z"/>
		<path class="st0" d="M81.7,16.2l-0.1,0.6l-0.4,0.1c-0.1,0-0.4-0.1-0.8-0.2c-0.3-0.1-0.6-0.1-0.8-0.1c0,0-0.2,0-0.6,0.1l-0.1,0.1
			h-0.7l-0.4,0.3c-0.1,0.3-0.2,0.6-0.4,1c0,0.3,0,0.7-0.1,1.1l-0.2,0.2l0.1,0.6L77,20.1l-0.1,0.2l0.1,0.3l-0.3,0.3l-0.1,0.5l-0.1,0
			l-0.2,0.5V22l-0.5,0.3l0.1,0.4l-0.3,0.2l-0.1,0.4l-0.4,0.5V24l0.1,0.1h0.3v0.3l-0.1,0.1c0.1,0.2,0.2,0.5,0.2,0.8l0.7-0.1l0.3,0.2
			l0.2-0.2l0.3,0.1c0.2-0.1,0.6-0.2,1-0.4l0.4-0.4l0.3-0.7v-0.6c0.2-0.5,0.4-0.8,0.6-1L79,21.9l0.3-0.2v-0.1l0.4-0.2h0.4
			c0.3,0.1,0.4,0.1,0.4,0.1l0.3,0.7l-0.2,0.4v0.4c-0.3,0.4-0.5,0.6-0.8,0.7v0.1l-0.4,0.5c0,0.4-0.2,0.7-0.4,0.9l-0.4,0.3l-0.3,0.4
			c-0.5,0.3-0.9,0.4-1.2,0.4l-0.1,0.3h-0.2l-0.1-0.1c-0.2,0.1-0.4,0.1-0.5,0.2l-0.6,0.1v-0.1c-0.5-0.1-0.9-0.1-1.2-0.1
			c-0.1-0.1-0.3-0.3-0.6-0.5c-0.3-0.2-0.5-0.4-0.6-0.5v-0.6l-0.1-0.1v-0.5c0.3-0.7,0.4-1.1,0.4-1.3l0.2-0.2c0.1-0.2,0.2-0.5,0.1-0.9
			l0.4-0.6c0-0.1,0.1-0.5,0.2-1.2l0.3-0.3l-0.1-0.3c0.1-0.4,0.3-1.1,0.5-1.9h0.2c0.1-0.1,0.2-0.4,0.2-0.9l-0.1-0.1l-0.6,0.1
			c-0.2,0.2-0.4,0.3-0.6,0.4l-0.4-0.1c-0.4,0.2-0.9,0.3-1.3,0.2l0.1-0.5c0.3-0.2,0.6-0.4,0.9-0.6h0.2l0.1-0.2h0.4l0.5-0.2l0.3,0.1
			c0.4-0.1,0.8-0.2,1.1-0.3l0.2-0.5h0.2l0.5-0.6l0.1-0.4c0.2-0.1,0.4-0.2,0.5-0.3l0.1-0.4l0.4,0.1l0.1-0.1v-0.2l0.5-0.2v-0.2
			l0.2-0.4h0.2l0.1,0.1l0.2-0.1v0.8l-0.2,0.1v0.1l-0.1,0.1v0.4l-0.5,0.6c0,0.4-0.2,0.8-0.4,1.1c0.4,0,0.9,0.1,1.3,0.2
			c0.2-0.1,0.5-0.1,0.9-0.1c0.4,0,0.8,0,1.1,0.1L81.7,16.2z"/>
		<path class="st0" d="M88.2,23.3c0,0.2-0.1,0.5-0.2,0.8l-0.2,0.1l-0.1,0.2h-0.1l-0.2,0.3l-0.5,0.1c0,0.1-0.1,0.2-0.2,0.3
			c-0.1,0.1-0.2,0.3-0.2,0.3L86,25.8l-0.5,0.1L85.4,26l-0.5,0.1l-0.1,0.1L84.2,26c-0.5,0-1,0-1.4-0.3v-0.1c-0.1-0.1-0.2-0.2-0.2-0.3
			l-0.2-0.1c-0.2-0.3-0.3-0.7-0.3-1l0.2-0.4c0.2-0.1,0.5-0.6,0.9-1.3c0.3-0.5,0.5-1,0.8-1.5c0-0.3,0.2-0.9,0.6-1.8V19l0.1-0.1v-0.1
			h0.1l0.3-0.5l0-0.5l-0.1-0.1c-0.3,0-0.6,0.2-0.8,0.4V18c-0.4,0.1-0.8,0.2-0.9,0.3l-0.3,0.3c-0.2,0-0.4,0.1-0.7,0.2l-0.3,0
			l-0.2-0.2l-0.1-0.3l0.1-0.3c0.4-0.3,0.7-0.5,0.9-0.5c0.3-0.1,0.7-0.1,1-0.2c0.1-0.1,0.3-0.2,0.6-0.3c0.6-0.3,1.4-0.4,2.4-0.4
			c0,0,0.1,0,0.2,0c0.1,0,0.2,0,0.2,0c0.2,0.2,0.3,0.4,0.5,0.7h0.1c0.1,0.1,0.1,0.4,0.1,0.9c0,0,0,0.2-0.1,0.6
			c-0.1,0.1-0.3,0.3-0.5,0.6l-0.4,0.1l-0.1,0.4h-0.1l-0.2,0.2c0,0.3,0,0.7-0.1,1.1h-0.1c0,0.3-0.1,0.5-0.3,0.7l-0.4,0.3
			c-0.3,0.8-0.4,1.3-0.4,1.4H85c0,0.2-0.1,0.5-0.2,0.9l0,0.4c0.3,0,0.8-0.2,1.3-0.5s0.9-0.6,1-0.9l0.4-0.2l0.3,0L88.2,23.3z
			 M89.8,10.7l-0.2,0.2c-0.1,0.5-0.2,0.8-0.5,1v0.3l-0.3,0.3L88.7,13l-0.4,0.1c0,0.3-0.2,0.6-0.3,0.8c-0.2,0.1-0.5,0.3-0.7,0.6
			l-0.4,0.1l-0.3-0.7c0-0.2,0-0.6,0-1.1c0.3-0.5,0.4-1,0.2-1.5c0.2-0.4,0.3-0.7,0.6-1l0.6-0.2l0.1-0.1c0.2-0.1,0.4-0.1,0.6-0.1h0.5
			c0.2,0.1,0.4,0.3,0.6,0.5V10.7z"/>
		<path class="st0" d="M101.9,17.8l-0.1,0.1v0.6l-0.1,0.1l-0.3,0.6l0.1,0.2l-0.1,0.1c0,0.3-0.1,0.6-0.2,1l0.1,0.2
			c-0.2,0.3-0.5,0.7-0.8,1.3c-0.3,0.6-0.5,1.1-0.5,1.4l-0.2,0.4l0.1,0.5c0.5-0.3,0.8-0.7,1.1-1l0.4-0.2l0.5,0.1c0,0.2-0.2,0.6-0.6,1
			c-0.4,0.5-0.7,0.9-0.8,1.1l-0.2,0.1v0.1l-0.8,0.5c-0.4,0-0.8-0.2-1.2-0.6c-0.1-0.1-0.2-0.2-0.4-0.4l-0.2-0.4v-0.4l-0.1-0.2
			l0.1-0.3l0-0.4c0-0.5,0.2-1.1,0.7-1.9s0.7-1.6,0.6-2.2c0.2-0.4,0.4-0.9,0.5-1.4L99,17.8l-0.1,0.1V18l-0.7,0.5v0.1l-0.5,0.1v0.1
			c-0.4,0.1-0.6,0.3-0.7,0.5v0.3c-0.1,0.1-0.4,0.2-0.9,0.2v0.2h-0.2l-0.1,0.1h-0.1l-0.1,0.2v0.3l-0.4,0.1v0.2l-0.2,0.4l0,0.6
			c-0.1,0.2-0.3,0.5-0.4,1s-0.2,0.8-0.4,1c-0.2,0.1-0.4,0.4-0.6,0.7c-0.3,0.4-0.4,0.6-0.6,0.8c-0.4,0.1-1,0.2-1.8,0.4l-0.4-0.2
			l-0.6,0.2l-0.6-0.4l-0.3-0.6l0.1-0.6l0.4-0.1c0.3,0.2,0.6,0.3,0.8,0.5l0.6-0.1l0.4-0.3l0.1-0.7l0.1-0.1c0-0.4,0-0.7,0.1-1
			c0.2-0.3,0.4-0.8,0.7-1.4c0.1-0.5,0.4-1.3,0.7-2.3l-0.1-0.4l0.1-0.3l-0.2-0.2l-0.4,0.1V18l-0.5,0.1l-0.3,0.2
			c-0.5,0.1-0.9,0.2-1.2,0.3l-0.6-0.3L90,18l0.1-0.2c1.2,0,2.4-0.3,3.7-1.1H94l0.8-0.6l0.4-0.1l0.4,0.2c0.5,0.5,0.7,0.9,0.6,1.2
			L96,17.5v0.2l-0.2,0.4c0,0.1,0,0.2-0.1,0.5l0.1,0.3L96,19c0.4-0.1,0.9-0.4,1.3-0.7v-0.1h0.1l0.3-0.2h0.1l0.4-0.3l0.1-0.2l0.5-0.1
			v-0.1c0.3-0.2,0.6-0.3,0.9-0.4l0.1-0.1h0.3c0.3-0.1,0.6-0.3,0.7-0.5h0.4l0.1,0.2h0.1c0.2,0.2,0.3,0.6,0.5,1V17.8z"/>
		<path class="st0" d="M113.4,20.5l-0.1,0.9h-0.1v0.2l-0.2,0.3V22l-0.4,0.3l-0.4,0.6l-0.4,0.2l0.1,0.2c-0.1,0.3-0.3,0.5-0.4,0.6
			l-0.1,0.3c-0.2,0.1-0.4,0.3-0.7,0.7c-0.3,0.4-0.6,0.7-0.8,0.8c-0.3,0-0.5,0-0.8,0.1c-0.3-0.1-0.7-0.1-1.3-0.1
			c-0.3,0.1-0.5,0.1-0.6,0.2l-0.6-0.2c-0.4-0.3-0.7-0.5-1-0.6c-0.2-0.2-0.4-0.4-0.7-0.8c0-0.2-0.1-0.5-0.1-0.9
			c-0.2-0.2-0.4-0.5-0.6-1c-0.4-0.4-0.7-1-0.7-1.8l0.3-0.9c0.2-0.2,0.5-0.4,0.9-0.6c0.1-0.2,0.2-0.3,0.3-0.5l0.6-0.4l0.6-0.8
			l0.6-0.2h0.4l0.5-0.5l0.6-0.1l0.2,0.1c0.1,0.1,0.2,0.4,0.3,0.9h0.2l0.1-0.1l0.6-0.2l0.2-0.3h0.6l0.5,0.3l0.2,0.8l0.6,0.2h0.1
			c0.1,0.2,0.3,0.4,0.6,0.5C112.9,19.1,113.2,19.7,113.4,20.5z M112.4,20.2l-0.2-0.6v-0.1l-0.3-0.2l-0.1-0.3l-0.5-0.2L111,19
			c-0.1,0.2-0.2,0.4-0.4,0.6c0,0.1,0,0.2-0.1,0.5l-0.3,0.1v0.1l-0.4,0.3l-0.6-0.4l-0.1-0.1v-0.9l-0.3-0.6v-0.1l-0.2-0.1v-0.1
			l-0.2-0.1l-0.5,0.1l-0.2,0.3l-0.6,0.3h-0.1c-0.1,0.2-0.3,0.4-0.6,0.7v0.2l0.1,0.1v0.2l0.1,0.2l-0.3,0.7v0.5
			c0.1,0.1,0.1,0.2,0.2,0.4c0,0,0,0.1,0,0.2c0,0.1,0,0.1,0,0.2c0,0,0,0.1,0,0.2c0,0.1,0,0.1,0,0.2c0.1,0.2,0.2,0.4,0.2,0.8l0.5,0.4
			l0.2,0.5l0.6,0.5l0.8,0.1c0.2-0.2,0.6-0.4,1.1-0.6l0-0.3c0.2-0.1,0.5-0.3,0.9-0.6l0.1-0.3c0.2-0.2,0.4-0.4,0.6-0.7l0.5-0.2
			C112.4,21.4,112.5,20.8,112.4,20.2z"/>
		<path class="st0" d="M122.2,5.7c0,0,0,0.1-0.1,0.2s-0.1,0.2,0,0.3h-0.4c0,0.1,0,0.2,0,0.4h-0.2L121.3,7v0.4l-0.4,0.1v0.1h-0.5
			L120,8l-0.1,0.5l-0.3,0.3l-0.5,0.1l-0.3,0.3l-0.3-0.2V8.8l0.3-0.1l0.2-0.6l0.3-0.2l0.1-0.4l0.5-0.4c0-0.3-0.1-0.6-0.3-0.8l0.2-0.8
			l-0.2-0.1l0.6-0.5l0.1-0.5l0.3-0.2h0.5v0.2c0.1,0,0.3,0.1,0.4,0.1l0.2-0.1l0.4,0.4v0.6l0.1,0.1V5.7z"/>
		<path class="st0" d="M128.3,18.4l-0.1,0.3l-0.3,0.4l-0.6-0.1l-0.3-0.3l-0.2-0.5l0.1-0.7l-0.4-0.4c-0.2-0.1-0.6-0.2-1.2-0.2
			c-0.1,0-0.3,0-0.4,0.1c-0.2,0.2-0.4,0.3-0.5,0.4l-0.2,0.4c0.1,0.3,0.1,0.6,0.1,0.8l0.2,0.3c0.4,0.3,0.9,0.7,1.3,1.3
			c0.4,0.6,0.7,1.2,0.7,1.6l-0.2,0.5l-0.3,0.2l-0.1,0.4c-0.3,0.2-0.4,0.5-0.5,1l-0.4,0.2l-0.1,0.3c-0.1,0.1-0.3,0.2-0.5,0.4
			l-0.5-0.1c-0.3,0.1-0.7,0.4-1.1,0.8c-0.4,0.1-0.8,0.2-1,0.5c-0.5,0-0.9,0.1-1.1,0.1c0.1,0-0.1-0.1-0.7-0.2
			c-0.4-0.1-0.7-0.1-0.9-0.2c-0.2-0.1-0.5-0.2-0.8-0.4c-0.2-0.3-0.5-0.6-0.8-0.9c-0.1-0.2-0.1-0.5-0.1-1c0.1-0.5,0.2-0.7,0.2-0.8
			l0.3-0.3l0.1-0.5h0.1l0.1-0.5l0.5-0.4h0.4c0,0,0.2,0,0.6,0.1c0.5,0.2,0.9,0.7,1,1.4l-0.1,0.4l0.1,0.5l-0.1,0.5l-0.4,0.6h-0.4
			l-0.3-0.5l-0.1-0.5l-0.2-0.3h-0.3l-0.3,0.2c-0.1,0.4-0.2,0.8-0.1,1.1l0.6,0.5c0.7,0.2,1.2,0.3,1.6,0.3c0.1,0,0.2,0,0.4,0
			c0.2,0,0.3,0,0.4,0c0.2-0.1,0.4-0.3,0.7-0.5c0.3-0.3,0.5-0.5,0.7-0.5c0-0.1,0.1-0.3,0.3-0.6l0-0.4l0.3-0.3l-0.2-0.4l0.1-0.3
			L123,22l-0.5-0.1c-0.1-0.1-0.2-0.3-0.3-0.5c-0.1-0.2-0.2-0.4-0.3-0.5h-0.1l-0.1-0.1c-0.2-0.5-0.3-0.9-0.4-1.2c0-0.2,0-0.5,0.1-0.7
			c0.2-0.2,0.4-0.5,0.6-0.9l0-0.5l0.3-0.2l0.1-0.4h0.1l0.2-0.2c0.3-0.1,0.7-0.2,1.2-0.4c0.7-0.1,1.1-0.2,1.2-0.2
			c0.3,0,0.7,0,1.3,0.1c0.2,0.1,0.5,0.3,0.9,0.5c0.2,0.2,0.5,0.5,0.8,0.9L128.3,18.4z"/>
	</g>
	<g>
		<path class="st0" d="M3.1,28.4c40.1-0.5,85.1-0.5,125.2,0C88.2,28.9,43.2,28.9,3.1,28.4L3.1,28.4z"/>
	</g>
	<g>
		<path class="st0" d="M10.2,31.3l-0.1,0.3c0,0,0,0-0.1,0c0,0-0.1,0-0.1,0c0,0,0,0-0.1,0c-0.3,0.1-0.5,0.1-0.6,0.2
			c-0.1,0.1-0.2,0.1-0.2,0.2c-0.1,0.2-0.2,0.6-0.4,1.1c-0.2,0.5-0.3,1.1-0.5,1.6c-0.2,0.6-0.3,1-0.4,1.4c0,0-0.1,0.2-0.2,0.6
			s-0.2,0.6-0.2,0.7c0,0,0,0.1,0.1,0.1c0,0,0.3,0.1,0.7,0.2l0.2,0l-0.1,0.3c-0.2,0-0.4,0-0.6,0c-0.3,0-0.6,0-0.9,0
			c-0.4,0-0.9,0-1.5,0l0.1-0.3c0,0,0,0,0,0c0,0,0,0,0.1,0c0,0,0.1,0,0.1,0c0.3-0.1,0.5-0.1,0.6-0.1s0.2-0.1,0.2-0.2
			c0.1-0.1,0.2-0.6,0.4-1.3c0,0,0.1-0.2,0.2-0.6s0.2-0.6,0.2-0.7c0.1-0.2,0.1-0.5,0.2-0.8c0.1-0.3,0.1-0.5,0.2-0.6
			c0.2-0.6,0.3-1.1,0.3-1.3c0,0,0-0.1,0-0.1c0-0.1,0-0.1-0.1-0.1c0,0-0.2-0.1-0.4-0.1c-0.2-0.1-0.4-0.1-0.5-0.1l0.1-0.3
			c0.5,0,1,0.1,1.4,0.1C9.3,31.4,9.8,31.4,10.2,31.3z"/>
		<path class="st0" d="M15.9,32.5l0.3,0c-0.2,0.5-0.3,0.8-0.4,1.2c0.4,0,0.8,0,1.1,0l0,0.1c-0.1,0.1-0.2,0.2-0.2,0.4
			c-0.3,0-0.6,0-1.1,0c0,0.2-0.2,0.5-0.3,1c-0.2,0.5-0.3,1-0.4,1.4c-0.1,0.4-0.2,0.6-0.2,0.7c0,0.1,0,0.1,0.1,0.1s0.1,0,0.1,0
			c0.1,0,0.5-0.2,1-0.6l0.2,0.2c-0.3,0.3-0.6,0.5-0.9,0.8s-0.6,0.4-0.9,0.4c-0.2,0-0.4-0.1-0.4-0.4c0-0.1,0-0.2,0.1-0.3
			s0.1-0.3,0.1-0.4c0-0.1,0.1-0.3,0.1-0.4c0-0.1,0-0.2,0.1-0.3c0-0.1,0.1-0.2,0.1-0.4c0-0.2,0.1-0.4,0.2-0.8
			c0.1-0.4,0.2-0.7,0.3-0.9c0,0,0-0.1,0.1-0.2c-0.1,0-0.4,0-0.7,0l0.1-0.3c0.3-0.1,0.5-0.2,0.7-0.4C15.3,33.3,15.6,33,15.9,32.5z"/>
		<path class="st0" d="M25.3,36.9l0.2,0.2c-0.2,0.2-0.4,0.4-0.6,0.6s-0.4,0.3-0.6,0.4s-0.3,0.1-0.4,0.1c-0.2,0-0.2-0.1-0.2-0.3
			c0-0.1,0-0.2,0.1-0.5c0.1-0.2,0.1-0.3,0.1-0.4c0-0.1,0.1-0.2,0.1-0.3l0,0c-0.3,0.3-0.6,0.7-0.9,1s-0.6,0.5-0.9,0.5
			c-0.2,0-0.4-0.1-0.6-0.3c-0.2-0.2-0.2-0.5-0.2-0.9c0-0.4,0.1-0.8,0.3-1.2s0.4-0.8,0.7-1.1s0.7-0.6,1.1-0.8
			c0.4-0.2,0.8-0.3,1.3-0.3c0.1,0,0.2,0,0.5,0s0.4,0.1,0.5,0.1l0.1,0.1c-0.2,0.4-0.4,0.8-0.5,1.3s-0.3,1-0.4,1.4s-0.1,0.6-0.1,0.7
			c0,0.1,0,0.2,0.1,0.2c0.1,0,0.3-0.1,0.6-0.4C25.2,36.9,25.3,36.9,25.3,36.9z M24.6,34.1C24.3,34,24.1,34,24,34
			c-0.3,0-0.5,0.1-0.8,0.2c-0.2,0.2-0.5,0.4-0.6,0.7c-0.2,0.3-0.3,0.6-0.4,0.9s-0.2,0.7-0.2,1c0,0.3,0,0.4,0.1,0.6
			c0.1,0.1,0.2,0.2,0.3,0.2c0.1,0,0.3-0.1,0.6-0.3s0.5-0.5,0.7-0.8c0.1-0.2,0.3-0.4,0.4-0.7c0.1-0.3,0.2-0.7,0.4-1.3
			c0,0,0-0.1,0.1-0.2S24.6,34.1,24.6,34.1z"/>
		<path class="st0" d="M31.4,31.9l0.1-0.3l0.2-0.1c0.4-0.1,0.7-0.2,0.9-0.3c0.1-0.1,0.3-0.1,0.6-0.3l0.1,0.2c0,0.1-0.1,0.2-0.2,0.5
			c-0.1,0.4-0.3,0.8-0.4,1.2c0,0.1-0.1,0.2-0.1,0.5c-0.1,0.2-0.1,0.4-0.2,0.6c-0.1,0.2-0.1,0.4-0.2,0.7l-0.3,1.1
			c0,0.1-0.1,0.2-0.1,0.4c-0.1,0.2-0.1,0.5-0.2,0.8s-0.1,0.5-0.1,0.5c0,0.1,0,0.1,0.1,0.1c0.1,0,0.3-0.1,0.6-0.4
			c0.1,0,0.1-0.1,0.1-0.1l0.2,0.2c-0.3,0.3-0.6,0.6-1,0.8s-0.6,0.3-0.7,0.3c-0.1,0-0.1,0-0.2-0.1s-0.1-0.1-0.1-0.2
			c0-0.2,0.2-0.7,0.5-1.7c0-0.1,0.1-0.4,0.3-0.9c0.1-0.5,0.2-0.8,0.3-1.1s0.2-0.6,0.3-0.9c0.1-0.3,0.2-0.8,0.4-1.3
			c0-0.1,0-0.1,0-0.2c0-0.1-0.1-0.2-0.2-0.2C31.8,31.8,31.6,31.8,31.4,31.9z"/>
		<path class="st0" d="M39.4,36.9l0.2,0.2c-0.3,0.3-0.6,0.5-0.9,0.8c-0.3,0.2-0.6,0.3-0.8,0.3c-0.1,0-0.1,0-0.2-0.1
			s-0.1-0.1-0.1-0.2c0-0.1,0-0.3,0.1-0.6l0.4-1c0-0.1,0.1-0.4,0.3-0.9s0.3-0.8,0.3-0.9c0-0.1,0-0.1-0.1-0.1c0,0-0.1,0-0.2,0.1
			c-0.1,0.1-0.2,0.2-0.3,0.3l-0.1,0.1l-0.2-0.2c0.3-0.4,0.7-0.6,1-0.8s0.5-0.3,0.7-0.3c0.1,0,0.2,0.1,0.2,0.2c0,0.1,0,0.2-0.1,0.5
			c-0.1,0.2-0.2,0.6-0.3,0.9c-0.1,0.4-0.2,0.6-0.3,0.8c-0.1,0.2-0.2,0.5-0.3,0.8s-0.1,0.5-0.1,0.6c0,0.1,0,0.1,0.1,0.1
			c0.1,0,0.3-0.1,0.7-0.4C39.2,37,39.3,37,39.4,36.9C39.3,36.9,39.3,36.9,39.4,36.9z M39.8,31.5c0.1,0,0.2,0,0.3,0.1
			s0.1,0.2,0.1,0.3c0,0.2-0.1,0.3-0.2,0.5s-0.2,0.2-0.4,0.2c-0.1,0-0.2,0-0.3-0.1c-0.1-0.1-0.1-0.2-0.1-0.3c0-0.1,0-0.2,0.1-0.3
			c0-0.1,0.1-0.2,0.2-0.2C39.6,31.5,39.7,31.5,39.8,31.5z"/>
		<path class="st0" d="M48.7,36.9l0.2,0.2c-0.2,0.2-0.4,0.4-0.6,0.6c-0.2,0.2-0.4,0.3-0.6,0.4s-0.3,0.1-0.4,0.1
			c-0.2,0-0.2-0.1-0.2-0.3c0-0.1,0-0.2,0.1-0.5c0.1-0.2,0.1-0.3,0.1-0.4c0-0.1,0.1-0.2,0.1-0.3l0,0c-0.3,0.3-0.6,0.7-0.9,1
			s-0.6,0.5-0.9,0.5c-0.2,0-0.4-0.1-0.6-0.3c-0.2-0.2-0.2-0.5-0.2-0.9c0-0.4,0.1-0.8,0.3-1.2c0.2-0.4,0.4-0.8,0.7-1.1
			s0.7-0.6,1.1-0.8c0.4-0.2,0.8-0.3,1.3-0.3c0.1,0,0.2,0,0.5,0c0.3,0,0.4,0.1,0.5,0.1l0.1,0.1c-0.2,0.4-0.4,0.8-0.5,1.3
			s-0.3,1-0.4,1.4c-0.1,0.4-0.1,0.6-0.1,0.7c0,0.1,0,0.2,0.1,0.2c0.1,0,0.3-0.1,0.6-0.4C48.6,36.9,48.7,36.9,48.7,36.9z M48,34.1
			C47.7,34,47.5,34,47.4,34c-0.3,0-0.5,0.1-0.8,0.2c-0.2,0.2-0.5,0.4-0.6,0.7c-0.2,0.3-0.3,0.6-0.4,0.9s-0.2,0.7-0.2,1
			c0,0.3,0,0.4,0.1,0.6c0.1,0.1,0.2,0.2,0.3,0.2c0.1,0,0.3-0.1,0.6-0.3c0.3-0.2,0.5-0.5,0.7-0.8c0.1-0.2,0.3-0.4,0.4-0.7
			c0.1-0.3,0.2-0.7,0.4-1.3c0,0,0-0.1,0.1-0.2C48,34.2,48,34.1,48,34.1z"/>
		<path class="st0" d="M58.3,36.9l0.2,0.2c-0.3,0.3-0.6,0.6-0.9,0.8c-0.3,0.2-0.6,0.3-0.8,0.3c-0.1,0-0.2,0-0.2-0.1
			c0-0.1-0.1-0.1-0.1-0.2c0-0.1,0-0.3,0.1-0.5c0.1-0.2,0.2-0.6,0.4-1.2c0.2-0.5,0.3-0.9,0.4-1.2s0.1-0.5,0.1-0.6c0-0.1,0-0.1,0-0.1
			c0,0-0.1-0.1-0.1-0.1c-0.1,0-0.2,0-0.3,0.1c-0.1,0.1-0.3,0.2-0.5,0.4s-0.4,0.3-0.6,0.6c-0.2,0.3-0.4,0.5-0.6,0.7
			c-0.1,0.2-0.2,0.4-0.3,0.7c-0.1,0.2-0.2,0.6-0.3,1c-0.1,0.2-0.1,0.3-0.1,0.4c-0.3,0-0.6,0-0.8,0.1c0.1-0.2,0.2-0.5,0.3-1
			c0-0.1,0.1-0.2,0.1-0.3c0.1-0.2,0.1-0.3,0.1-0.3c0.3-0.8,0.4-1.3,0.5-1.5c0.1-0.2,0.1-0.3,0.1-0.4c0-0.1,0-0.1-0.1-0.1
			c-0.1,0-0.2,0.1-0.4,0.2c-0.2,0.1-0.3,0.2-0.3,0.3L54,34.7c0.2-0.2,0.4-0.4,0.5-0.5s0.3-0.3,0.5-0.4c0.2-0.1,0.3-0.2,0.4-0.2
			c0.1,0,0.2-0.1,0.2-0.1c0.1,0,0.1,0,0.1,0.1s0.1,0.1,0.1,0.2c0,0.2-0.1,0.5-0.2,0.9s-0.3,0.8-0.5,1.2l0,0c0.3-0.4,0.5-0.7,0.8-1
			c0.3-0.3,0.6-0.6,1-0.9s0.7-0.4,1-0.4c0.3,0,0.4,0.1,0.4,0.4c0,0.1,0,0.3-0.1,0.4c0,0-0.1,0.3-0.2,0.7c-0.1,0.4-0.2,0.7-0.3,0.9
			c0,0.2-0.1,0.4-0.2,0.6c-0.1,0.2-0.1,0.4-0.2,0.5c0,0.1,0,0.2,0,0.2c0,0.1,0,0.2,0.1,0.2C57.6,37.4,57.9,37.2,58.3,36.9z"/>
		<path class="st0" d="M75.6,36.6l0.2,0.3c-0.6,0.4-1.1,0.8-1.5,1s-0.9,0.3-1.4,0.3s-0.9-0.1-1.3-0.4S71.1,37.3,71,37
			c-0.1-0.4-0.2-0.7-0.2-1.1c0-0.6,0.1-1.2,0.3-1.7c0.2-0.6,0.6-1.1,1-1.5c0.4-0.4,0.9-0.8,1.4-1.1c0.5-0.3,1.1-0.4,1.7-0.4
			c0.6,0,1.3,0.2,1.9,0.5c-0.1,0.2-0.2,0.5-0.2,0.7c-0.1,0.3-0.2,0.6-0.3,1l-0.4,0c0-0.2,0-0.5,0-0.7c0-0.3,0-0.5-0.1-0.6
			c-0.1-0.1-0.2-0.2-0.4-0.3c-0.2-0.1-0.4-0.1-0.6-0.1c-0.4,0-0.8,0.1-1.2,0.4c-0.4,0.2-0.7,0.5-1,0.9c-0.3,0.4-0.5,0.8-0.7,1.3
			c-0.2,0.5-0.3,1-0.3,1.5c0,0.4,0.1,0.7,0.2,1c0.1,0.3,0.3,0.5,0.6,0.6s0.5,0.2,0.8,0.2c0.4,0,0.8-0.1,1.1-0.3
			C74.8,37.2,75.2,36.9,75.6,36.6z"/>
		<path class="st0" d="M81.3,34.9l-0.2-0.2c0.4-0.4,0.7-0.7,1-0.9s0.5-0.3,0.6-0.3c0.1,0,0.1,0,0.1,0.1c0,0,0.1,0.1,0.1,0.2
			c0,0.1-0.1,0.4-0.2,0.8c-0.1,0.4-0.2,0.7-0.3,1c-0.4,1-0.5,1.6-0.5,1.8c0,0.1,0.1,0.2,0.2,0.2c0.1,0,0.3-0.1,0.6-0.3
			c0.3-0.2,0.6-0.5,0.8-0.8c0.2-0.3,0.4-0.5,0.5-0.7c0.1-0.2,0.2-0.4,0.3-0.7c0.1-0.2,0.2-0.6,0.3-1l0.1-0.3c0.3,0,0.6,0,0.8-0.1
			c0,0-0.1,0.4-0.3,1.1c-0.2,0.7-0.4,1.1-0.4,1.3c-0.1,0.4-0.2,0.7-0.3,0.9c0,0.1-0.1,0.3-0.1,0.3c0,0.1,0,0.1,0.1,0.1
			c0.1,0,0.3-0.1,0.7-0.4c0,0,0,0,0.1,0c0,0,0,0,0.1,0l0.2,0.2c-0.3,0.3-0.6,0.6-0.8,0.7c-0.2,0.2-0.4,0.3-0.6,0.3
			c-0.1,0-0.2,0.1-0.3,0.1c-0.1,0-0.1,0-0.2-0.1s-0.1-0.1-0.1-0.2c0-0.1,0-0.3,0.1-0.4c0.1-0.2,0.1-0.4,0.2-0.6
			c0.1-0.2,0.2-0.6,0.4-0.9l0,0c-0.4,0.6-0.9,1.2-1.4,1.6c-0.5,0.5-1,0.7-1.4,0.7c-0.1,0-0.2,0-0.3-0.1c-0.1-0.1-0.1-0.2-0.1-0.3
			c0-0.1,0-0.3,0.1-0.6c0.2-0.6,0.4-1.2,0.5-1.7c0.2-0.5,0.3-0.8,0.3-0.9c0-0.1,0-0.1,0-0.2c0,0,0-0.1,0-0.1s0,0-0.1,0
			C81.9,34.5,81.7,34.6,81.3,34.9z"/>
		<path class="st0" d="M92.5,36.9l0.2,0.2c-0.3,0.3-0.6,0.5-0.9,0.8c-0.3,0.2-0.6,0.3-0.8,0.3c-0.1,0-0.1,0-0.2-0.1
			s-0.1-0.1-0.1-0.2c0-0.1,0-0.3,0.1-0.6l0.4-1c0-0.1,0.1-0.4,0.3-0.9s0.3-0.8,0.3-0.9c0-0.1,0-0.1-0.1-0.1c0,0-0.1,0-0.2,0.1
			c-0.1,0.1-0.2,0.2-0.3,0.3l-0.1,0.1l-0.2-0.2c0.3-0.4,0.7-0.6,1-0.8s0.5-0.3,0.7-0.3c0.1,0,0.2,0.1,0.2,0.2c0,0.1,0,0.2-0.1,0.5
			c-0.1,0.2-0.2,0.6-0.3,0.9c-0.1,0.4-0.2,0.6-0.3,0.8c-0.1,0.2-0.2,0.5-0.3,0.8s-0.1,0.5-0.1,0.6c0,0.1,0,0.1,0.1,0.1
			c0.1,0,0.3-0.1,0.7-0.4C92.4,37,92.4,37,92.5,36.9C92.5,36.9,92.5,36.9,92.5,36.9z M92.9,31.5c0.1,0,0.2,0,0.3,0.1
			s0.1,0.2,0.1,0.3c0,0.2-0.1,0.3-0.2,0.5s-0.2,0.2-0.4,0.2c-0.1,0-0.2,0-0.3-0.1c-0.1-0.1-0.1-0.2-0.1-0.3c0-0.1,0-0.2,0.1-0.3
			c0-0.1,0.1-0.2,0.2-0.2C92.7,31.5,92.8,31.5,92.9,31.5z"/>
		<path class="st0" d="M100.6,34.7h-0.2c0-0.2-0.1-0.4-0.2-0.5c-0.1-0.2-0.3-0.3-0.6-0.3c-0.2,0-0.4,0.1-0.5,0.2s-0.2,0.3-0.2,0.4
			c0,0.1,0,0.2,0.1,0.2c0,0.1,0.1,0.2,0.2,0.3s0.2,0.3,0.4,0.4c0.3,0.3,0.5,0.5,0.6,0.7c0.1,0.2,0.2,0.4,0.2,0.7
			c0,0.2-0.1,0.5-0.2,0.7c-0.2,0.2-0.4,0.4-0.6,0.5c-0.3,0.1-0.6,0.2-0.9,0.2c-0.3,0-0.5,0-0.7-0.1c-0.2-0.1-0.4-0.2-0.5-0.3
			c0.2-0.3,0.3-0.6,0.4-0.9l0.1,0c0,0.2,0.1,0.4,0.2,0.4c0.1,0.1,0.2,0.2,0.4,0.3c0.2,0.1,0.3,0.1,0.5,0.1c0.2,0,0.4-0.1,0.6-0.2
			s0.2-0.3,0.2-0.5c0-0.1-0.1-0.3-0.2-0.5c-0.1-0.2-0.3-0.4-0.6-0.7c-0.3-0.3-0.5-0.5-0.5-0.7s-0.1-0.3-0.1-0.5
			c0-0.2,0.1-0.4,0.2-0.6s0.3-0.3,0.6-0.5s0.5-0.2,0.8-0.2c0.4,0,0.7,0.1,1,0.3c0,0.1-0.1,0.2-0.1,0.4S100.7,34.6,100.6,34.7z"/>
		<path class="st0" d="M107.5,36.9l0.2,0.2c-0.3,0.3-0.6,0.5-0.9,0.8c-0.3,0.2-0.6,0.3-0.8,0.3c-0.1,0-0.1,0-0.2-0.1
			s-0.1-0.1-0.1-0.2c0-0.1,0-0.3,0.1-0.6l0.4-1c0-0.1,0.1-0.4,0.3-0.9s0.3-0.8,0.3-0.9c0-0.1,0-0.1-0.1-0.1c0,0-0.1,0-0.2,0.1
			c-0.1,0.1-0.2,0.2-0.3,0.3l-0.1,0.1l-0.2-0.2c0.3-0.4,0.7-0.6,1-0.8s0.5-0.3,0.7-0.3c0.1,0,0.2,0.1,0.2,0.2c0,0.1,0,0.2-0.1,0.5
			c-0.1,0.2-0.2,0.6-0.3,0.9c-0.1,0.4-0.2,0.6-0.3,0.8c-0.1,0.2-0.2,0.5-0.3,0.8s-0.1,0.5-0.1,0.6c0,0.1,0,0.1,0.1,0.1
			c0.1,0,0.3-0.1,0.7-0.4C107.4,37,107.4,37,107.5,36.9C107.4,36.9,107.5,36.9,107.5,36.9z M107.9,31.5c0.1,0,0.2,0,0.3,0.1
			s0.1,0.2,0.1,0.3c0,0.2-0.1,0.3-0.2,0.5s-0.2,0.2-0.4,0.2c-0.1,0-0.2,0-0.3-0.1c-0.1-0.1-0.1-0.2-0.1-0.3c0-0.1,0-0.2,0.1-0.3
			c0-0.1,0.1-0.2,0.2-0.2C107.7,31.5,107.8,31.5,107.9,31.5z"/>
		<path class="st0" d="M117.2,36.9l0.2,0.2c-0.3,0.3-0.6,0.6-0.9,0.8c-0.3,0.2-0.6,0.3-0.8,0.3c-0.1,0-0.2,0-0.2-0.1
			c0-0.1-0.1-0.1-0.1-0.2c0-0.1,0-0.3,0.1-0.5c0.1-0.2,0.2-0.6,0.4-1.2c0.2-0.5,0.3-0.9,0.4-1.2s0.1-0.5,0.1-0.6c0-0.1,0-0.1,0-0.1
			c0,0-0.1-0.1-0.1-0.1c-0.1,0-0.2,0-0.3,0.1c-0.1,0.1-0.3,0.2-0.5,0.4s-0.4,0.3-0.6,0.6c-0.2,0.3-0.4,0.5-0.6,0.7
			c-0.1,0.2-0.2,0.4-0.3,0.7c-0.1,0.2-0.2,0.6-0.3,1c-0.1,0.2-0.1,0.3-0.1,0.4c-0.3,0-0.6,0-0.8,0.1c0.1-0.2,0.2-0.5,0.3-1
			c0-0.1,0.1-0.2,0.1-0.3c0.1-0.2,0.1-0.3,0.1-0.3c0.3-0.8,0.4-1.3,0.5-1.5c0.1-0.2,0.1-0.3,0.1-0.4c0-0.1,0-0.1-0.1-0.1
			c-0.1,0-0.2,0.1-0.4,0.2c-0.2,0.1-0.3,0.2-0.3,0.3l-0.2-0.2c0.2-0.2,0.4-0.4,0.5-0.5s0.3-0.3,0.5-0.4c0.2-0.1,0.3-0.2,0.4-0.2
			c0.1,0,0.2-0.1,0.2-0.1c0.1,0,0.1,0,0.1,0.1s0.1,0.1,0.1,0.2c0,0.2-0.1,0.5-0.2,0.9s-0.3,0.8-0.5,1.2l0,0c0.3-0.4,0.5-0.7,0.8-1
			c0.3-0.3,0.6-0.6,1-0.9s0.7-0.4,1-0.4c0.3,0,0.4,0.1,0.4,0.4c0,0.1,0,0.3-0.1,0.4c0,0-0.1,0.3-0.2,0.7c-0.1,0.4-0.2,0.7-0.3,0.9
			c0,0.2-0.1,0.4-0.2,0.6c-0.1,0.2-0.1,0.4-0.2,0.5c0,0.1,0,0.2,0,0.2c0,0.1,0,0.2,0.1,0.2C116.6,37.4,116.8,37.2,117.2,36.9z"/>
		<path class="st0" d="M125,37l0.2,0.3c-0.8,0.7-1.5,1-2,1c-0.3,0-0.4-0.1-0.6-0.2c-0.1-0.1-0.2-0.3-0.3-0.5c0-0.2-0.1-0.4-0.1-0.6
			c0-0.4,0.1-0.9,0.3-1.3s0.4-0.8,0.7-1.1c0.3-0.3,0.6-0.6,1-0.7s0.7-0.3,1-0.3c0.2,0,0.3,0,0.4,0.1c0.1,0.1,0.2,0.2,0.2,0.4
			c0,0.3-0.1,0.6-0.4,0.9c-0.2,0.3-0.5,0.5-0.8,0.6c-0.3,0.1-0.5,0.2-0.8,0.3c-0.3,0.1-0.5,0.1-0.8,0.2c0,0,0,0.1,0,0.3
			c0,0.2,0,0.3,0,0.4c0,0.2,0,0.4,0.1,0.6c0.1,0.2,0.2,0.3,0.4,0.3C124,37.6,124.5,37.4,125,37z M123.3,35.7
			c0.8-0.1,1.3-0.4,1.5-0.7c0.3-0.3,0.4-0.6,0.4-0.8c0-0.2-0.1-0.3-0.3-0.3c-0.2,0-0.5,0.1-0.8,0.4
			C123.8,34.6,123.5,35.1,123.3,35.7z"/>
	</g>
</g>
</svg>
