<?xml version="1.0" encoding="utf-8"?>
<!-- Generator: Adobe Illustrator 28.3.0, SVG Export Plug-In . SVG Version: 6.00 Build 0)  -->
<svg version="1.1" id="Layer_1" xmlns="http://www.w3.org/2000/svg" xmlns:xlink="http://www.w3.org/1999/xlink" x="0px" y="0px"
	 viewBox="0 0 25 25" style="enable-background:new 0 0 25 25;" xml:space="preserve">
<style type="text/css">
	.st0{display:none;}
	.st1{display:inline;fill:#EAEAEC;}
	.st2{display:inline;fill:#D4D3D5;}
	.st3{display:inline;fill:#BCBAB9;}
	.st4{display:inline;fill:#94908E;}
	.st5{display:inline;fill:#686366;}
	.st6{display:inline;fill:#565559;}
	.st7{fill:#70993F;}
	.st8{fill:#E12926;}
	.st9{fill:#DEE8F2;}
	.st10{fill:#96BC54;}
	.st11{fill:#EAEAEC;}
	.st12{fill:#7EA940;}
	.st13{fill:#F2BF85;}
	.st14{fill:#4A92CE;}
	.st15{fill:#03508B;}
	.st16{fill:#0683AD;}
	.st17{fill:#0094C1;}
	.st18{fill:#0075A1;}
	.st19{fill:#005C85;}
	.st20{fill:#07446A;}
	.st21{fill:#608A3C;}
	.st22{fill:#78B653;}
	.st23{fill:#CDB763;}
	.st24{fill:#016D8A;}
	.st25{fill:#3FAEE3;}
	.st26{fill:#68775B;}
	.st27{fill:#F8D9A3;}
	.st28{fill:#E8AB78;}
	.st29{fill:#B79D68;}
	.st30{fill:#267FC3;}
	.st31{fill:#263976;}
	.st32{fill:#B47C53;}
	.st33{fill:#F8EBCC;}
	.st34{fill:#A9947B;}
	.st35{fill:url(#SVGID_1_);}
	.st36{fill:url(#SVGID_00000111895399498732711090000002630052932251192196_);}
	.st37{fill:#D09A69;}
	.st38{fill:#342E2F;}
	.st39{fill:#543D34;}
	.st40{fill:url(#SVGID_00000149354564387292717430000001240992222434498213_);}
	.st41{fill:#6E5244;}
	.st42{fill:#836654;}
	.st43{fill:#956043;}
	.st44{fill:#544746;}
	.st45{fill:url(#SVGID_00000166659955314469401070000009393953405814916247_);}
	.st46{fill:#714531;}
	.st47{fill:#B48D51;}
	.st48{fill:#E6A63B;}
	.st49{fill:#F6C349;}
	.st50{fill:#CDAA87;}
	.st51{fill:#F9FCF5;}
</style>
<g>
	<g id="Background_00000102544812006606308420000013285502685260721331_" class="st0">
		<path class="st1" d="M25.5-0.5c0,13,0,13,0,26c-13,0-13,0-26,0c0-13,0-13,0-26C12.5-0.5,12.5-0.5,25.5-0.5z"/>
		<path class="st2" d="M2.83,13.44c0.16,0.09,0.6,0.72,0.84,0.84c0.01,0.02,0.02,0.05,0.05,0.05c0,0.16-0.04,1-0.03,1.05
			c0,0.02,0.05,0.04,0.05,0.04c0.1,0.15,0.83,0.49,1.04,0.58c0,0,0.05-0.01,0.05,0.01c0.01,0.08-0.02,0.23,0,0.28
			c0.02,0.05,0.22,0.13,0.28,0.17c0.02,0.01,0.03,0.02,0.05,0.03c0.16,0.08,0.33,0.13,0.51,0.18c0.19,0.18,0.27,0.38,0.51,0.48
			c0.25,0.11,0.76,0.14,1.12,0.36c0.12,0.08,0.23,0.18,0.36,0.25c0.01,0.25,0.01,0.69,0.1,0.63c0.49,0.14,2.24,1.12,2.5,1.35
			c0.04,0.04,0.08,0.06,0.06,0.13c0.04,0.26-0.05,0.39,0.1,0.69c0.05,0.1,0.23,0.3,0.33,0.36c0.22,0.13,0.97,0.31,1.29,0.48
			c0.15,0.12,0.48,0.57,0.61,0.61c0.11,0.03,0.08-0.01,0.15-0.03c-0.01,0.13,0.29-0.08,0.33,0.05c-0.47,0.03,0.14,0.12,0.29,0.13
			c0.39,0.03,0.9-0.02,1.32,0c0.26,0.01,0.72,0.13,0.88,0.03c0.08,0.06,0.1,0.05,0.1,0.05c0.01,0-0.01,0.06,0.01,0.08
			c0.22,0.13,1.17,0.1,1.5,0.13c0.37,0.03,0.91,0.21,1.16,0.1c0.11,0.13,0.19,0.28,0.3,0.41c0.01,0.01-0.03,0.04-0.03,0.04
			c0.18,0.17,0.42,0.02,0.44,0.01c0.01,0,0.06,0.05,0.25,0c0.59-0.16,1.1-0.69,1.31-1.26c0.17-0.45,0.46-2.31,0.66-3.1
			c0.17-0.65,0.85-2.45,0.81-2.97c-0.02-0.32-0.3-0.69-0.56-0.88c0-0.08,0-0.17,0-0.25c0.57,0.13,0.87,0.68,1.14,1.13
			c0.18,1.16-0.37,2.25-0.63,3.35c-0.18,0.73-0.44,2.26-0.63,2.79c-0.2,0.54-0.66,1.09-1.18,1.36c-0.6,0.31-0.85,0.11-1.35,0.36
			c-1.7-0.12-3.4-0.3-5.08-0.61c-0.33-0.26-0.91-0.22-1.57-0.48c-0.33-0.13-1.71-0.91-1.97-1.13c-0.31-0.27-0.61-0.76-0.95-1.08
			c-0.01-0.01-0.12-0.04-0.13-0.05c-0.64-0.59-1.1-0.96-1.9-1.35c-0.24-0.28-0.67-0.5-1.02-0.71c-0.02-0.02-0.21-0.03-0.28-0.08
			c-0.25-0.15-0.51-0.4-0.56-0.43c-0.21-0.13-0.71-0.35-1.12-0.71c-0.38-0.34-0.39-0.58-0.75-0.83c-0.25-0.69-1.16-2.05-0.81-2.63
			C2.81,13.44,2.82,13.44,2.83,13.44z"/>
		<path class="st1" d="M2.8,13.44c-0.34,0.58,0.57,1.94,0.81,2.63c0.36,0.25,0.37,0.49,0.75,0.83c0.41,0.37,0.91,0.58,1.12,0.71
			c0.05,0.03,0.31,0.28,0.56,0.43c0.07,0.04,0.26,0.06,0.28,0.08c0.34,0.21,0.77,0.44,1.02,0.71c0.81,0.38,1.26,0.76,1.9,1.35
			c0.01,0.01,0.12,0.04,0.13,0.05c0.34,0.32,0.64,0.81,0.95,1.08c0.25,0.22,1.64,1,1.97,1.13c0.67,0.26,1.25,0.22,1.57,0.48
			c1.67,0.31,3.38,0.49,5.08,0.61c0.5-0.25,0.74-0.04,1.35-0.36c0.52-0.27,0.98-0.81,1.18-1.36c0.2-0.53,0.46-2.06,0.63-2.79
			c0.27-1.1,0.81-2.19,0.63-3.35c-0.27-0.45-0.58-1-1.14-1.13c0-0.01-0.02,0.03-0.03-0.13c0.37-0.04,0.75,0.23,0.99,0.5
			c1.04,1.13,0.41,2.78,0.13,4.09c0,0.02-0.01,0.3-0.03,0.38c0,0.01-0.1,0.12-0.1,0.13c-0.17,0.76-0.39,2.25-0.76,2.84
			c-0.37,0.58-1.48,1.26-2.15,1.41c-0.8,0.18-2.53,0.08-3.4-0.03c-0.46,0.08-0.76-0.05-1.17-0.1c-0.25-0.03-0.52-0.03-0.76-0.08
			c-0.3-0.06-1.7-0.47-1.98-0.58c-0.47-0.18-1.63-0.83-2.03-1.14c-0.57-0.43-1.05-1.07-1.4-1.4C8.36,19.92,7.52,19.3,6.85,19
			c-0.78-0.6-1.78-1.02-2.54-1.65c-0.67-0.55-1.31-1.46-1.61-2.27c-0.17-0.44-0.51-1.42,0.01-1.69C2.79,13.38,2.8,13.44,2.8,13.44z"
			/>
		<path class="st3" d="M18.7,22.94c0.02,0,0.03-0.03,0.05-0.03c0,0,0.02,0.05,0.04,0.05c0.12-0.03,1.09-0.72,1.23-0.86
			c0.3,0.18,0.3-0.24,0.3-0.27c0.37-0.99,0.32-1.46,0.46-2.08c0.1-0.45,0.19-0.92,0.3-1.37c0.16-0.62,0.92-2.53,0.81-2.95
			c-0.02-0.06-0.2-0.37-0.3-0.34c0-0.1,0-0.2,0-0.3c0.26,0.19,0.54,0.55,0.56,0.88c0.03,0.52-0.65,2.32-0.81,2.97
			c-0.2,0.79-0.49,2.64-0.66,3.1c-0.21,0.57-0.71,1.1-1.31,1.26c-0.19,0.05-0.24,0-0.25,0c-0.02,0-0.27,0.15-0.44-0.01
			C18.67,22.97,18.71,22.95,18.7,22.94z"/>
		<path class="st4" d="M15.09,21.61c0.06,0.04,0.21,0.24,0.28,0.3c-0.56,0.02-1.13,0.05-1.69,0.08c-0.12,0.01-0.29-0.09-0.55,0.03
			c-0.04-0.13-0.34,0.08-0.33-0.05c0.46-0.11,0.86-0.36,0.9-0.38C14.21,21.41,14.63,21.39,15.09,21.61z"/>
		<path class="st3" d="M17.76,22.12c-0.2,0.1-0.56-0.07-0.5,0.1c0.27-0.04,0.55,0.12,0.75-0.03c0.1,0.05,0.15,0.08,0.23,0.15
			c0.04,0.03,0.11,0.13,0.15,0.18c-0.24,0.11-0.78-0.07-1.16-0.1c-0.33-0.03-1.28,0-1.5-0.13c-0.03-0.01-0.01-0.07-0.01-0.08
			C16.39,22.16,17.11,21.98,17.76,22.12z"/>
		<path class="st3" d="M15.37,21.92c0.07,0.06,0.14,0.12,0.2,0.18c0,0,0.01,0.01,0.03,0.03c0,0,0.02,0.05,0.03,0.05
			c-0.15,0.1-0.62-0.02-0.88-0.03c-0.42-0.02-0.94,0.03-1.32,0c-0.15-0.01-0.76-0.1-0.29-0.13C13.39,21.9,13.56,22,13.68,22
			C14.24,21.97,14.81,21.94,15.37,21.92z"/>
		<path class="st4" d="M20.02,22.1c0.04-0.04,0.07-0.09,0.1-0.13c0.01-0.01,0.08-0.03,0.08-0.04c0-0.02-0.05-0.01-0.05-0.03
			c0.01-0.35,0.02-1.24,0-1.51c0.14-0.45,0.17-1,0.28-1.49c0.04-0.19,0.13-0.37,0.18-0.56c0.01-0.05-0.03-0.07-0.03-0.1
			c0.06-0.23,0.28-0.54,0.18-0.77c0.01-0.04,0.02-0.02,0.03-0.03c0-0.01,0.02,0.04,0.08-0.09c0.05-0.12,0.02-0.21,0.03-0.22
			c0-0.01,0-0.02,0-0.03c0.08-0.13,0.08-0.13,0.15-0.27c-0.03-0.03-0.03-0.03-0.05-0.06c0.07-0.19,0.15-0.23,0.15-0.24
			c0.02-0.05,0.08-0.26,0.15-0.43c0.02-0.05,0.25-0.33,0.3-0.8c0.01-0.09,0-0.15,0-0.23c0.11-0.03,0.29,0.28,0.3,0.34
			c0.1,0.42-0.65,2.33-0.81,2.95c-0.12,0.45-0.2,0.92-0.3,1.37c-0.14,0.63-0.09,1.09-0.46,2.08C20.31,21.86,20.32,22.27,20.02,22.1z
			"/>
		<path class="st5" d="M20.75,17.48c0.11,0.24-0.12,0.54-0.18,0.77c-0.01,0.03,0.04,0.05,0.03,0.1c-0.05,0.18-0.14,0.37-0.18,0.56
			c-0.11,0.49-0.14,1.03-0.28,1.49c-0.01-0.12-0.02-0.25-0.1-0.33c0.04-0.26,0-0.38-0.03-0.63c0.1-0.42,0.19-0.83,0.3-1.24
			c0.06-0.02,0.05-0.05,0.05-0.08c0.18,0.18,0.22-0.17,0.36-0.52c0,0-0.05-0.04-0.03-0.1C20.71,17.47,20.75,17.48,20.75,17.48z"/>
		<path class="st6" d="M20.98,16.79c-0.04,0.11-0.07,0.22-0.1,0.33c0,0.01,0,0.02,0,0.03c-0.1,0.06-0.08,0.2-0.1,0.3
			c0,0-0.01-0.01-0.03,0.03c0,0-0.04-0.01-0.05,0.01c-0.02,0.06,0.03,0.1,0.03,0.1c-0.13,0.35-0.18,0.7-0.36,0.52
			c0.03-0.15,0.15-0.58,0.2-0.72c0.04-0.13,0.19-0.32,0.15-0.44c0.23-0.57,0.49-1.13,0.86-1.62c-0.05,0.47-0.28,0.75-0.3,0.8
			c-0.08,0.18-0.13,0.38-0.15,0.43C21.13,16.56,21.05,16.6,20.98,16.79z"/>
		<path class="st4" d="M20.08,22.2c0.24-0.01-0.41,0.49-0.32,0.24C19.92,22.32,19.92,22.32,20.08,22.2z"/>
		<path class="st4" d="M17.76,22.12c0.09,0.02,0.17,0.04,0.25,0.08c-0.19,0.15-0.48-0.01-0.75,0.03
			C17.19,22.05,17.56,22.23,17.76,22.12z"/>
		<path class="st5" d="M20.88,17.12c0.03-0.11,0.06-0.22,0.1-0.33c0.03,0.03,0.03,0.03,0.05,0.06
			C20.95,16.99,20.95,16.99,20.88,17.12z"/>
		<path class="st5" d="M20.78,17.45c0.02-0.1,0-0.24,0.1-0.3c0,0.01,0.03,0.1-0.03,0.22C20.79,17.49,20.78,17.45,20.78,17.45z"/>
	</g>
	<g>
		<path class="st7" d="M9.48,2.22C9.5,2.45,9.07,3.58,9.07,3.65c0,0.01,0.1,0.09,0.13,0.24C8.89,4.52,9.85,4.24,9.72,4.45
			C9.12,4.5,9.91,4.43,10.05,4.5c0.04,0.02,0.39,0.5,0.5,0.58c-0.09,0.18-0.09,0.18-0.18,0.36c-0.08,0-0.28,0.01-0.32,0
			c-0.11-0.03-0.87-0.77-0.98-0.9C8.8,4.21,8.68,4.03,8.59,3.61c0.08-0.12,0.14-0.25,0.2-0.38c0.03-0.05,0.05-0.05,0.05-0.05
			c0,0.06,0.23,0.03,0.25-0.01C9.13,3.1,9.23,2.52,9.05,2.72c0.05-0.18,0.09-0.49,0.1-0.69C9.35,2.17,9.12,2.32,9.48,2.22z"/>
		<path class="st8" d="M8.56,3.23c0,0.02-0.01,0.21,0.03,0.38c0.09,0.42,0.21,0.6,0.48,0.93c0.11,0.13,0.87,0.87,0.98,0.9
			c0.04,0.01,0.23,0,0.32,0c0.13,0,0.18,0.17,0.2-0.36c0-0.01,0.05-0.08,0.03-0.18c0.19-0.03,0.42,0.04,0.58,0.03
			c0.01,0.09-0.32,0.41-0.38,0.46c-0.03,0.02-0.29,0.2-0.3,0.2C9.77,5.88,8.72,4.6,8.44,4.03C8.31,3.78,8.4,3.51,8.03,3.51
			C7.98,3.43,7.8,3.22,7.78,3.13C7.75,3.02,8.06,2.76,8.16,2.65C8.32,2.6,8.53,3.08,8.56,3.23z"/>
		<path class="st9" d="M16.84,8.26c0.01-0.07-0.01-0.12,0.03-0.19c0.08-0.16,1.86-1.52,2.16-1.74c0.08-0.06,0.16-0.11,0.23-0.18
			c0,0.02,0.11,0.08,0.03,0.29C19.22,6.59,17.19,8.19,16.84,8.26z"/>
		<path class="st7" d="M9.66,2.45C9.61,2.72,9.57,3.24,9.55,3.3C9.55,3.32,9.42,3.56,9.38,3.66c0,0.01-0.02,0.01-0.08,0.15
			C9.26,3.81,9.21,3.86,9.2,3.89C9.17,3.74,9.07,3.67,9.07,3.65c0-0.07,0.43-1.2,0.41-1.43c0.02-0.01,0.13-0.08,0.23-0.1
			C9.73,2.23,9.68,2.33,9.66,2.45z"/>
		<path class="st7" d="M5.59,9.28C5.42,9.34,5.38,9.36,5.19,9.4C4.75,9.49,4.31,9.51,3.87,9.5C3.85,9.4,3.78,9.35,3.85,9.3
			c0.02-0.01,0.39-0.04,0.47-0.05c0.14-0.01,0.28-0.01,0.43-0.03c0.18-0.02,0.35-0.06,0.53-0.08C5.48,9.13,5.55,9.03,5.59,9.28z"/>
		<path class="st10" d="M3.92,9.68c0-0.01-0.03,0-0.05-0.18c0.44,0.01,0.89-0.02,1.32-0.1C5.39,9.6,4.32,9.63,3.92,9.68z"/>
		<path class="st11" d="M10.49,5.59c0,0.02,0.01,0.05,0,0.08c-0.03,0.13-0.15,0.35-0.01,0.43c0.53,0.15,0.47-0.16,0.72,0.2
			c0.16,0.22,0.38,0.86,0.55,1.14c0.11-0.1,0.19-0.24,0.34-0.28c-0.14,0.18-0.16,0.23-0.03,0.41c0.09,0.11,0.14,0.09,0.15,0.1
			c0.14,0.08,0.2,0.17,0.39,0.05c0.54-0.69-0.33-0.73-0.38-0.76c-0.08-0.04,0.01-0.2-0.27-0.38c0.44,0.19,0.44,0.19,0.89,0.38
			c0.06,0.11,0.16,0.14,0.18,0.3c0.05,0.44-0.41,0.74-0.81,0.63c-0.11-0.03-0.34-0.28-0.33-0.19c0.31,0.5,1.36,3.56,1.5,3.72
			c0.05,0.06,0.27,0.02,0.37,0c0.47-0.07,2.17-0.43,2.77-0.56c0.1-0.02,0.16-0.13,0.22-0.03c-0.01,0.07,0,0.14,0,0.22
			c-2.2,0.52-4.45,0.82-6.66,1.28c-0.91,0.19-3.8,0.85-4.57,1.07c-0.13,0.04-0.97,0.3-1,0.36c0-0.01-0.07,0.01-0.08-0.01
			c-0.03-0.08,0.11-0.05-0.03-0.19c0.01,0-0.06-0.02,0.13-0.08c0.01,0,0.03,0.05,0.11,0.03c0.2-0.06,0.79-0.25,0.83-0.38
			c0.01,0,0.02,0.02,0.1,0.03c0.18,0,1.24-0.32,1.52-0.38c0.01,0,0.02,0,0.03,0c0.61-0.14,1.22-0.3,1.83-0.43c0.01,0,0.02,0,0.03,0
			c0.59-0.13,1.19-0.23,1.78-0.36c0.33-0.07,0.66-0.13,0.99-0.2c0.03-0.01,0.07-0.02,0.1-0.03c0.04-0.01,0.07-0.02,0.1-0.03
			c0.24-0.05,0.5-0.07,0.74-0.13c0.13-0.03,0.4-0.06,0.41-0.14c-0.67-1.75-1.36-3.49-2.16-5.18c-0.72-0.19-0.61-0.35-0.65-0.37
			c-0.11-0.07-0.42-0.19-0.63-0.36c-0.3-0.22-0.5-0.5-0.72-0.61c-0.01-0.05-0.07-0.07-0.1-0.1C8.63,4.64,8.46,4.32,8.31,4.07
			c0-0.01-0.03-0.07-0.08-0.15C8.22,3.9,8.16,3.65,8.13,3.6c-0.02-0.04-0.07-0.03-0.1-0.09c0.37,0,0.28,0.27,0.41,0.52
			C8.72,4.6,9.77,5.88,10.49,5.59z"/>
		<path class="st12" d="M12.68,11.61c-0.31-0.99-0.57-1.99-0.99-2.93c-1.1,0.41-1.53-0.44-1.31,0.88c1.25-0.23,0.89-0.12-0.05,0.15
			c-0.22,0.05-0.13-0.66-0.17-0.99c0.22-0.03,1.37,0.05,1.42-0.14c-0.23-0.65-0.23-0.65-0.46-1.29c-0.04-0.06-0.11-0.03-0.17-0.01
			c-0.2,0.06-1.08,0.56-1.22,0.53C9.71,7.8,9.19,7.49,9.17,7.46C9.12,7.37,9.1,6.79,9.03,6.74c-0.04-0.03-0.67,0-0.77,0.03
			C8.2,6.74,8.03,6.75,7.98,6.74C7.99,6.7,7.99,6.7,7.99,6.66c1.83-0.18,1.13,0.17,1.28,0.67c0.01,0.04,0.38,0.29,0.42,0.29
			c0.16,0.03,1.16-0.36,1.38-0.47c-0.06-0.12-0.18-0.53-0.2-0.56c-0.03-0.04-0.65-0.35-0.83-0.47c-0.28-0.2-1.29-0.92-1.13-1.17
			c0.22,0.1,0.43,0.38,0.72,0.61c0.22,0.16,0.52,0.28,0.63,0.36c0.03,0.02-0.08,0.18,0.65,0.37c0.8,1.69,1.49,3.43,2.16,5.18
			C13.08,11.55,12.81,11.58,12.68,11.61z"/>
		<g>
			<path class="st10" d="M10.16,8.72c0.04,0.33-0.06,1.04,0.17,0.99c0.95-0.27,1.3-0.38,0.05-0.15c-0.22-1.32,0.21-0.47,1.31-0.88
				c0.43,0.94,0.68,1.95,0.99,2.93c-0.24,0.05-0.49,0.08-0.74,0.13c-0.23-0.26-0.74-1.06-0.91-0.99c-0.1-0.09-0.49-0.8-0.55-0.81
				c-0.04-0.01-0.6,0.15-0.7,0.18c-0.01,0-0.02,0-0.03,0c-0.15,0.03-0.29,0.05-0.43,0.1c-0.14,0.01-0.22,0.04-0.3,0.05
				c-0.2,0.03-0.42,0.05-0.62,0.05c-0.06,0.03,0.05,0.15,0.06,0.18c0.07,0.18,0.19,0.41,0.23,0.53c0,0.01,0,0.03,0,0.05
				c-0.32,0.12-0.63,0.33-0.91,0.46c-0.69,0.3-0.49,0.18-1.04-0.1c-0.05-0.03-0.07-0.02-0.08-0.03c-0.17-0.09-0.35-0.21-0.37-0.2
				c-0.04,0.01-0.06,0.12-0.06,0.13c-0.09,0.13-0.1,0.18-0.17,0.18c-0.38-0.25-0.8-0.26-0.84-0.28c-0.02-0.01-0.2-0.29-0.28-0.28
				c-0.04,0-0.44,0.39-0.47,0.41c0,0-0.01,0-0.05,0.03c-0.31,0.21-0.66,0.38-0.99,0.56c-0.1-0.17-0.45-0.64-0.48-0.71
				C2.92,11.16,2.86,11.05,2.92,11c0.55-0.25,0.94-0.25,1-0.96c0.11,0.02,0.66,0.34,0.7,0.33c0.02,0,0.12-0.18,0.28-0.25
				c0.11-0.05,1.53-0.39,2.31-0.74C8.37,8.86,10.02,7.4,10.16,8.72z"/>
			<path class="st13" d="M11.94,11.74c-0.04,0.01-0.07,0.02-0.1,0.03c-0.2-0.25-0.45-0.46-0.66-0.69c-0.08-0.09-0.14-0.21-0.23-0.3
				c0.04-0.01,0.04-0.01,0.08-0.03C11.21,10.67,11.71,11.48,11.94,11.74z"/>
			<path class="st14" d="M4.88,10.27c-0.39,0.31,0.26,0.53,0.2,0.08c0.32,0.26-0.16,0.59-0.41,0.34
				C4.64,10.47,4.61,10.28,4.88,10.27z"/>
			<path class="st15" d="M5.09,10.34c0.05,0.45-0.59,0.24-0.2-0.08C5.07,10.26,5.02,10.29,5.09,10.34z"/>
			<path class="st13" d="M6.66,11.41c0.01,0.06-0.05,0.07-0.08,0.1c-0.18-0.09-0.18-0.09-0.36-0.18c0-0.01,0.02-0.12,0.06-0.13
				C6.31,11.2,6.49,11.32,6.66,11.41z"/>
		</g>
		<g>
			<g>
				<path class="st16" d="M4.76,9.22C4.61,9.24,4.47,9.24,4.32,9.25c-0.19-0.66,0.1-0.7,0.48-1.12c0.09,0.02,0.53-0.14,0.62-0.2
					C5.55,7.85,5.6,7.71,5.78,7.57C6.02,7.4,6.56,7.21,6.63,7C6.71,6.79,6.5,5.07,6.58,4.59C6.54,4.34,6.27,4.23,6.25,4.17
					c0.06,0.01,0.18-0.09,0.25-0.15c0.9-0.04,0.41,1.05,0.43,1.69c0.02,0.59,0.18,0.65,0.2,0.69c0,0.01-0.03,0.1,0,0.15
					c0.29,0.53,0.95,0.34,0.91,0.79c-0.59,0.45-1.64,0.3-1.89,0.42C5.8,7.93,6.09,8.48,6.05,8.58C5.92,8.91,4.71,9.14,4.36,9.1
					C4.28,9.26,4.51,9.17,4.76,9.22z"/>
				<path class="st17" d="M7.78,3.13c0.03,0.09,0.21,0.3,0.25,0.38c0.04,0.06,0.08,0.05,0.1,0.09c0.03,0.05,0.09,0.3,0.1,0.32
					C7.02,3.85,7.36,4.18,7.27,5.07C7.21,5.73,6.93,6.31,7.61,6.76c0.14,0.09,1.08,0.32,0.3,0.81c-0.71,0.45-1.86,0.04-1.84,0.5
					C6.09,8.3,6.82,8.51,5.29,9.15C5.11,9.17,4.94,9.21,4.76,9.22C4.51,9.17,4.28,9.26,4.36,9.1c0.35,0.04,1.55-0.19,1.69-0.52
					c0.04-0.1-0.25-0.65,0.11-0.83c0.25-0.12,1.3,0.04,1.89-0.42c0.04-0.45-0.62-0.26-0.91-0.79c-0.03-0.05,0-0.15,0-0.15
					c-0.02-0.04-0.19-0.1-0.2-0.69C6.92,5.07,7.41,3.97,6.51,4.02c0.11-0.08,0.21-0.18,0.32-0.25c0.16-0.11,0.52-0.24,0.5-0.36
					C7.53,3.3,7.66,3.15,7.78,3.13z"/>
				<path class="st18" d="M6.25,4.17c0.02,0.06,0.28,0.17,0.33,0.42C6.5,5.07,6.71,6.79,6.63,7C6.56,7.21,6.02,7.4,5.78,7.57
					C5.6,7.71,5.55,7.85,5.43,7.93C5.34,7.99,4.9,8.15,4.81,8.13c0.18-0.2,0.52-0.49,0.63-0.71c0.15-0.14,0.61-0.39,0.66-0.6
					C6.16,6.56,6.07,5.41,6.1,5c0-0.02,0.11-0.14,0-0.22c0.08-0.27,0.05-0.53,0.08-0.6c0.01-0.03,0.07-0.06,0.08-0.06
					C6.26,4.14,6.25,4.16,6.25,4.17z"/>
				<path class="st19" d="M5.44,7.42c0.33-0.62-0.03-1.02,0.1-1.54c0.04-0.15,0.48-0.85,0.56-1.1c0.11,0.08,0,0.2,0,0.22
					c-0.03,0.41,0.06,1.57,0,1.83C6.06,7.03,5.59,7.28,5.44,7.42z"/>
				<path class="st17" d="M9.15,2.04c-0.01,0.2-0.05,0.5-0.1,0.69C9.04,2.76,8.88,3.1,8.84,3.18c0,0-0.03,0-0.05,0.05
					c-0.11,0-0.11,0-0.23,0C8.53,3.08,8.32,2.6,8.16,2.65c0.2-0.23,0.41-0.44,0.61-0.67C8.46,1.8,9.06,1.99,9.15,2.04z"/>
				<path class="st17" d="M6.51,4.02C6.43,4.08,6.32,4.18,6.25,4.17c0-0.01,0-0.03,0-0.05C6.29,4.06,6.67,3.63,6.7,3.61
					C6.73,3.6,6.78,3.7,7.32,3.41c0.02,0.11-0.34,0.25-0.5,0.36C6.71,3.84,6.61,3.94,6.51,4.02z"/>
			</g>
			<g>
				<path class="st16" d="M13.64,3.16c0,0,0.02,0.05,0.03,0.05c-0.06,0-0.07,0.24-0.1,0.32c-0.14,0.41-0.52,0.86-0.58,1.27
					c-0.02,0.11-0.02,0.65,0,0.74c0.13,0.57,2.53,0.84,2.98,1.26c0.34,0.32,0.22,0.89,0.09,1.29c0,0-0.06,0.01-0.08-0.04
					c-0.05-0.15,0.08-1.01-0.44-1.28c-0.15-0.08-1.08-0.17-1.73-0.36c-0.11-0.03-0.97-0.33-1.02-0.36c-0.56-0.3-0.6-1.18-0.32-1.69
					c0.15-0.26,0.72-0.76,0.41-0.72c0.01-0.02,0.02-0.03,0.03-0.05c0.27,0.01,0.22-0.26,0.06-0.41c-1.52,0.2-1.07,1.85-2.23,1.57
					c-0.74-1.01-0.69-0.42-1.51-0.79c0.01-0.06,0.05-0.1,0.08-0.15c0.06-0.14,0.07-0.14,0.08-0.15c0.45,0.26,0.57-1.41,0.53-1.51
					c-0.3-0.17-0.09,0.2-0.25,0.29c0.02-0.11,0.07-0.21,0.05-0.33c0,0,0.02-0.05,0.04-0.05c0.25-0.04,1.18,0.5,1.52,0.56
					c0.45,0.08,1.51-0.04,1.78,0.03C13.12,2.67,13.55,3.06,13.64,3.16z"/>
				<path class="st19" d="M16.64,5.54c-0.02,0.11,0.23,0.02,0.34,0.05c0.05,0.01,0.24,0.16,0.43,0.2c0.16,0.04,0.52,0.02,0.66,0.05
					c0.15,0.03,1.02,0.21,1.05,0.29c0.04,0.09-0.17,0.1-0.1,0.19c-0.3,0.22-2.08,1.58-2.16,1.74c-0.04,0.07-0.02,0.12-0.03,0.19
					c-0.01,0.09-0.01,0.22,0,0.3c-0.19-0.05-0.33-0.17-0.48-0.28c0.02-0.48,0.4-0.9,0.33-1.38c0-0.02-0.12-0.34-0.13-0.36
					c-0.07-0.12-0.63-0.3-0.8-0.34c-1.81-0.5-3.24-0.13-1.74-2.63c-0.1-0.14-0.24-0.24-0.36-0.37c0,0-0.02-0.05-0.03-0.05
					c0.82,0.63,0.54,0.71,0.63,1.13C14.49,5.26,15.81,5.51,16.64,5.54z"/>
				<path class="st17" d="M16.05,8.08c0.08,0.11,0.2,0.13,0.3,0.2c0.16,0.1,0.29,0.23,0.48,0.28c0.01,0.07,0.01,0.11,0.03,0.18
					c-0.15-0.09-0.98-0.62-1.02-0.7c-0.1-0.23,0.14-1.17-0.67-1.28c-0.16-0.02-0.42,0.02-0.58,0c-0.61-0.08-0.65-0.19-0.69-0.2
					c-0.27-0.08-1.23-0.34-1.4-0.46c-0.35-0.24-0.49-1.07-0.37-1.46c0.08-0.23,0.61-0.77,0.74-1c0.32-0.04-0.26,0.46-0.41,0.72
					c-0.28,0.51-0.24,1.39,0.32,1.69c0.05,0.03,0.9,0.32,1.02,0.36c0.64,0.18,1.58,0.28,1.73,0.36c0.52,0.27,0.39,1.13,0.44,1.28
					C15.99,8.09,16.05,8.08,16.05,8.08z"/>
				<path class="st20" d="M19.25,6.15c-0.07,0.06-0.15,0.12-0.23,0.18c-0.07-0.09,0.14-0.1,0.1-0.19c-0.03-0.09-0.91-0.26-1.05-0.29
					c-0.14-0.03-0.5-0.02-0.66-0.05c-0.2-0.04-0.39-0.19-0.43-0.2c-0.11-0.03-0.36,0.05-0.34-0.05c1.27,0.05,1.77-0.35,1.87-0.33
					c0.04,0.01,0.65,0.51,0.67,0.55C19.34,6,19.25,6.13,19.25,6.15z"/>
				<path class="st18" d="M13.67,3.21c0.12,0.12,0.26,0.22,0.36,0.37c-1.5,2.5-0.07,2.13,1.74,2.63c0.17,0.05,0.73,0.23,0.8,0.34
					c0.01,0.02,0.12,0.34,0.13,0.36c0.07,0.49-0.31,0.9-0.33,1.38c-0.1-0.07-0.22-0.1-0.3-0.2c0.13-0.4,0.26-0.98-0.09-1.29
					c-0.45-0.42-2.85-0.69-2.98-1.26c-0.02-0.08-0.02-0.63,0-0.74c0.07-0.41,0.44-0.86,0.58-1.27C13.59,3.45,13.61,3.21,13.67,3.21z
					"/>
				<path class="st17" d="M12.91,3.59c0.2-0.51-0.63-0.1-0.96,0.39c-0.17,0.25-0.3,0.9-0.76,0.95c-0.17,0.02-0.39-0.05-0.58-0.03
					c-0.01-0.04-0.41-0.59-0.44-0.61C9.82,4.14,9.09,4.53,9.22,3.97c0.82,0.36,0.77-0.22,1.51,0.79c1.16,0.28,0.71-1.38,2.23-1.57
					C13.13,3.33,13.18,3.6,12.91,3.59z"/>
				<path class="st17" d="M9.38,3.66c0.04-0.1,0.17-0.35,0.18-0.37c0.02-0.06,0.05-0.57,0.1-0.85c0.16-0.09-0.04-0.47,0.25-0.29
					C9.95,2.26,9.82,3.92,9.38,3.66z"/>
			</g>
		</g>
		<path class="st21" d="M9.3,3.82c-0.02,0.05-0.06,0.1-0.08,0.15c-0.14,0.57,0.6,0.17,0.93,0.33c0.03,0.02,0.44,0.57,0.44,0.61
			c0.02,0.1-0.03,0.17-0.03,0.18c-0.01,0-0.01,0-0.03,0c-0.1-0.08-0.45-0.56-0.5-0.58c-0.14-0.07-0.93,0-0.33-0.05
			C9.85,4.24,8.89,4.52,9.2,3.89C9.21,3.86,9.26,3.81,9.3,3.82z"/>
		<path class="st7" d="M8.23,3.92C8.28,4,8.31,4.06,8.31,4.07c-0.07-0.03-0.17,0-0.28,0C7.97,4.07,7.8,4,7.73,4.11
			C7.7,4.15,7.65,4.82,7.63,4.97c1.42,0.53,1.49,0.79,0.01,0.09C7.48,5.63,7.21,6.48,7.98,6.74C8.03,6.75,8.2,6.74,8.26,6.76
			C8.79,6.94,8.52,7.45,8.22,7.7C7.78,8.07,7.05,8.08,6.5,8.03c0.42,0.66-0.38,1.06-0.9,1.24c-0.04-0.24-0.12-0.14-0.3-0.13
			c1.53-0.63,0.8-0.85,0.79-1.08c-0.02-0.46,1.13-0.04,1.84-0.5c0.78-0.49-0.17-0.72-0.3-0.81C6.93,6.31,7.21,5.73,7.27,5.07
			C7.36,4.18,7.02,3.85,8.23,3.92z"/>
		<g>
			<path class="st10" d="M10.16,8.72C10.02,7.4,8.37,8.86,7.21,9.38c-0.78,0.35-2.2,0.68-2.31,0.74c-0.16,0.07-0.26,0.25-0.28,0.25
				c-0.04,0.01-0.59-0.31-0.7-0.33c0.01-0.09,0.01-0.26,0-0.36C4.32,9.63,5.39,9.6,5.19,9.4c0.19-0.04,0.24-0.07,0.41-0.13
				c0.52-0.19,1.32-0.58,0.9-1.24C7.05,8.08,7.78,8.07,8.22,7.7c0.3-0.25,0.56-0.76,0.04-0.94C8.37,6.74,8.99,6.7,9.03,6.74
				C9.1,6.79,9.12,7.37,9.17,7.46C9.19,7.49,9.71,7.8,9.75,7.8c0.13,0.02,1.02-0.47,1.22-0.53c0.06-0.02,0.13-0.05,0.17,0.01
				c0.23,0.65,0.23,0.65,0.46,1.29C11.53,8.77,10.39,8.68,10.16,8.72z"/>
			<path class="st7" d="M7.74,8.21C7.9,8.19,8.06,8.29,8.22,8.29C8.45,8.42,7.8,8.3,7.59,8.44c-0.23,0.14,0,0.33-0.06,0.52
				C7.27,9.13,7.45,8.95,7.45,8.93C7.46,8.81,7.23,8.27,7.74,8.21z"/>
			<path class="st7" d="M6.32,9.05C7.07,9.08,7.04,9.26,6.3,9.14C6.31,9.09,6.31,9.09,6.32,9.05z"/>
		</g>
		<path class="st10" d="M13.52,7.14c0.02,0.03,0.07,0.19,0.1,0.24c0.5,0.75,0.39,0.36,0.74,0.27c0.03-0.01,0.04-0.04,0.08-0.03
			c0.39,0.07,0.79,0.04,1.12,0.18c0.01,0.23-0.03,0.22-0.03,0.23c-0.2,0.03-0.98,0.28-1.08,0.25c-0.02,0-0.27-0.24-0.36-0.23
			c-0.07,0.01-1.05,0.71-1.08,0.77c-0.26,0.64,1.31,1.14,1.52,0.34c0.31,0.13,2.12,1.03,2.18,1.21c0.02,0.05,0.03,0.38,0.03,0.47
			c-0.06-0.1-0.12,0-0.22,0.03c-0.59,0.13-2.3,0.49-2.77,0.56c-0.1,0.02-0.31,0.06-0.37,0c0.15-0.01,0.36-0.03,0.33-0.11
			c-0.76-1.69-0.76-1.69-1.52-3.39c0.46,0.24,0.8-0.26,1.26-0.28c0.02-0.26-0.06-0.34-0.06-0.36C13.3,6.85,13.04,6.37,13.52,7.14z"
			/>
		<path class="st8" d="M11.38,6.08c0.19,0.13,1.24,0.47,1.31,0.53c0.08,0.07,0.04,0.09,0.11,0.2c0.04,0.07,0.05,0.15,0.05,0.15
			c-0.44-0.19-0.44-0.19-0.89-0.38c-0.17-0.11-0.55-0.21-0.76-0.28c-0.26-0.37-0.19-0.05-0.72-0.2c-0.14-0.08-0.01-0.3,0.01-0.43
			C10.79,5.83,11.07,5.95,11.38,6.08z"/>
		<path class="st12" d="M15.52,7.24c0.06,0.17,0.01,0.38,0.03,0.56c-0.32-0.14-0.72-0.11-1.12-0.18c-0.05-0.12-0.06-0.25-0.08-0.38
			C14.94,7.24,14.94,7.24,15.52,7.24z"/>
		<path class="st7" d="M11.05,5.37c-0.04,0.05-0.09,0.1-0.1,0.14c0.17,0.11,0.17,0.11,0.33,0.22c0.08,0.12,0.28,0.29,0.23,0.38
			c-0.06-0.02-0.12-0.02-0.13-0.03c-0.31-0.12-0.59-0.25-0.89-0.41c0.01-0.02,0-0.05,0-0.08c0.02-0.01,0.28-0.18,0.3-0.2
			C10.92,5.52,10.95,5.39,11.05,5.37z"/>
		<path class="st10" d="M15.52,7.24c-0.58,0-0.58,0-1.17,0C14.35,7.2,14.26,7,14.32,6.97C14.63,7.08,15.39,6.85,15.52,7.24z"/>
		<path class="st7" d="M13.39,7.3c0,0.02,0.08,0.09,0.06,0.36C13,7.67,12.66,8.17,12.2,7.93c0.01-0.01,0.01-0.01,0.03-0.03
			c0.4,0.11,0.86-0.19,0.81-0.63C13.21,7.28,13.21,7.28,13.39,7.3z"/>
		<path class="st7" d="M13.95,7.24c0,0,0.07,0.02,0,0.05c-0.17,0-0.27-0.06-0.25,0.01c0.17,0.21,0.17,0.21,0.34,0.42
			c0.08,0,0.02-0.2,0.22-0.23c0.03,0.09,0.04,0.09,0.1,0.15c-0.35,0.1-0.24,0.48-0.74-0.27c-0.04-0.05-0.08-0.21-0.1-0.24
			c0.03,0,0.02-0.02,0.03-0.03C13.74,7.18,13.74,7.18,13.95,7.24z"/>
		<g>
			<path class="st7" d="M12.91,3.59c-0.01,0.02-0.02,0.03-0.03,0.05c-0.13,0.23-0.66,0.77-0.74,1c-0.13,0.39,0.02,1.22,0.37,1.46
				c0.17,0.12,1.13,0.38,1.4,0.46c0.03,0.01,0.07,0.12,0.69,0.2c0.17,0.02,0.43-0.02,0.58,0c0.81,0.12,0.57,1.05,0.67,1.28
				c0.03,0.08,0.86,0.61,1.02,0.7c0.01,0.04,0,0.07,0.03,0.14c0.04,0.09,1.17,1.44,1.26,1.49c0.29,0.16,1.09,0.05,1.37,0.15
				c0.12,0.04,0.78,0.67,1.02,0.79c0.23,0.11,0.71,0.08,0.88,0.67c0.11,0.4-0.01,0.59,0,0.72c-0.01,0-0.01,0-0.03,0
				c-0.02,0-0.03-0.02-0.05-0.03c-0.14-1.24-0.55-1.02-0.7-1.09c-0.54-0.26-1.17-0.86-1.24-0.89c-0.19-0.07-1.01-0.02-1.19-0.08
				c-0.26-0.08-1.45-1.59-1.78-1.88c-0.13-0.11-0.85-0.56-0.88-0.61c0,0-0.02-0.09-0.03-0.1c0-0.01,0.04,0,0.03-0.23
				c-0.01-0.18,0.03-0.39-0.03-0.56c-0.13-0.39-0.89-0.16-1.21-0.28C14.26,7,14.35,7.2,14.35,7.24c0.02,0.13,0.03,0.26,0.08,0.38
				c-0.04-0.01-0.05,0.02-0.08,0.03c-0.06-0.06-0.07-0.06-0.1-0.15c-0.23-0.68,0.2-0.58-1.02-0.88c0.36,0.63,0.85-0.04,0.81,0.69
				c-0.1,0.04-0.1-0.01-0.1-0.01c0.07-0.03,0-0.05,0-0.05c-0.07-0.12-0.29-0.32-0.41-0.13c0,0,0.01,0.03-0.03,0.03
				c-0.48-0.77-0.21-0.29-0.13,0.15c-0.18-0.01-0.18-0.01-0.36-0.03c-0.02-0.17-0.12-0.2-0.18-0.3c0-0.01-0.01-0.09-0.05-0.15
				c-0.03-0.07-0.02-0.18-0.06-0.23c-0.04-0.05-1.07-0.42-1.23-0.48c0.05-0.09-0.15-0.26-0.23-0.38C11,5.27,11.21,5.5,11.79,4.77
				c-0.03-0.06-0.69,0.54-0.74,0.6c-0.1,0.02-0.13,0.15-0.25,0.03c0.06-0.05,0.39-0.37,0.38-0.46c0.46-0.05,0.59-0.7,0.76-0.95
				C12.27,3.48,13.11,3.08,12.91,3.59z"/>
			<g>
				<path class="st22" d="M11.75,5.06c0.11,0.44,0.11,0.44,0.23,0.89C11.74,6.08,11.41,5.28,11.75,5.06z"/>
				<path class="st7" d="M12.67,3.49c0.15,0.02-0.64,0.85-0.71,0.94C11.79,4.29,12.56,3.6,12.67,3.49z"/>
				<path class="st10" d="M11.28,5.72c-0.17-0.11-0.17-0.11-0.33-0.22c0.01-0.04,0.06-0.09,0.1-0.14c0.04-0.05,0.71-0.66,0.74-0.6
					C11.21,5.5,11,5.27,11.28,5.72z"/>
				<path class="st23" d="M11.51,6.1c0.16,0.06,1.19,0.43,1.23,0.48c0.05,0.05,0.04,0.16,0.06,0.23c-0.07-0.11-0.04-0.14-0.11-0.2
					c-0.07-0.06-1.11-0.4-1.31-0.53C11.39,6.08,11.45,6.08,11.51,6.1z"/>
				<g>
					<path class="st10" d="M14.25,7.5c-0.2,0.03-0.13,0.23-0.22,0.23c-0.17-0.21-0.17-0.21-0.34-0.42
						c-0.01-0.07,0.09-0.02,0.25-0.01c0.01,0,0,0.05,0.1,0.01c0.03-0.72-0.46-0.06-0.81-0.69C14.45,6.92,14.02,6.82,14.25,7.5z"/>
					<path class="st10" d="M13.95,7.24c-0.2-0.06-0.2-0.06-0.41-0.13C13.66,6.93,13.88,7.12,13.95,7.24z"/>
				</g>
			</g>
		</g>
		<path class="st7" d="M8.84,3.18c0.04-0.08,0.19-0.42,0.2-0.46C9.23,2.52,9.13,3.1,9.1,3.17C9.08,3.21,8.84,3.25,8.84,3.18z"/>
		<path class="st11" d="M8.79,3.23c-0.07,0.13-0.12,0.26-0.2,0.38C8.55,3.45,8.57,3.25,8.56,3.23C8.68,3.23,8.68,3.23,8.79,3.23z"/>
		<path class="st11" d="M10.37,5.44c0.09-0.18,0.09-0.18,0.18-0.36c0.01,0,0.01,0,0.03,0C10.55,5.61,10.5,5.44,10.37,5.44z"/>
		<path class="st10" d="M8.03,4.07c0.15,0.2,0.6,1.03,0.79,0.79c0.03,0.03,0.09,0.05,0.1,0.1c-0.16,0.25,0.84,0.97,1.13,1.17
			c0.17,0.12,0.79,0.43,0.83,0.47c0.03,0.03,0.14,0.44,0.2,0.56c-0.23,0.11-1.22,0.5-1.38,0.47C9.66,7.62,9.29,7.38,9.28,7.33
			c-0.15-0.5,0.55-0.85-1.28-0.67C7.99,6.7,7.99,6.7,7.98,6.74c-0.77-0.26-0.5-1.11-0.34-1.68c1.48,0.7,1.41,0.45-0.01-0.09
			c0.03-0.15,0.07-0.82,0.1-0.86C7.8,4,7.97,4.07,8.03,4.07z"/>
		<path class="st10" d="M12.22,7.9c-0.01,0.01-0.01,0.01-0.03,0.03c0.76,1.69,0.76,1.69,1.52,3.39c0.03,0.09-0.18,0.1-0.33,0.11
			c-0.14-0.16-1.19-3.22-1.5-3.72C11.88,7.63,12.11,7.87,12.22,7.9z"/>
		<path class="st12" d="M11.97,6.58c0.27,0.18,0.19,0.34,0.27,0.38c0.05,0.03,0.93,0.07,0.38,0.76c-0.19,0.12-0.26,0.03-0.39-0.05
			c0.3,0.03,0.41-0.18,0.2-0.41c-0.11-0.12-0.17-0.14-0.33-0.1c-0.16,0.04-0.23,0.18-0.34,0.28c-0.17-0.28-0.39-0.92-0.55-1.14
			C11.41,6.38,11.8,6.48,11.97,6.58z"/>
		<path class="st7" d="M8.31,4.07c0.15,0.25,0.31,0.57,0.51,0.79C8.63,5.1,8.18,4.27,8.03,4.07C8.14,4.07,8.24,4.04,8.31,4.07z"/>
		<path class="st24" d="M12.22,7.68c-0.02-0.01-0.07,0.01-0.15-0.1c0.18-0.15,0.18-0.15,0.36-0.3C12.63,7.5,12.52,7.7,12.22,7.68z"
			/>
		<path class="st14" d="M12.42,7.27c-0.18,0.15-0.18,0.15-0.36,0.3c-0.14-0.18-0.11-0.23,0.03-0.41
			C12.25,7.13,12.31,7.15,12.42,7.27z"/>
		<g>
			<path class="st16" d="M4.38,13.57c0.01,0,0.02,0,0.03,0c0.13,0.14,0,0.11,0.03,0.19c0.01,0.02,0.07,0.01,0.08,0.01
				c-0.02,0.05,0.05,0.23-0.06,0.1c-0.33,0.16-0.34-0.35-0.42,0.03c-0.07-0.08,0.01-0.23,0.08-0.28C4.19,13.55,4.3,13.59,4.38,13.57
				z"/>
			<path class="st25" d="M4.5,13.77c0.05,0.11,0.04,0.13-0.03,0.2c0,0.01-0.1,0.03-0.13,0.08c-0.13,0.01-0.26-0.04-0.33-0.15
				c0.07-0.37,0.09,0.14,0.42-0.03C4.55,13.99,4.48,13.82,4.5,13.77z"/>
			<path class="st26" d="M4.53,13.49c-0.19,0.05-0.12,0.07-0.13,0.08c-0.01,0-0.02,0-0.03,0C4.35,13.43,4.6,13.37,4.53,13.49z"/>
		</g>
		<g>
			<path class="st27" d="M6.23,11.33c0.18,0.09,0.18,0.09,0.36,0.18c-0.25,0.25-0.09,0.12,0.1,0.62c-0.01,0.03-0.57,0.15-0.62,0.14
				c-0.08-0.02-0.6-0.91-0.76-1.02c0.25,0.36,0.03,0.22-0.51,0.56c-0.16-0.23-0.16-0.23-0.32-0.46c0.03-0.02,0.43-0.4,0.47-0.41
				c0.08-0.01,0.26,0.27,0.28,0.28c0.04,0.02,0.45,0.03,0.84,0.28C6.13,11.51,6.14,11.46,6.23,11.33z"/>
			<path class="st27" d="M9.78,10.29c0.05,0.06,0.39,0.55,0.37,0.58c-0.72,0.23-1.44,0.45-2.15,0.74c-0.11-0.04-0.11-0.04-0.23-0.08
				c0.29-0.12,0.59-0.34,0.91-0.46c0.09-0.03,0.7-0.16,0.71-0.19c-0.07-0.15-0.15-0.29-0.23-0.44C9.48,10.37,9.48,10.37,9.78,10.29z
				"/>
			<path class="st27" d="M3.69,12.32c-0.12-0.01-0.16-0.23-0.25-0.38c0.33-0.18,0.68-0.35,0.99-0.56c0.15,0.22,0.15,0.22,0.3,0.44
				C4.72,11.88,3.78,12.25,3.69,12.32z"/>
			<path class="st13" d="M7.78,11.54c0.11,0.04,0.11,0.04,0.23,0.08c-0.12,0.05-0.43,0.23-0.76,0.36c-0.32-0.2-0.32-0.2-0.63-0.41
				c0.04-0.04,0.1-0.07,0.13-0.13C7.29,11.72,7.09,11.83,7.78,11.54z"/>
			<g>
				<path class="st27" d="M9.07,10.42c0.04,0.07,0.29,0.37,0.25,0.44c-0.32,0.08-0.32,0.08-0.63,0.17
					c-0.04-0.12-0.16-0.35-0.23-0.53C8.77,10.46,8.77,10.46,9.07,10.42z"/>
				<path class="st28" d="M9.02,10.27c0.01,0.04,0.04,0.14,0.05,0.15c-0.3,0.04-0.3,0.04-0.61,0.08c-0.01-0.03-0.12-0.15-0.06-0.18
					C8.61,10.32,8.82,10.3,9.02,10.27z"/>
				<path class="st29" d="M9.33,10.21c-0.08,0.03-0.17,0.05-0.25,0.09c0.01,0.05,0.1,0.13,0.1,0.14c0.07,0.15,0.16,0.29,0.23,0.44
					c-0.02,0.03-0.62,0.16-0.71,0.19c0-0.02,0-0.04,0-0.05c0.32-0.08,0.32-0.08,0.63-0.17c0.03-0.08-0.21-0.37-0.25-0.44
					c-0.01-0.01-0.04-0.11-0.05-0.15C9.11,10.25,9.18,10.23,9.33,10.21z"/>
			</g>
			<path class="st27" d="M3.72,12.45c-0.01-0.03-0.04-0.04-0.05-0.08c0.16-0.02,1.02-0.52,1.08-0.51c0.05,0.01,0.25,0.41,0.32,0.47
				c-0.08,0.06-0.61,0.41-0.65,0.42C4.28,12.77,3.89,12.47,3.72,12.45z"/>
			<path class="st27" d="M4.02,13.46c-0.17-0.03-0.21-0.64-0.28-0.96c0.4,0.16,0.76,0.4,1.12,0.65C4.86,13.21,4.12,13.45,4.02,13.46
				z"/>
			<path class="st13" d="M5.47,13.13c-0.04,0.13-0.63,0.32-0.83,0.38c-0.08,0.02-0.11-0.03-0.11-0.03c0.07-0.12-0.18-0.06-0.15,0.08
				c-0.07,0.02-0.19-0.01-0.28,0.05c-0.06-0.05-0.06-0.05-0.13-0.1c0.29-0.02,1.18-0.42,1.31-0.43C5.37,13.08,5.45,13.13,5.47,13.13
				z"/>
			<path class="st27" d="M7.09,12.78c-0.28,0.06-1.34,0.39-1.52,0.38c-0.46-0.35-0.36,0.34-1.14-0.37c0.12-0.06,0.59-0.38,0.62-0.39
				c0.04-0.01,0.11,0.05,0.18,0.03c0.11-0.04,0.65-0.27,0.71-0.25c0.01,0,0.06,0.11,0.1,0.13c0.13,0.04,0.65-0.13,0.69-0.13
				C6.79,12.18,7.01,12.71,7.09,12.78z"/>
			<path class="st27" d="M8.95,12.35c-0.61,0.13-1.22,0.29-1.83,0.43c-0.17-0.3-0.17-0.3-0.33-0.6c0.31-0.04,1.43-0.66,1.51-0.65
				C8.35,11.54,8.81,12.29,8.95,12.35z"/>
			<path class="st27" d="M11.74,11.79c-0.33,0.07-0.66,0.13-0.99,0.2c-0.11-0.29-0.11-0.29-0.23-0.57c0.11-0.01,0.69-0.25,0.72-0.24
				C11.28,11.19,11.68,11.7,11.74,11.79z"/>
			<g>
				<path class="st29" d="M11.03,10.75c-0.04,0.01-0.04,0.01-0.08,0.03c-0.03-0.03-0.07-0.12-0.09-0.13
					c-0.03-0.01-0.53,0.25-0.62,0.27c0.04,0.08,0.19,0.41,0.2,0.43c0.06,0.06,0.86-0.16,0.74-0.27c0.21,0.23,0.46,0.44,0.66,0.69
					c-0.04,0.01-0.07,0.02-0.1,0.03c-0.05-0.09-0.46-0.6-0.5-0.61c-0.04-0.01-0.61,0.23-0.72,0.24c0.11,0.29,0.11,0.29,0.23,0.57
					c-0.15-0.28-0.15-0.28-0.29-0.56c-1.02,0.3-1.13,0.27-0.04-0.04c-0.12-0.25-0.12-0.25-0.24-0.5c-0.91,0.31-0.91,0.31-1.82,0.62
					c0.3,0.41,0.3,0.41,0.61,0.83c-0.01,0-0.02,0-0.03,0c-0.13-0.06-0.6-0.8-0.65-0.81c-0.08-0.01-1.2,0.61-1.51,0.65
					c0.17,0.3,0.17,0.3,0.33,0.6c-0.01,0-0.02,0-0.03,0c-0.09-0.07-0.3-0.59-0.37-0.61c-0.03-0.01-0.55,0.17-0.69,0.13
					c-0.04-0.01-0.09-0.12-0.1-0.13c-0.06-0.02-0.6,0.21-0.71,0.25c-0.07,0.02-0.14-0.04-0.18-0.03c-0.03,0.01-0.5,0.33-0.62,0.39
					c0.78,0.71,0.69,0.02,1.14,0.37c-0.08,0-0.09-0.03-0.1-0.03c-0.02,0-0.1-0.06-0.19-0.05c-0.13,0.01-1.02,0.41-1.31,0.43
					c0.03-0.03,0.03-0.03,0.05-0.05c0.1-0.01,0.84-0.26,0.84-0.32C4.5,12.9,4.14,12.66,3.74,12.5c0-0.02-0.02-0.03-0.03-0.05
					c0.17,0.02,0.57,0.32,0.7,0.3c0.04-0.01,0.57-0.36,0.65-0.42c-0.07-0.06-0.26-0.46-0.32-0.47c-0.06-0.01-0.92,0.49-1.08,0.51
					c0-0.01-0.05,0.02,0.03-0.05c0.09-0.08,1.03-0.44,1.04-0.5c-0.15-0.22-0.15-0.22-0.3-0.44c0.04-0.03,0.05-0.02,0.05-0.03
					c0.16,0.23,0.16,0.23,0.32,0.46c0.54-0.33,0.76-0.2,0.51-0.56c0.16,0.11,0.68,0.99,0.76,1.02c0.05,0.01,0.61-0.11,0.62-0.14
					c-0.19-0.5-0.35-0.37-0.1-0.62c0.03-0.03,0.09-0.04,0.08-0.1c0,0,0.02,0,0.08,0.03c-0.03,0.05-0.08,0.09-0.13,0.13
					c-0.02,0.02-0.12,0.09-0.13,0.11c0,0.03,0.26,0.46,0.29,0.47c0.02,0.01,0.4-0.15,0.47-0.18c0.33-0.12,0.64-0.31,0.76-0.36
					c0.7-0.28,1.42-0.51,2.15-0.74c0.02-0.03-0.32-0.53-0.37-0.58c-0.02-0.03-0.05-0.12-0.06-0.13c-0.02-0.01-0.31,0.04-0.39,0.05
					c0.14-0.05,0.28-0.07,0.43-0.1c0,0.08,0.04,0.1,0.08,0.15c0.05,0.08,0.36,0.6,0.39,0.61c0.03,0.01,0.59-0.23,0.6-0.27
					c-0.17-0.26-0.17-0.26-0.33-0.52c0.03-0.14-0.55,0-0.71,0.03c0.1-0.02,0.66-0.19,0.7-0.18C10.53,9.95,10.92,10.66,11.03,10.75z"
					/>
				<path class="st13" d="M10.49,10.09c-0.33,0.09-0.33,0.09-0.66,0.18c-0.03-0.05-0.08-0.08-0.08-0.15c0.01,0,0.02,0,0.03,0
					C9.95,10.08,10.52,9.95,10.49,10.09z"/>
				<path class="st27" d="M5.43,11.54c0.11,0,0.36,0.47,0.44,0.57c-0.75,0.32-0.71,0.46-1.04-0.25C4.91,11.81,5.4,11.54,5.43,11.54z
					"/>
			</g>
			<path class="st27" d="M9.83,10.27c0.33-0.09,0.33-0.09,0.66-0.18c0.17,0.26,0.17,0.26,0.33,0.52c0,0.03-0.56,0.27-0.6,0.27
				C10.19,10.87,9.88,10.34,9.83,10.27z"/>
			<path class="st27" d="M10.95,10.77c0.09,0.1,0.15,0.22,0.23,0.3c0.12,0.11-0.67,0.33-0.74,0.27c-0.02-0.02-0.16-0.35-0.2-0.43
				c0.09-0.01,0.59-0.27,0.62-0.27C10.88,10.65,10.92,10.74,10.95,10.77z"/>
			<path class="st27" d="M7.24,11.97c-0.07,0.02-0.45,0.18-0.47,0.18c-0.03-0.01-0.3-0.44-0.29-0.47c0-0.02,0.11-0.09,0.13-0.11
				C6.93,11.76,6.93,11.76,7.24,11.97z"/>
			<g>
				<path class="st27" d="M10.75,11.99c-0.59,0.12-1.19,0.23-1.78,0.36c-0.3-0.41-0.3-0.41-0.61-0.83c0.91-0.31,0.91-0.31,1.82-0.62
					c0.12,0.25,0.12,0.25,0.24,0.5c-1.09,0.31-0.98,0.34,0.04,0.04C10.6,11.71,10.6,11.71,10.75,11.99z"/>
				<path class="st28" d="M9.78,10.29c-0.3,0.08-0.3,0.08-0.61,0.15c0-0.01-0.09-0.09-0.1-0.14c0.08-0.04,0.17-0.06,0.25-0.09
					c0.09-0.01,0.37-0.06,0.39-0.05C9.73,10.17,9.76,10.27,9.78,10.29z"/>
			</g>
		</g>
		<path class="st8" d="M18.09,11.05c-0.19,0.22-0.54,0.3-0.81,0.18c-0.39-0.18-0.23-0.77,0.37-0.71
			C18.15,10.57,18.09,10.92,18.09,11.05z"/>
		<path class="st30" d="M14.68,16.11c-0.04,0.01-0.14-0.01-0.2,0c0.14-0.2,0.14-0.2,0.28-0.41C14.98,15.79,14.88,16.05,14.68,16.11z
			"/>
		<path class="st31" d="M14.76,15.7c-0.14,0.2-0.14,0.2-0.28,0.41c-0.01,0-0.01,0-0.03,0C14.21,15.95,14.41,15.55,14.76,15.7z"/>
		<g>
			<g>
				<path class="st10" d="M21.34,12.68c0.02,0.01,0.03,0.02,0.05,0.03c-0.17,0.51-0.49,0.95-0.81,1.37
					c-0.06-0.01-1.24,0.08-1.31,0.1c-0.13,0.03-0.35,0.36-0.44,0.46c-0.01,0.01-0.02,0.02-0.03,0.03c-0.07,0.07-0.05,0.07-0.05,0.08
					c-0.12,0.12-0.26,0.24-0.38,0.37c-0.21,0.24-0.17,0.25-0.18,0.27c0,0-0.02-0.01-0.05,0.03c-0.26,0.3-0.54,0.72-0.66,0.86
					c0,0-0.02-0.01-0.05,0.03c-0.08,0.1-0.26,0.36-0.36,0.41c-0.15,0.08-0.82,0.13-0.86,0.2c0,0.01,0,0.01,0,0.03
					c-0.82-0.01-0.91,0.4-1.73-0.23c0.1-0.29,0.1-0.29,0.2-0.58c0.19-0.06,0.3-0.31,0.08-0.41c-0.35-0.14-0.55,0.26-0.3,0.41
					c0.26,0.03-0.07,0.36-0.05,0.58c-0.12,0.02,0.01,0.26-0.84-0.2c0-0.03,0-0.03,0-0.05c0-0.04-0.51-0.5-0.55-0.51
					c-0.16-0.05-1.47,0.08-1.9,0.03c-0.07-0.01-0.38-0.12-0.5-0.15c-0.32-0.1-0.43-0.19-0.69-0.3c-0.02-0.01-0.06,0.01-0.08,0
					c-0.22-0.1-0.5-0.3-0.72-0.41c0,0-0.02,0.03-0.04,0.03c0,0,0.03-0.01-0.05-0.05c-0.68-0.34-1.33-0.74-2.03-1.04
					c0.11-0.09,0.16-0.43,0.24-0.58c1.75-0.44,3.51-0.88,5.28-1.24c0.38,0.6,0.38,0.66,0.99,1.02c0.8,0.47,1.72,0.7,2.56,1.07
					c0.69,0.3,1.37,0.67,2.01,1.07c0.16-0.13,0.18-0.22,0.19-0.23c0.08-0.09,0.25-0.14,0.11-0.23c-1.5-0.71-1.5-0.71-3-1.42
					c0.12-0.34-0.13-0.59-0.48-0.51c-0.28,0.07-0.03,0.43-0.76-0.05c-0.58-0.38-0.13-0.24-0.52-0.66c-0.01-0.01,0.04-0.06-0.15-0.11
					c1.06-0.33,2.18-0.48,3.26-0.72c0.18-0.04,0.53-0.13,0.52-0.18c0.27,0.13,0.62,0.04,0.81-0.18c0,0.06-0.03,0.06-0.03,0.06
					C18.12,11.29,20.98,12.56,21.34,12.68z"/>
				<path class="st8" d="M10.89,14.07c0.16-0.03,0.45,0.05,0.39,0.27C10.85,14.78,10.46,14.16,10.89,14.07z"/>
				<path class="st32" d="M14.68,16.11c-0.1,0.29-0.1,0.29-0.2,0.58c-0.02,0-0.05,0-0.08,0c-0.01-0.22,0.31-0.55,0.05-0.58
					c0.01,0,0.01,0,0.03,0C14.54,16.1,14.64,16.12,14.68,16.11z"/>
			</g>
			<g>
				<path class="st10" d="M21.34,12.68c-0.36-0.12-3.21-1.39-3.28-1.56c0,0,0.03-0.01,0.03-0.06c0-0.13,0.07-0.49-0.44-0.53
					c-0.59-0.05-0.76,0.53-0.37,0.71c0.01,0.05-0.34,0.14-0.52,0.18c-1.09,0.24-2.2,0.39-3.26,0.72c0.19,0.06,0.15,0.11,0.15,0.11
					c-0.23-0.15-0.56-0.1-0.53,0.23c0.03,0.33,0.45,0.32,0.48,0.33c0.43,0.21,1.14,0.86,1.59,0.81c0.03,0,0.29-0.17,0.06,0.01
					c1,0.5,2.05,0.95,3.05,1.49c-0.01,0.01-0.03,0.1-0.19,0.23c-0.64-0.4-1.32-0.77-2.01-1.07c-0.85-0.37-1.76-0.6-2.56-1.07
					c-0.61-0.36-0.61-0.42-0.99-1.02c-1.77,0.36-3.53,0.8-5.28,1.24c-0.08,0.16-0.13,0.5-0.24,0.58c-0.01,0-0.02-0.03-0.13,0.05
					c-0.37,0.27-0.76,0.53-1.14,0.79c-0.38-0.23-1.31-0.68-1.27-0.89c0.06-0.07,0.07-0.09,0.03-0.2c0.03-0.06,0.88-0.32,1-0.36
					c0.77-0.22,3.66-0.88,4.57-1.07c2.21-0.46,4.47-0.76,6.66-1.28c0-0.07-0.01-0.14,0-0.22c0.01-0.09-0.01-0.42-0.03-0.47
					c-0.07-0.18-1.87-1.07-2.18-1.21c0.05-0.17,0-0.77,0.03-0.8c0.03-0.04,0.88-0.17,0.99-0.24c0.03,0.05,0.75,0.5,0.88,0.61
					c0.33,0.29,1.52,1.8,1.78,1.88c0.18,0.06,1,0.01,1.19,0.08c0.07,0.03,0.7,0.63,1.24,0.89C20.79,11.66,21.19,11.44,21.34,12.68z"
					/>
				<path class="st7" d="M16.07,8.69c0.2-0.01-0.59,0.35-0.52,0.44c0.09,0.04,1.41,0.94,1.31,0.98c-0.18-0.11-1.36-0.84-1.41-0.9
					C15.27,8.99,15.71,8.91,16.07,8.69z"/>
			</g>
		</g>
		<g>
			<path class="st7" d="M15.55,8.13c-0.11,0.07-0.96,0.2-0.99,0.24c-0.02,0.03,0.02,0.63-0.03,0.8c-0.22,0.79-1.78,0.29-1.52-0.34
				c0.03-0.07,1.01-0.77,1.08-0.77c0.08-0.01,0.33,0.22,0.36,0.23c0.1,0.02,0.88-0.22,1.08-0.25C15.52,8.04,15.54,8.13,15.55,8.13z"
				/>
			<path class="st10" d="M14.09,8.16c0.05,0,0.36,0.2,0.37,0.24c0.01,0.04-0.04,0.72-0.1,0.84c-0.27,0.5-1.42,0.11-1.19-0.41
				C13.18,8.78,14.03,8.16,14.09,8.16z"/>
		</g>
		<g>
			<path class="st33" d="M2.95,11.23c0.03,0.07,0.38,0.55,0.48,0.71c0.09,0.15,0.13,0.37,0.25,0.38c-0.08,0.07-0.03,0.04-0.03,0.05
				c0.01,0.03,0.04,0.04,0.05,0.08c0,0.02,0.02,0.03,0.03,0.05c0.06,0.33,0.11,0.93,0.28,0.96c-0.03,0.03-0.03,0.03-0.05,0.05
				c0.06,0.05,0.06,0.05,0.13,0.1c-0.07,0.05-0.14,0.2-0.08,0.28c0.07,0.12,0.2,0.16,0.33,0.15c-0.03,0.06,0.01,0.35-0.08,0.38
				c-0.16-0.11-0.33-0.2-0.48-0.3c-0.07-0.39-0.12-0.83-0.25-1.21c-0.12-0.32-0.65-1.13-0.69-1.31C2.83,11.52,2.86,11.19,2.95,11.23
				z"/>
			<g>
				<path class="st13" d="M2.85,11.61c0.03,0.18,0.57,0.99,0.69,1.31c0.14,0.38,0.18,0.81,0.25,1.21c-0.1,0-0.07,0.11-0.08,0.2
					c-0.03,0-0.04-0.03-0.05-0.05c-0.08-0.16-0.66-0.7-0.84-0.91c0.04-0.33-0.06-1.6-0.03-1.74C2.81,11.61,2.83,11.61,2.85,11.61z"
					/>
				<path class="st34" d="M3.66,14.28c-0.24-0.11-0.68-0.75-0.84-0.84c0-0.04,0-0.04,0-0.08C3,13.58,3.58,14.12,3.66,14.28z"/>
			</g>
			<linearGradient id="SVGID_1_" gradientUnits="userSpaceOnUse" x1="18.5066" y1="21.7967" x2="15.837" y2="22.1385">
				<stop  offset="0" style="stop-color:#E4B079"/>
				<stop  offset="1" style="stop-color:#82523B"/>
			</linearGradient>
			<path class="st35" d="M18.75,21.31c0,0.76,0,0.76,0,1.52c0,0.04,0,0.04,0,0.08c-0.02-0.01-0.03,0.03-0.05,0.03
				c-0.11-0.13-0.19-0.28-0.3-0.41c-0.04-0.05-0.11-0.14-0.15-0.18c0.02-0.16-0.58-0.37-0.67-0.38c-0.06-0.01-1.06,0.02-1.19,0.03
				c-0.02,0-0.01,0.05-0.03,0.05c-0.27,0.02-0.49-0.01-0.75,0.08c-0.02-0.02-0.02-0.02-0.03-0.03c0.04,0,0.03-0.12,0.03-0.25
				c0-0.28,0-0.56,0-0.84c0.37,0.27,0.87,0.06,1.54,0.05C18.26,21.05,18.66,21.31,18.75,21.31z"/>
			
				<linearGradient id="SVGID_00000151527259815023036590000002189994835661172122_" gradientUnits="userSpaceOnUse" x1="12.319" y1="20.554" x2="11.0471" y2="20.9081">
				<stop  offset="0" style="stop-color:#DFAD78"/>
				<stop  offset="1" style="stop-color:#BC855B"/>
			</linearGradient>
			<path style="fill:url(#SVGID_00000151527259815023036590000002189994835661172122_);" d="M12.65,20.42c0,0.75,0,0.75,0,1.5
				c0,0.04,0,0.04,0,0.08c-0.13-0.04-0.46-0.49-0.61-0.61c-0.29-0.23-0.61-0.26-0.95-0.38c-0.13-0.04-0.31-0.21-0.34-0.1
				c-0.1-0.06-0.28-0.25-0.33-0.36c0.17,0.13,0.17,0.13,0.33,0.27c0-0.68,0-0.68,0-1.36c0.15,0.08,0.82,0.15,0.98,0.23
				C11.91,19.78,12.37,20.51,12.65,20.42z"/>
			<path class="st37" d="M9.05,17.7c0.02,0.22-0.03,1.2,0,1.26c0.01,0.01,0.24,0.12,0.27,0.17c0.11-0.01,0.05-1.11,0.06-1.24
				c0.21,0.12,0.57,0.32,0.74,0.46c0.03,0.42,0.07,0.84,0.13,1.26c0.02,0.14,0.1,0.14,0.1,0.15c0.01,0.1-0.03,0.11-0.03,0.11
				c0.01-0.06-0.02-0.09-0.06-0.13c-0.26-0.22-2.01-1.21-2.5-1.35c0.16-0.1,0.04-0.83,0.08-1.22C8.26,17.3,8.65,17.5,9.05,17.7z"/>
			<path class="st13" d="M10.75,19.46c0,0.68,0,0.68,0,1.36c-0.17-0.13-0.17-0.13-0.33-0.27c-0.15-0.3-0.06-0.42-0.1-0.69
				c0-0.01,0.04-0.02,0.03-0.11c0-0.01-0.08-0.01-0.1-0.15c-0.06-0.42-0.09-0.84-0.13-1.26C10.6,18.75,10.49,19.32,10.75,19.46z"/>
			<g>
				<path class="st32" d="M4.78,14.81c0.03,0.34-0.04,0.92,0,1.19c-0.21-0.1-0.94-0.43-1.04-0.58c0.17,0.08,0.17,0.08,0.33,0.17
					c0.11-0.55,0.11-0.55,0.23-1.1C4.4,14.55,4.76,14.8,4.78,14.81z"/>
				<path class="st13" d="M3.79,14.12c0.16,0.11,0.33,0.2,0.48,0.3c0,0,0.02,0.05,0.03,0.05c-0.11,0.55-0.11,0.55-0.23,1.1
					c-0.17-0.08-0.17-0.08-0.33-0.17c0,0-0.05-0.02-0.05-0.04c-0.01-0.05,0.02-0.9,0.03-1.05C3.72,14.24,3.69,14.12,3.79,14.12z"/>
			</g>
			<path class="st37" d="M5.8,15.32c0.02,0.29-0.03,1.32,0,1.43c0.01,0.03,0.32,0.38,0.38,0.34c0,0.03,0,0.03,0,0.05
				c-0.24-0.1-0.31-0.31-0.51-0.48c-0.1-0.1-0.05-0.08-0.23-0.15c-0.02-0.26-0.07-1.22-0.05-1.33c0-0.01,0.05-0.03,0.05-0.06
				C5.61,15.2,5.74,15.29,5.8,15.32z"/>
			<path class="st13" d="M5.11,14.99c0,0.74,0,0.74,0,1.47c-0.06-0.03-0.26-0.11-0.28-0.17c-0.02-0.05,0.01-0.2,0-0.28
				c0-0.02-0.05-0.01-0.05-0.01c-0.04-0.28,0.03-0.85,0-1.19C4.88,14.87,5,14.93,5.11,14.99z"/>
			<path class="st32" d="M5.44,15.12c0,0.03-0.05,0.05-0.05,0.06c-0.02,0.12,0.03,1.08,0.05,1.33c-0.16-0.07-0.28-0.16-0.28-0.03
				c-0.02-0.01-0.03-0.02-0.05-0.03c0-0.74,0-0.74,0-1.47C5.13,15,5.1,14.94,5.44,15.12z"/>
			<path class="st38" d="M15.09,21.61c-0.46-0.22-0.88-0.2-1.38-0.03c-0.05,0.02-0.44,0.27-0.9,0.38c-0.08,0.02-0.05,0.06-0.15,0.03
				c0-0.04,0-0.04,0-0.08C13.43,21.58,14.28,21,15.09,21.61z"/>
			<path class="st39" d="M18.24,22.35c-0.08-0.07-0.13-0.1-0.23-0.15c-0.08-0.04-0.17-0.06-0.25-0.08c-0.65-0.14-1.37,0.04-2.03,0.1
				c0,0-0.03,0.01-0.1-0.05c0,0-0.02-0.05-0.03-0.05c0.26-0.08,0.47-0.05,0.75-0.08c0.02,0,0.01-0.05,0.03-0.05
				c0.14-0.01,1.13-0.03,1.19-0.03C17.66,21.98,18.26,22.19,18.24,22.35z"/>
			<path class="st13" d="M7.83,17.17c-0.04,0.39,0.08,1.12-0.08,1.22c-0.09,0.05-0.09-0.39-0.1-0.63c-0.01-0.2,0.04-0.41,0.03-0.61
				C7.73,17.11,7.78,17.16,7.83,17.17z"/>
			<g>
				
					<linearGradient id="SVGID_00000024689380296654783460000012090396010126272430_" gradientUnits="userSpaceOnUse" x1="7.2783" y1="16.568" x2="6.3506" y2="16.7155">
					<stop  offset="0" style="stop-color:#DDA671"/>
					<stop  offset="1" style="stop-color:#956749"/>
				</linearGradient>
				<path style="fill:url(#SVGID_00000024689380296654783460000012090396010126272430_);" d="M7.68,17.15
					c0.02,0.2-0.03,0.41-0.03,0.61c-0.13-0.07-0.24-0.17-0.36-0.25c-0.39-0.27-0.65-0.36-1.12-0.46c0-0.77,0-0.77,0-1.55
					C7.05,15.91,7.55,15.73,7.68,17.15z"/>
				<path class="st41" d="M7.3,17.5c-0.36-0.21-0.87-0.25-1.12-0.36c0-0.03,0-0.03,0-0.05c0-0.03,0-0.03,0-0.05
					C6.64,17.15,6.91,17.23,7.3,17.5z"/>
			</g>
			<path class="st42" d="M12.04,21.39c-0.33-0.18-1.07-0.35-1.29-0.48c0.04-0.11,0.21,0.06,0.34,0.1
				C11.43,21.12,11.75,21.15,12.04,21.39z"/>
			<path class="st43" d="M5.44,16.51c0.18,0.07,0.12,0.06,0.23,0.15c-0.17-0.04-0.35-0.1-0.51-0.18
				C5.16,16.36,5.29,16.45,5.44,16.51z"/>
			<g>
				<path class="st43" d="M21.56,14.4c0,0.16,0.03,0.12,0.03,0.13c0,0.08,0,0.17,0,0.25c0,0.1,0,0.2,0,0.3c0,0.08,0.01,0.14,0,0.23
					c-0.38,0.5-0.63,1.05-0.86,1.62c-0.18,0.46-0.28,0.77-0.41,1.24c-0.11,0.41-0.21,0.83-0.3,1.24c-0.05-0.63-0.2-1.05-0.08-1.71
					c0.07-0.35,0.97-3,1.17-3.47c0.13-0.32,0.33-0.61,0.43-0.94C21.56,13.67,21.56,14.04,21.56,14.4z"/>
				<path class="st44" d="M20.37,18.11c-0.01,0.02,0.01,0.06-0.05,0.08c0.13-0.47,0.22-0.79,0.41-1.24
					c0.03,0.12-0.11,0.32-0.15,0.44C20.52,17.53,20.4,17.97,20.37,18.11z"/>
			</g>
			<g>
				<path class="st27" d="M21.54,13.31c-0.1,0.33-0.3,0.62-0.43,0.94c-0.4,0.14-0.8,0.31-1.18,0.48c-0.54,0.25-0.28,0.46-1.13-0.08
					c0.01-0.01,0.02-0.02,0.03-0.03c0.14,0.09,0.24-0.21,0.34-0.25c0.14-0.06,1.19,0.02,1.59-0.19c-0.07-0.07-0.07-0.1-0.18-0.11
					c0.32-0.42,0.64-0.87,0.81-1.37c0.01,0,0.01,0,0.03,0C21.42,12.78,21.52,13.05,21.54,13.31z"/>
				<path class="st13" d="M20.57,14.07c0.11,0.02,0.11,0.04,0.18,0.11c-0.4,0.21-1.45,0.13-1.59,0.19c-0.1,0.04-0.2,0.34-0.34,0.25
					c0.1-0.1,0.31-0.42,0.44-0.46C19.33,14.16,20.51,14.06,20.57,14.07z"/>
			</g>
			<path class="st27" d="M4.48,13.97c-0.04,0.21,0.89,0.65,1.27,0.89c0.07,0.04,0.15,0.07,0.15,0.08C6,15,6.24,15.13,6.28,15.17
				c0.01,0.01-0.03,0.1,0.09,0.2c0.1,0.08,0.99,0.39,1.12,0.48c0.24,0.18,0.28,0.63,0.44,0.84c-0.02,0.03-0.05,0.08-0.05,0.1
				c-0.02,0.08,0,0.11,0,0.19c0.04,0.06,1.15,0.43,1.17,0.27c0.21,0.13,1.34,0.8,1.4,0.86c0.26,0.27,0.3,1.16,0.36,1.26
				c0.05,0.08,1.09,0.13,1.21,0.19c0.04,0.02,0.47,0.71,0.56,0.71c0.06,0,0.32-0.22,1.09-0.41c0.22-0.05,0.46-0.01,0.67-0.1
				c0.13-0.06,0.27-0.27,0.34-0.28c0.09-0.01,0.41,0.15,0.44,0.15c-0.18,0.16-0.18,0.16-0.36,0.32c0.12,0.07,0.66,0.54,0.72,0.55
				c0.12,0.02,0.96-0.43,1.16-0.51c0,0.01,0,0.02,0,0.03c-0.05,0.21-1.01,0.51-1.07,0.61c-0.07-0.07-0.16-0.1-0.23-0.15
				c-0.28-0.21-0.53-0.49-0.9-0.53c-0.81-0.1-1.61,0.43-1.79,0.48c-0.28,0.08-0.74-0.64-0.93-0.74c-0.15-0.08-0.83-0.15-0.98-0.23
				c-0.26-0.14-0.15-0.7-0.63-1.12C9.95,18.2,9.58,18,9.38,17.88c-0.11-0.07-0.21-0.12-0.33-0.18c-0.4-0.21-0.79-0.4-1.22-0.53
				c-0.05-0.01-0.1-0.06-0.15-0.03c-0.12-1.42-0.62-1.24-1.5-1.65c-0.13-0.06-0.26-0.12-0.38-0.18c-0.05-0.03-0.19-0.12-0.36-0.2
				C5.1,14.94,5.13,15,5.11,14.99C5,14.93,4.88,14.87,4.78,14.81C4.76,14.8,4.4,14.55,4.3,14.48c0,0-0.02-0.05-0.03-0.05
				c0.09-0.03,0.05-0.32,0.08-0.38C4.37,14,4.47,13.98,4.48,13.97z"/>
			
				<linearGradient id="SVGID_00000165939020461393283110000002906192504938750345_" gradientUnits="userSpaceOnUse" x1="15.1234" y1="20.7488" x2="13.0167" y2="21.8153">
				<stop  offset="0" style="stop-color:#C68F62"/>
				<stop  offset="1" style="stop-color:#7E4E38"/>
			</linearGradient>
			<path style="fill:url(#SVGID_00000165939020461393283110000002906192504938750345_);" d="M15.34,20.47c0,0.23-0.02,1.27,0,1.33
				c0.01,0.02,0.15,0.14,0.19,0.19c0.04-0.03-0.03-0.17,0.06-0.15c0,0.13,0.01,0.26-0.03,0.25c-0.07-0.06-0.14-0.12-0.2-0.18
				c-0.07-0.07-0.22-0.26-0.28-0.3c-0.81-0.62-1.66-0.03-2.44,0.3c0-0.75,0-0.75,0-1.5c0.18-0.05,0.98-0.58,1.79-0.48
				C14.82,19.98,15.06,20.26,15.34,20.47z"/>
			<path class="st46" d="M20.02,21.97c-0.42,0.21-0.85,0.62-1.27,0.86c0-0.76,0-0.76,0-1.52c0.05,0,0.11-0.07,0.2-0.1
				c0.21-0.09,0.76-0.41,0.89-0.58C19.96,21.06,19.88,21.57,20.02,21.97z"/>
			<path class="st37" d="M15.57,20.62c-0.04,0.06,0,0.1,0,0.15c0,0.15,0.03,0.17,0.03,0.18c0,0.02,0,0.03,0,0.05
				c0,0.28,0,0.56,0,0.84c-0.09-0.02-0.02,0.12-0.06,0.15c-0.04-0.05-0.18-0.17-0.19-0.19c-0.02-0.06,0-1.1,0-1.33
				C15.41,20.52,15.51,20.56,15.57,20.62z"/>
			<path class="st27" d="M16.23,21.03c0.71-0.07,1.39-0.06,2.04,0.05c0.22,0.04,0.44,0.19,0.67,0.13c-0.09,0.04-0.16,0.1-0.2,0.1
				c-0.08,0-0.48-0.26-1.61-0.25c-0.66,0.01-1.17,0.22-1.54-0.05c0-0.02,0-0.03,0-0.05C15.99,21.2,16.01,21.06,16.23,21.03z"/>
			<path class="st38" d="M20.12,21.97c-0.03,0.04-0.07,0.09-0.1,0.13c-0.14,0.14-1.11,0.84-1.23,0.86c-0.01,0-0.04-0.05-0.04-0.05
				c0-0.04,0-0.04,0-0.08c0.42-0.24,0.85-0.65,1.27-0.86C20.06,21.95,20.12,21.86,20.12,21.97z"/>
			<path class="st13" d="M9.38,17.88c-0.02,0.13,0.04,1.23-0.06,1.24c-0.03-0.05-0.26-0.15-0.27-0.17c-0.03-0.06,0.02-1.04,0-1.26
				C9.16,17.76,9.26,17.82,9.38,17.88z"/>
			<path class="st13" d="M6.18,15.5c0,0.77,0,0.77,0,1.55c0,0.03,0,0.03,0,0.05c-0.06,0.03-0.37-0.32-0.38-0.34
				c-0.03-0.11,0.02-1.14,0-1.43C5.92,15.38,6.05,15.44,6.18,15.5z"/>
			<path class="st27" d="M16.26,18.64c-0.33-0.56,0.7-0.4-0.25-0.93c0.22-0.2,0.22-0.2,0.44-0.39c1.26-0.12,1.43-0.2,0.05-0.05
				c-0.08-0.07-0.13-0.19-0.14-0.2c0.31-0.24,0.9-0.02,0.71-0.38c0.09-0.05,0.27-0.31,0.36-0.41c0.3,0.18,0.3,0.18,0.61,0.37
				c-0.59,0.64-1.1,1.37-1.71,1.99C16.31,18.65,16.26,18.64,16.26,18.64z"/>
			<path class="st27" d="M17.48,16.26c0.12-0.14,0.4-0.56,0.66-0.86c0.09,0.06,0.61,0.32,0.61,0.39c-0.09,0.09-0.62,0.79-0.67,0.8
				C18.04,16.59,17.56,16.29,17.48,16.26z"/>
			<path class="st27" d="M18.75,14.73c0.33,0.17,0.33,0.17,0.66,0.34c-0.11,0.05-0.55,0.61-0.6,0.62c-0.06,0.01-0.52-0.28-0.62-0.33
				c0.01-0.01-0.03-0.03,0.18-0.27C18.48,14.97,18.63,14.86,18.75,14.73z"/>
			<path class="st13" d="M13.57,16.44c-0.06,0.06-0.1,0.05-0.1,0.05c-0.12-0.06-0.63-0.37-0.67-0.38c-0.07-0.01-0.7,0.04-1.33,0
				c0,0,0.01-0.05-0.01-0.05c-0.01,0-0.16,0.13-0.19,0.15c-0.04-0.11-0.6-0.18-0.65-0.23c-0.02-0.03,0.03-0.02,0.04-0.1
				c0.01-0.05-0.02-0.05-0.03-0.08c0.12,0.04,0.43,0.14,0.5,0.15c0.43,0.05,1.74-0.07,1.9-0.03C13.06,15.94,13.56,16.39,13.57,16.44
				z"/>
			<path class="st13" d="M14.4,16.69c0.02,0,0.05,0,0.08,0c0.81,0.63,0.9,0.22,1.73,0.23c0,0.04,0.03,0.09,0.05,0.13
				c-0.29,0.09-0.62,0.09-0.89,0.23c-0.03,0.01-0.1,0.05-0.1,0.05c-0.17-0.1-0.91-0.45-1.02-0.46c-0.03,0-0.12,0.04-0.13,0.05
				c-0.33-0.17-0.33-0.17-0.66-0.33c0.03-0.03,0.05-0.09,0.1-0.1C14.41,16.94,14.28,16.71,14.4,16.69z"/>
			<path class="st13" d="M7.02,14.02c0.7,0.3,1.35,0.7,2.03,1.04c0.01,0.06-0.06,0.08-0.13,0.13c-0.26-0.22-0.57-0.34-0.86-0.48
				c-0.01,0-0.04,0-0.05,0c-0.15-0.07-1.06-0.52-1.1-0.56c-0.02-0.02-0.01-0.05-0.01-0.08C6.99,14,7.01,14.03,7.02,14.02z"/>
			<path class="st13" d="M16.36,17.07c-0.04-0.06-0.12-0.11-0.15-0.18c0.04-0.07,0.72-0.12,0.86-0.2
				C17.26,17.05,16.67,16.83,16.36,17.07z"/>
			<path class="st13" d="M10.62,15.8c0,0.03,0.03,0.03,0.03,0.08c-0.09,0.04-0.07,0.1-0.08,0.1C10.53,16.01,10.5,16,10.49,16
				c-0.33-0.19-0.33-0.19-0.66-0.38c0.04-0.04,0.07-0.08,0.1-0.13C10.19,15.61,10.31,15.7,10.62,15.8z"/>
			<path class="st13" d="M9.86,15.5c-0.02,0.05-0.07,0.09-0.1,0.13c-0.37-0.22-0.37-0.22-0.74-0.43c0,0,0.03-0.05,0.08-0.08
				c0.02,0.01,0.03-0.03,0.04-0.03C9.36,15.2,9.64,15.39,9.86,15.5z"/>
			<path class="st43" d="M20.14,20.4c0.02,0.27,0.01,1.16,0,1.51c0,0.02,0.05,0.01,0.05,0.03c0,0.01-0.07,0.02-0.08,0.04
				c0-0.11-0.06-0.02-0.1,0c-0.14-0.4-0.05-0.91-0.18-1.35c0.1-0.14,0.18-0.39,0.2-0.56C20.12,20.15,20.13,20.28,20.14,20.4z"/>
			<path class="st27" d="M16,18.92c-0.16,0.15-0.28,0.27-0.46,0.41c-0.2-0.12-0.2-0.12-0.41-0.24c0.07-0.04,0.34-0.34,0.37-0.34
				C15.58,18.73,15.88,18.9,16,18.92z"/>
			<path class="st47" d="M17.1,20.07c-0.36,0.17-0.74,0.29-1.1,0.46c-0.13,0.06-0.36,0.17-0.42,0.25c0-0.05-0.04-0.09,0-0.15
				c0.06-0.1,1.01-0.4,1.07-0.61c0.12-0.06,0.11,0.22,0.33,0.06c-0.14-0.18-0.14-0.18-0.28-0.37C16.77,19.75,17.06,20.02,17.1,20.07
				z"/>
			<path class="st27" d="M15.5,19.36c-0.06,0.05-0.25,0.27-0.33,0.28c-0.2-0.1-0.2-0.1-0.41-0.19
				C15.11,19.06,15.08,19.12,15.5,19.36z"/>
			<g>
				<path class="st48" d="M16.23,21.03c-0.23,0.03-0.24,0.17-0.63-0.08c0-0.01-0.03-0.03-0.03-0.18c0.06-0.09,0.29-0.19,0.42-0.25
					c0.36-0.17,0.74-0.29,1.1-0.46c0.01,0.01,0.07,0.03,0.08,0.04c0.01,0.04,0,0.8-0.03,0.84C17.12,20.98,16.76,20.96,16.23,21.03z"
					/>
				<g>
					<path class="st49" d="M21.11,14.25c-0.2,0.47-1.1,3.11-1.17,3.47c-0.12,0.66,0.02,1.08,0.08,1.71
						c0.02,0.25,0.06,0.37,0.03,0.63c-0.02,0.17-0.1,0.42-0.2,0.56c-0.13,0.17-0.68,0.5-0.89,0.58c-0.24,0.06-0.45-0.09-0.67-0.13
						c-0.65-0.11-1.34-0.12-2.04-0.05c0.53-0.07,0.89-0.05,0.91-0.09c0.02-0.03,0.04-0.8,0.03-0.84c0-0.01-0.06-0.02-0.08-0.04
						c-0.04-0.05-0.32-0.32-0.41-0.36c-0.12-0.16-0.02,0.08-0.05,0.28c-0.19,0.08-1.03,0.53-1.16,0.51
						c-0.06-0.01-0.6-0.47-0.72-0.55c0.18-0.16,0.18-0.16,0.36-0.32c0.02,0,0.03,0,0.05,0c0.08-0.01,0.27-0.23,0.33-0.28
						c0,0,0.01,0.01,0.05-0.03c0.18-0.13,0.3-0.26,0.46-0.41c0.09-0.08,0.17-0.19,0.25-0.28c0.01-0.01,0.06,0.01,0.06,0
						c0.61-0.62,1.12-1.35,1.71-1.99c-0.3-0.18-0.3-0.18-0.61-0.37c0.03-0.04,0.05-0.02,0.05-0.03c0.08,0.03,0.56,0.33,0.6,0.33
						c0.05-0.01,0.58-0.71,0.67-0.8c0-0.07-0.52-0.33-0.61-0.39c0.03-0.04,0.05-0.02,0.05-0.03c0.1,0.05,0.56,0.34,0.62,0.33
						c0.04-0.01,0.48-0.57,0.6-0.62c-0.33-0.17-0.33-0.17-0.66-0.34c0,0-0.02-0.01,0.05-0.08c0.85,0.54,0.59,0.32,1.13,0.08
						C20.31,14.56,20.71,14.39,21.11,14.25z"/>
					<path class="st48" d="M17.27,19.2c0.01-0.05-0.03-0.07-0.05-0.1c0.57-0.22,0.91-0.63,0.9-0.1
						C17.83,19.04,17.56,19.14,17.27,19.2z"/>
					<path class="st37" d="M17.22,19.1c0.02,0.04,0.06,0.06,0.05,0.1c-0.82,0.19-1.03,0.24-0.19-0.25
						C17.17,18.94,17.19,19.04,17.22,19.1z"/>
					<path class="st50" d="M17.39,19.33c0.17,0.16,0.17,0.16,0.34,0.32C17.33,19.68,17,19.73,17.39,19.33z"/>
				</g>
				<path class="st37" d="M16.69,19.71c0.14,0.18,0.14,0.18,0.28,0.37c-0.22,0.15-0.21-0.12-0.33-0.06c0-0.01,0-0.02,0-0.03
					C16.67,19.79,16.57,19.55,16.69,19.71z"/>
			</g>
			<path class="st27" d="M14.33,19.76c-0.22,0.09-0.45,0.05-0.67,0.1c-0.77,0.18-1.03,0.41-1.09,0.41c-0.09,0-0.52-0.69-0.56-0.71
				c-0.11-0.06-1.16-0.11-1.21-0.19c-0.06-0.1-0.1-0.99-0.36-1.26c0.41,0.22,0.41,0.22,0.81,0.44c-0.33,0.42-0.24,0.39,0.06,0.01
				c0.14,0.11,1.07,0.55,1.05,0.67c-0.66,0.74,0.02-0.01,0.06-0.01c0.03,0,0.41,0.2,0.47,0.24c-0.66,1.06-0.02,0.03,0.04,0.01
				c0.06-0.02,0.51,0.18,0.58,0.15c0.03-0.01,0.26-0.38,0.28-0.38c0.04-0.01,0.59,0.24,0.71,0.23
				C14.42,19.62,14.42,19.62,14.33,19.76z"/>
			<path class="st27" d="M8.92,15.19c-0.06,0.04-0.44,0.3-0.47,0.3c-0.06,0-0.49-0.27-0.66-0.3c-0.74,0.65-0.35,0.5,0.5,1.03
				c0,0.03-0.28,0.32-0.36,0.47c-0.16-0.21-0.2-0.66-0.44-0.84c-0.13-0.09-1.02-0.4-1.12-0.48c-0.12-0.1-0.08-0.2-0.09-0.2
				c0.09-0.02,0.51-0.3,0.55-0.3c0.05,0,0.48,0.33,0.63,0.3c0.04-0.01,0.52-0.39,0.6-0.46C8.35,14.85,8.66,14.98,8.92,15.19z"/>
			<path class="st27" d="M9.05,17.25c-0.02,0.17-1.13-0.21-1.17-0.27c0-0.08-0.02-0.11,0-0.19c0.09,0,0.11-0.18,0.19-0.18
				C8.13,16.62,8.92,17.17,9.05,17.25z"/>
			<g>
				<path class="st27" d="M6.89,14.07c0,0.03-0.01,0.06,0.01,0.08c0.05,0.04,0.95,0.48,1.1,0.56c-0.1,0.05-0.55,0.43-0.6,0.43
					c-0.05,0-0.49-0.32-0.63-0.3c-0.22,0.03-0.36,0.5-0.86,0.05c-0.01,0.03-0.01,0.03-0.01,0.05c-0.01,0-0.08-0.03-0.15-0.08
					C6.13,14.61,6.52,14.35,6.89,14.07z"/>
				<path class="st29" d="M8.06,14.71c-0.08,0.07-0.56,0.45-0.6,0.46c-0.15,0.03-0.58-0.31-0.63-0.3c-0.03,0-0.46,0.28-0.55,0.3
					C6.24,15.13,6,15,5.9,14.94c0.01-0.03,0.01-0.03,0.01-0.05c0.5,0.45,0.64-0.02,0.86-0.05c0.14-0.02,0.58,0.31,0.63,0.3
					c0.05,0,0.49-0.38,0.6-0.43C8.02,14.71,8.05,14.7,8.06,14.71z"/>
			</g>
			<path class="st27" d="M13.46,16.49c-0.8,0.65-0.51,0.91-1.45,0.32c0-0.06,0.76-0.66,0.6-0.65c-0.2,0.18-1.42,1.42-1.55,1.42
				c-0.05,0-0.77-0.42-0.77-0.47c0.58-0.5,0.58-0.5,1.17-1c0.64,0.04,1.27-0.01,1.33,0C12.83,16.11,13.34,16.42,13.46,16.49z"/>
			<path class="st27" d="M9.02,15.19c0.37,0.22,0.37,0.22,0.74,0.43c-0.09,0.1-0.18,0.19-0.25,0.29c0.33,0.19,0.33,0.19,0.66,0.38
				c-0.06,0.06-0.39,0.52-0.42,0.52c-0.07,0.01-0.81-0.49-1.32-0.61c-0.08-0.04,0.2-0.37,0.33-0.53c1.15,0.43,0.31,0.08-0.24-0.17
				C8.51,15.48,8.96,15.23,9.02,15.19z"/>
			<path class="st27" d="M13.46,16.59c0.33,0.17,0.33,0.17,0.66,0.33c-0.04,0.03-0.55,0.65-0.65,0.66c-0.04,0-0.62-0.34-0.7-0.39
				C12.78,17.14,13.39,16.67,13.46,16.59z"/>
			<path class="st27" d="M15.27,17.32c-0.07,0.05-0.41,0.43-0.44,0.43c-0.05,0.01-0.77-0.48-0.88-0.55c0.15-0.17,0.15-0.17,0.3-0.34
				C14.36,16.87,15.09,17.23,15.27,17.32z"/>
			<path class="st27" d="M15.37,17.27c0.27-0.14,0.59-0.14,0.89-0.23c0.03,0.05,0.18,0.2,0.18,0.24c0,0.03-0.46,0.42-0.5,0.42
				C15.9,17.7,15.43,17.34,15.37,17.27z"/>
			<path class="st27" d="M10.49,16c-0.24,0.18-0.13,0.46-0.91-0.11c0.08-0.09,0.17-0.18,0.25-0.27C10.16,15.81,10.16,15.81,10.49,16
				z"/>
			<path class="st27" d="M11.26,16.21c-0.08,0.06-0.3,0.31-0.37,0.3c-0.03,0-0.4-0.28-0.47-0.32c-0.01-0.02,0.1-0.12,0.15-0.22
				c0-0.01-0.01-0.06,0.08-0.1c-0.01,0.08-0.06,0.07-0.04,0.1C10.65,16.03,11.22,16.1,11.26,16.21z"/>
			<g>
				<path class="st29" d="M9.1,15.12c-0.05,0.03-0.07,0.07-0.08,0.08c-0.06,0.04-0.51,0.29-0.51,0.32c0.55,0.24,1.4,0.59,0.24,0.17
					c-0.13,0.17-0.41,0.49-0.33,0.53c0.51,0.12,1.25,0.62,1.32,0.61c0.03,0,0.36-0.46,0.42-0.52c-0.33-0.19-0.33-0.19-0.66-0.38
					c0.08-0.1,0.17-0.2,0.25-0.29c0.04-0.04,0.08-0.08,0.1-0.13c0.02,0.01,0.06-0.01,0.08,0c-0.03,0.04-0.07,0.09-0.1,0.13
					c-0.08,0.09-0.17,0.18-0.25,0.27c0.79,0.58,0.67,0.29,0.91,0.11c0,0,0.04,0,0.08-0.03c-0.05,0.09-0.16,0.19-0.15,0.22
					c0.07,0.03,0.44,0.32,0.47,0.32c0.07,0.01,0.29-0.25,0.37-0.3c0.03-0.02,0.18-0.15,0.19-0.15c0.02,0,0.01,0.05,0.01,0.05
					c-0.58,0.5-0.58,0.5-1.17,1c0,0.05,0.73,0.47,0.77,0.47c0.13,0,1.35-1.25,1.55-1.42c0.16-0.01-0.6,0.59-0.6,0.65
					c0.93,0.59,0.65,0.34,1.45-0.32c0,0,0.04,0.01,0.1-0.05c0,0.03,0,0.03,0,0.05c-0.05,0.02-0.07,0.07-0.1,0.1
					c-0.08,0.09-0.69,0.55-0.69,0.6c0.08,0.06,0.66,0.4,0.7,0.39c0.1-0.01,0.61-0.63,0.65-0.66c0.01-0.01,0.1-0.05,0.13-0.05
					c-0.15,0.17-0.15,0.17-0.3,0.34c0.1,0.07,0.82,0.55,0.88,0.55c0.03,0,0.37-0.39,0.44-0.43c0,0,0.07-0.04,0.1-0.05
					c0.06,0.07,0.54,0.43,0.57,0.43c0.03,0,0.49-0.39,0.5-0.42c0-0.05-0.15-0.19-0.18-0.24c-0.02-0.04-0.05-0.09-0.05-0.13
					c0-0.01,0-0.01,0-0.03c0.04,0.07,0.11,0.12,0.15,0.18c0.01,0.01,0.06,0.14,0.14,0.2c1.38-0.15,1.21-0.07-0.05,0.05
					c-0.22,0.2-0.22,0.2-0.44,0.39c0.95,0.52-0.07,0.37,0.25,0.93c-0.08,0.09-0.17,0.2-0.25,0.28c-0.12-0.02-0.42-0.19-0.5-0.18
					c-0.02,0.01-0.3,0.31-0.37,0.34c0.2,0.12,0.2,0.12,0.41,0.24c-0.04,0.03-0.05,0.02-0.05,0.03c-0.42-0.23-0.39-0.29-0.74,0.09
					c0.2,0.1,0.2,0.1,0.41,0.19c-0.02,0-0.03,0-0.05,0c-0.04,0-0.35-0.17-0.44-0.15c-0.07,0.01-0.22,0.22-0.34,0.28
					c0.1-0.14,0.1-0.14,0.19-0.28c-0.12,0.02-0.67-0.24-0.71-0.23c-0.02,0-0.25,0.37-0.28,0.38c-0.08,0.02-0.52-0.17-0.58-0.15
					c-0.06,0.02-0.7,1.05-0.04-0.01c-0.06-0.04-0.44-0.25-0.47-0.24c-0.05,0.01-0.72,0.76-0.06,0.01c0.02-0.12-0.91-0.57-1.05-0.67
					c-0.3,0.38-0.39,0.4-0.06-0.01c-0.41-0.22-0.41-0.22-0.81-0.44c-0.06-0.06-1.18-0.73-1.4-0.86c-0.12-0.08-0.92-0.63-0.98-0.63
					c-0.08,0-0.11,0.17-0.19,0.18c0-0.02,0.04-0.07,0.05-0.1c0.07-0.15,0.36-0.44,0.36-0.47c-0.84-0.53-1.24-0.38-0.5-1.03
					c0.17,0.03,0.6,0.31,0.66,0.3c0.03,0,0.41-0.26,0.47-0.3c0.06-0.04,0.14-0.07,0.13-0.13C9.13,15.1,9.09,15.11,9.1,15.12z"/>
				<g>
					<path class="st27" d="M13.93,18.52c0.06-0.01,0.96,0.53,1.08,0.62c-0.08,0.05-0.34,0.31-0.37,0.32
						c-0.13,0.03-1.14-0.32-1.26-0.52C13.48,18.89,13.9,18.52,13.93,18.52z"/>
					<path class="st27" d="M7.79,15.24c0.45,0.21,0.45,0.21,0.9,0.42c-0.18,0.26-0.18,0.26-0.37,0.52
						C7.45,15.66,7.16,15.83,7.79,15.24z"/>
					<path class="st27" d="M10.23,17.15c0.05-0.01,0.7,0.42,0.8,0.47c-0.06,0.07-0.49,0.44-0.52,0.44c-0.1,0.01-0.65-0.37-0.77-0.44
						C9.83,17.57,10.19,17.15,10.23,17.15z"/>
					<path class="st27" d="M8.35,16.21c0.37,0.21,0.76,0.26,1.1,0.5c-0.09,0.04-0.54,0.37-0.57,0.37c-0.05,0-0.69-0.44-0.8-0.5
						C8.22,16.39,8.22,16.39,8.35,16.21z"/>
					<path class="st27" d="M12.94,18.75c0.4,0.25,0.4,0.25,0.8,0.5c-0.19,0.39-0.27,0.4-0.8,0.19
						C12.25,19.15,12.53,19.16,12.94,18.75z"/>
					<path class="st27" d="M9.49,16.71c0.04,0,0.6,0.37,0.7,0.42c-0.07,0.06-0.45,0.44-0.5,0.44c-0.08,0.01-0.65-0.4-0.75-0.5
						C9.03,17.05,9.46,16.72,9.49,16.71z"/>
					<path class="st27" d="M11.09,17.63c0.04,0,0.55,0.35,0.65,0.37c-0.49,0.68-0.4,0.55-1.17,0.1
						C10.63,18.03,11.06,17.63,11.09,17.63z"/>
					<path class="st27" d="M11.74,17.2c0.27,0.17,0.27,0.17,0.53,0.34c-0.07,0.05-0.44,0.47-0.47,0.47c-0.04,0-0.57-0.36-0.65-0.42
						C11.34,17.47,11.53,17.16,11.74,17.2z"/>
					<path class="st27" d="M10.35,16.21c0.03,0,0.5,0.33,0.5,0.37c-0.61,0.48-0.49,0.65-1,0.32C9.72,16.81,10.31,16.21,10.35,16.21z
						"/>
					<path class="st27" d="M12.33,17.55c0.04,0,0.57,0.31,0.65,0.37c-0.07,0.06-0.51,0.44-0.55,0.44c-0.03,0-0.51-0.31-0.57-0.37
						C11.93,17.95,12.3,17.56,12.33,17.55z"/>
					<path class="st27" d="M11.83,18.03c0.03,0,0.46,0.32,0.55,0.34c-0.46,0.46-0.45,0.57-1.02,0.15
						C11.41,18.46,11.79,18.04,11.83,18.03z"/>
					<path class="st27" d="M15.48,18.14c0.05-0.01,0.82,0.29,0.7,0.5c-0.18,0.45-0.73-0.01-1.04-0.18
						C15.14,18.43,15.46,18.14,15.48,18.14z"/>
					<path class="st27" d="M15.33,17.35c0.04-0.01,0.5,0.33,0.57,0.39c-0.08,0.03-0.37,0.34-0.39,0.34
						c-0.06,0.01-0.62-0.28-0.62-0.32C14.95,17.71,15.3,17.35,15.33,17.35z"/>
					<path class="st27" d="M13.05,17.93c0.03,0,0.43,0.23,0.42,0.29c-0.52,0.43-0.44,0.61-0.96,0.15
						C12.59,18.33,13.01,17.94,13.05,17.93z"/>
					<path class="st27" d="M12.41,18.44c0.1-0.02,0.38,0.21,0.47,0.27c0.01,0.03-0.41,0.44-0.44,0.44c-0.04,0.01-0.49-0.26-0.5-0.29
						C11.94,18.83,12.38,18.45,12.41,18.44z"/>
					<path class="st27" d="M14.44,18.11c0.03,0,0.5,0.31,0.57,0.37c-0.08,0.05-0.39,0.34-0.42,0.34c-0.06,0.01-0.48-0.28-0.57-0.34
						C14.07,18.43,14.41,18.11,14.44,18.11z"/>
					<path class="st27" d="M12.72,17.22c0.04,0,0.63,0.32,0.7,0.39c-0.47,0.4-0.4,0.25-1.04-0.1
						C12.44,17.49,12.69,17.22,12.72,17.22z"/>
					<path class="st27" d="M11.74,17.2c-0.14-0.04,0.22-0.35,0.24-0.36c0.04,0,0.59,0.32,0.67,0.37
						C12.22,17.76,12.15,17.27,11.74,17.2z"/>
					<path class="st27" d="M13.53,18.24c0.04-0.01,0.38,0.22,0.37,0.27c-0.38,0.2-0.55,0.66-0.89,0.18
						C13.09,18.64,13.49,18.24,13.53,18.24z"/>
					<path class="st27" d="M14.82,17.81c0.03-0.01,0.49,0.26,0.57,0.32c-0.38,0.45-0.36,0.3-0.86-0.03
						C14.53,18.07,14.8,17.81,14.82,17.81z"/>
					<path class="st27" d="M15.97,17.76c0.02,0,0.35,0.24,0.42,0.27c-0.25,0.53-0.41,0.23-0.84,0.1
						C15.59,18.06,15.94,17.76,15.97,17.76z"/>
					<path class="st27" d="M15.08,18.49c0.03,0,0.4,0.21,0.39,0.24c-0.41,0.33-0.31,0.48-0.81,0.1
						C14.74,18.79,15.05,18.49,15.08,18.49z"/>
					<path class="st27" d="M13.64,18.11c0.35-0.15,0.16-0.43,0.74-0.01c-0.43,0.35-0.33,0.46-0.79,0.1
						C13.66,18.15,13.64,18.12,13.64,18.11z"/>
					<path class="st27" d="M13.64,18.11c-0.21,0.09-0.29-0.07-0.53-0.22c0.12-0.07,0.32-0.28,0.44-0.27
						C14.13,17.96,13.79,17.81,13.64,18.11z"/>
					<path class="st27" d="M14.34,17.53c0.04,0,0.35,0.2,0.42,0.24c-0.35,0.45-0.32,0.28-0.76,0.05
						C14.06,17.78,14.32,17.53,14.34,17.53z"/>
					<path class="st27" d="M13.88,17.27c0.1-0.02,0.29,0.16,0.39,0.22c0.01,0.03-0.32,0.32-0.34,0.32c-0.02,0-0.32-0.18-0.37-0.22
						C13.56,17.56,13.86,17.28,13.88,17.27z"/>
				</g>
			</g>
		</g>
		<g>
			<path class="st25" d="M13.59,12.8c-0.03-0.01-0.45,0-0.48-0.33c0.05-0.01,0.05-0.01,0.1-0.03c0.03,0.34,0.67,0.29,0.3-0.18
				C13.79,12.35,13.83,12.65,13.59,12.8z"/>
			<path class="st16" d="M13.52,12.27c0.37,0.47-0.27,0.51-0.3,0.18C13.19,12.24,13.34,12.22,13.52,12.27z"/>
			<g>
				<path class="st51" d="M13.64,12.25c0.39,0.42-0.06,0.28,0.52,0.66c0.73,0.48,0.48,0.12,0.76,0.05c0.36-0.09,0.6,0.16,0.48,0.51
					c1.5,0.71,1.5,0.71,3,1.42c0.13,0.09-0.04,0.13-0.11,0.23c-0.99-0.54-2.04-0.98-3.05-1.49c0.23-0.18-0.04-0.02-0.06-0.01
					c-0.44,0.05-1.16-0.6-1.59-0.81c0.24-0.16,0.19-0.46-0.08-0.53c-0.17-0.05-0.32-0.03-0.3,0.18c-0.05,0.01-0.05,0.01-0.1,0.03
					C13.08,12.15,13.41,12.1,13.64,12.25z"/>
				<path class="st25" d="M15.32,13.39c-0.1-0.1,0.02-0.24-0.24-0.33c-0.36,0.12,0.09,0.31-0.04,0.41
					c-0.55-0.09,0.05-0.93,0.36-0.19C15.36,13.33,15.36,13.33,15.32,13.39z"/>
				<path class="st17" d="M15.32,13.39c-0.04,0.09-0.2,0.09-0.28,0.08c0.12-0.09-0.33-0.29,0.04-0.41
					C15.34,13.15,15.22,13.29,15.32,13.39z"/>
			</g>
		</g>
	</g>
</g>
</svg>
