<?xml version="1.0" encoding="utf-8"?>
<!-- Generator: Adobe Illustrator 28.3.0, SVG Export Plug-In . SVG Version: 6.00 Build 0)  -->
<svg version="1.1" id="Layer_1" xmlns="http://www.w3.org/2000/svg" xmlns:xlink="http://www.w3.org/1999/xlink" x="0px" y="0px"
	 viewBox="0 0 25 25" style="enable-background:new 0 0 25 25;" xml:space="preserve">
<style type="text/css">
	.st0{display:none;}
	.st1{display:inline;fill:url(#SVGID_1_);}
	.st2{display:inline;fill:#789480;}
	.st3{fill:#1A1E11;}
	.st4{fill:#202814;}
	.st5{fill:url(#SVGID_00000111894872856912300280000007229691149420364207_);}
	.st6{fill:#035D6F;}
	.st7{fill:#A8979F;}
	.st8{fill:#BEB3B6;}
	.st9{fill:#7B6670;}
	.st10{fill:#8B7780;}
	.st11{fill:#9ACABE;}
	.st12{fill:url(#SVGID_00000118377102734557556090000003874061671342525835_);}
	.st13{fill:url(#SVGID_00000024696110667078581400000017486937615047291274_);}
	.st14{fill:#4B8964;}
	.st15{fill:#F2F1EC;}
	.st16{fill:#595A55;}
	.st17{fill:#767571;}
	.st18{fill:url(#SVGID_00000013891404885058488530000011706737739895573924_);}
	.st19{fill:#464F22;}
	.st20{fill:#2F3718;}
	.st21{fill:#2C2A15;}
	.st22{fill:#615C26;}
	.st23{fill:#8A7E30;}
	.st24{fill:url(#SVGID_00000065034783268458338250000009194036148257798310_);}
	.st25{fill:#AEB24D;}
	.st26{fill:#627232;}
	.st27{fill:#C2852B;}
	.st28{fill:#965328;}
	.st29{fill:#804121;}
	.st30{fill:#A16127;}
	.st31{fill:#EEBF46;}
	.st32{fill:#DDD9D0;}
	.st33{fill:#B3622A;}
	.st34{fill:#B6A297;}
	.st35{fill:#989234;}
	.st36{fill:#94793F;}
	.st37{fill:#C04827;}
	.st38{fill:#56190A;}
	.st39{fill:#1E190F;}
	.st40{fill:#6D1A12;}
	.st41{fill:#32190E;}
	.st42{fill:#C0593B;}
	.st43{fill:#302110;}
	.st44{fill:#ED8C56;}
	.st45{fill:#E87624;}
	.st46{fill:#23140C;}
	.st47{fill:#9B3821;}
	.st48{fill:#DF6326;}
	.st49{fill:#AC5226;}
	.st50{fill:#6D3014;}
</style>
<g>
	<g id="Background_00000058572824810672955810000000509034819753165454_" class="st0">
		<linearGradient id="SVGID_1_" gradientUnits="userSpaceOnUse" x1="27.4058" y1="12.2804" x2="-0.833" y2="12.7192">
			<stop  offset="0" style="stop-color:#C1B9B7"/>
			<stop  offset="0.1338" style="stop-color:#EAE9E9"/>
			<stop  offset="0.916" style="stop-color:#E9E9EA"/>
			<stop  offset="1" style="stop-color:#C7BFBD"/>
		</linearGradient>
		<path class="st1" d="M-1.27,1.6c9.59-0.08,19.18,0.06,28.77,0c0,10.9,0,10.9,0,21.8c-9.44-0.05-18.89,0.06-28.33,0
			C-0.96,16.14-0.96,8.86-1.27,1.6z"/>
		<path class="st2" d="M-1.27,1.6c0.31,7.26,0.31,14.53,0.44,21.8c-0.56,0-1.11,0-1.67,0c0-10.9,0-10.9,0-21.8
			C-2.09,1.6-1.68,1.61-1.27,1.6z"/>
	</g>
	<g>
		<g>
			<path class="st3" d="M17.3,11.56c0,0-0.01,0-0.03,0.03c-0.2,0.24-0.46,0.12-0.53,0.23c-0.02,0.03-0.15,0.76-0.38,0.12
				c0-0.01,0-0.02,0-0.03c0.24,0.03,0.16-0.76,0.32-1.17c0.16-0.42,0.39,0.1,0.28-0.29C17.5,10.6,17.35,11.11,17.3,11.56z"/>
			<path class="st4" d="M16.69,10.74c-0.16,0.41-0.08,1.2-0.32,1.17c-0.05-0.16-0.03-0.3-0.12-0.38c0.14-0.22,0.04-0.86,0.06-1.08
				c0,0,0.06-0.02,0.06-0.04c0.02-0.23-0.04-0.51,0.04-0.51C16.49,9.89,16.68,10.64,16.69,10.74z"/>
		</g>
		<g>
			<g>
				
					<linearGradient id="SVGID_00000120545827016332609960000000094280530435643048_" gradientUnits="userSpaceOnUse" x1="12.4643" y1="14.4291" x2="12.7034" y2="18.4944">
					<stop  offset="0" style="stop-color:#85B2B6"/>
					<stop  offset="1" style="stop-color:#007E83"/>
				</linearGradient>
				<path style="fill:url(#SVGID_00000120545827016332609960000000094280530435643048_);" d="M21.52,17.25
					c-0.98-0.56-1.23,0.26-1.71,0.44c-0.05,0.02-1.06,0.26-1.11,0.26c-0.09,0.01-0.55-0.09-0.59-0.09c-0.13,0.01-2.03,0.8-2.45,0.85
					c-0.03-0.01-0.09-0.02-0.12-0.03c-0.08-0.03-0.15-0.06-0.23-0.09c-0.12-0.03-0.25-0.07-0.38-0.09c-0.28-0.08-0.53-0.2-0.79-0.32
					c-1.19-1.03-1.98-0.35-2.09-0.35c-0.07,0-0.43-0.34-1.29-0.59c-0.02-0.01,0-0.05-0.03-0.06c-0.78-0.21-1.53-0.15-2.26,0.21
					c-0.54,0.26-1.16,0.93-1.64,0.82c-0.25-0.06-1.69-1.72-2.17-1.85c-0.51-0.14-1.05,0.29-1.48,0.53
					c-0.51-0.64-0.95-1.34-1.25-2.11c10.55,0,10.55,0,21.09,0C22.73,15.71,22.14,16.51,21.52,17.25z"/>
				<path class="st6" d="M21.52,17.25c-0.84,1-1.81,1.83-2.93,2.49c-0.61-0.37-1.59-0.65-2.29-0.67c-0.21-0.11-0.42-0.26-0.64-0.35
					c0.41-0.05,2.32-0.84,2.45-0.85c0.03,0,0.49,0.09,0.59,0.09c0.06,0,1.06-0.24,1.11-0.26C20.3,17.51,20.54,16.69,21.52,17.25z"/>
			</g>
			<g>
				<path class="st7" d="M15.31,18.6c0.09,0.02,0.15,0.06,0.23,0.09c-0.25,0.11-0.61,0.1-0.89,0.26c-0.64-0.13-0.3,0.41-1.05,0.38
					c-0.01,0-0.08-0.09-0.26-0.09c-0.07,0-0.51,0.13-0.67,0.12c-0.22-0.02-0.04-0.23-0.7,0c-0.04,0.02-0.17-0.02-0.21,0
					c-0.24,0.1-0.49,0.74-0.53,0.76c-0.14,0.07-0.45,0-0.59,0.03c-0.16,0.04-0.62,0.76-2.24,0.53c-0.83-0.3-1.61-0.72-2.34-1.2
					c-0.02-0.12,0.18-0.02,0.22-0.03c0.33-0.11,0.82-0.94,1.38-0.15c0.38-0.99,0.32,0.1,1.2-0.12c0.08-0.25,0.08-0.25,0.16-0.5
					c0.13-0.03,0.18-0.09,0.19-0.09c0.13-0.01,0.09,0.05,0.13,0.06c0.22,0.54,0.74,0.41,0.81,0.44c0.09,0.03,0.24,0.6,0.5,0.53
					c0.52-0.65,0.31-0.33,0.64-0.32c0.44,0.01,0.45-0.13,0.59-0.5c0.31,0.12,0.58,0.16,0.82,0.23c0.03,0.01,0,0.08,0.03,0.09
					c0.05,0.01,0.25-0.14,0.26-0.15c0.17-0.04,0.35-0.02,0.41-0.03c0.09-0.02,0.26-0.11,0.29-0.12c0.34-0.06,1.07-0.09,1.17-0.12
					C15.04,18.67,14.85,18.54,15.31,18.6z"/>
				<path class="st8" d="M14.14,18.19c0.26,0.12,0.51,0.25,0.79,0.32c-0.44-0.06-0.4,0-0.42,0c-0.08,0-0.47-0.03-0.5-0.03
					c-0.2,0.03-0.95,0.35-1.14,0.26c-0.08-0.03-0.02-0.24-0.21-0.26c-0.61,0.41-0.66,0.22-0.76,0.23c-0.08,0.01-0.31,0.12-0.35,0.12
					c-0.08,0-0.23-0.14-0.41-0.12c-0.1,0.01-0.67,0.38-0.76,0.38c-0.1,0.01-0.35-0.24-1.04-0.44c-0.05-0.01,0-0.07-0.13-0.06
					c-0.01,0-0.06,0.06-0.19,0.09c-0.08,0.02-0.21,0.11-0.37,0.06c-0.11-0.04-0.25-0.26-0.32-0.26c-0.04,0-0.13,0.11-0.15,0.12
					c-0.68,0.19-0.46,0.28-0.57,0.4c-0.19,0.2-0.3-0.26-0.51-0.31c-0.59-0.14-0.8,0.13-0.88,0.12c-0.29-0.3-1.06-0.47-1.42-0.29
					c-0.48-0.41-0.9-0.81-1.32-1.29c0.15-0.01,0.39,0.25,0.42,0.26c0.28,0.08,0.97-0.16,1.05-0.15c0.05,0.01,0.66,0.51,0.85,0.62
					c0.05,0.03,0.58,0.28,0.62,0.29c0.25,0.08,1.02,0.05,1.29-0.06c0.57-0.26,0.26-0.35,0.47-0.53c0.93-0.01,0.73,0.44,1.26,0.26
					c0.24,0.69,0.35,0.06,1.11,0.64c0.09-0.57,0.09-0.31,0.91-0.44c0.17-0.03,0.39-0.14,0.41-0.15c0.11-0.01,1.33,0.02,1.64,0.03
					c0.11,0,0.19-0.09,0.21-0.09C13.74,17.92,13.89,18.07,14.14,18.19z"/>
				<path class="st9" d="M16.31,19.06c0.7,0.03,1.68,0.31,2.29,0.67c-1.68,0.99-3.41,1.53-5.36,1.64c0.26-0.6,0.83-0.99,1.14-1.52
					c0.69,0.15,0.52-0.46,0.78-0.62C15.35,19.12,16.06,19.06,16.31,19.06z"/>
				<path class="st8" d="M14.14,18.19c-0.25-0.11-0.4-0.26-0.42-0.26c-0.01,0-0.1,0.09-0.21,0.09c-0.31-0.01-1.53-0.04-1.64-0.03
					c-0.02,0-0.24,0.12-0.41,0.15c-0.82,0.13-0.82-0.13-0.91,0.44c-0.76-0.58-0.87,0.04-1.11-0.64c-0.53,0.18-0.33-0.28-1.26-0.26
					c-0.21,0.18,0.11,0.27-0.47,0.53c-0.27,0.11-1.04,0.13-1.29,0.06c-0.03-0.01-0.56-0.26-0.62-0.29c-0.19-0.11-0.8-0.61-0.85-0.62
					c-0.08-0.02-0.77,0.22-1.05,0.15c-0.03-0.01-0.27-0.28-0.42-0.26c-0.1-0.11-0.2-0.21-0.29-0.32c0.43-0.24,0.97-0.67,1.48-0.53
					c0.48,0.13,1.92,1.79,2.17,1.85c0.48,0.11,1.1-0.56,1.64-0.82c0.73-0.35,1.47-0.42,2.26-0.21c0.02,0.01,0,0.05,0.03,0.06
					c0.86,0.25,1.22,0.59,1.29,0.59C12.16,17.83,12.95,17.16,14.14,18.19z"/>
				<path class="st7" d="M15.55,18.68c0.03,0.01,0.09,0.02,0.12,0.03c0.22,0.09,0.43,0.24,0.64,0.35c-0.25-0.01-0.96,0.05-1.16,0.18
					c-0.25,0.16-0.08,0.76-0.78,0.62c-0.27-0.06-0.26-0.17-0.28-0.18c-0.07-0.03-0.07,0.08-0.15,0.09
					c-0.09,0.01-0.66-0.17-0.76-0.15c-0.12,0.03-0.33,0.63-0.42,0.79c-0.72,0.64-0.68,0.09-1.07-0.47c-0.04-0.01-0.53,0.4-0.6,0.51
					c-0.1,0.16-0.25,0.72-0.54,0.6c-0.01-0.01-0.01-0.1-0.09-0.12c-0.23-0.05-0.91-0.1-0.89,0.09c-0.39-0.1-0.79-0.21-1.17-0.35
					c1.62,0.24,2.08-0.49,2.24-0.53c0.14-0.03,0.44,0.04,0.59-0.03c0.04-0.02,0.29-0.66,0.53-0.76c0.04-0.02,0.16,0.02,0.21,0
					c0.66-0.23,0.48-0.02,0.7,0c0.16,0.01,0.61-0.12,0.67-0.12c0.18,0,0.25,0.09,0.26,0.09c0.75,0.03,0.41-0.51,1.05-0.38
					C14.94,18.78,15.29,18.8,15.55,18.68z"/>
				<path class="st10" d="M14.38,19.86c-0.31,0.54-0.89,0.93-1.14,1.52c-0.47,0.03-0.93,0.03-1.41,0c0.3-0.35,0.71-0.59,0.94-0.97
					c0.09-0.16,0.31-0.76,0.42-0.79c0.1-0.02,0.67,0.15,0.76,0.15c0.07-0.01,0.07-0.12,0.15-0.09
					C14.11,19.69,14.11,19.8,14.38,19.86z"/>
				<path class="st7" d="M9.01,18.68c-0.08,0.25-0.08,0.25-0.16,0.5c-0.88,0.21-0.82-0.87-1.2,0.12c-0.56-0.8-1.05,0.03-1.38,0.15
					c-0.04,0.01-0.24-0.1-0.22,0.03c-0.5-0.33-0.81-0.58-1.26-0.97c0.36-0.18,1.13-0.01,1.42,0.29c0.08,0.01,0.29-0.26,0.88-0.12
					c0.22,0.05,0.32,0.5,0.51,0.31c0.11-0.11-0.1-0.2,0.57-0.4c0.01,0,0.11-0.12,0.15-0.12c0.08,0,0.21,0.23,0.32,0.26
					C8.8,18.79,8.93,18.7,9.01,18.68z"/>
				<path class="st10" d="M12.76,20.41c-0.22,0.38-0.64,0.62-0.94,0.97c-0.77-0.04-1.51-0.17-2.26-0.35
					c-0.01-0.19,0.66-0.14,0.89-0.09c0.08,0.02,0.07,0.11,0.09,0.12c0.29,0.12,0.44-0.44,0.54-0.6c0.07-0.12,0.56-0.52,0.6-0.51
					C12.08,20.5,12.05,21.05,12.76,20.41z"/>
				<path class="st7" d="M14.93,18.51c0.13,0.02,0.26,0.05,0.38,0.09c-0.47-0.06-0.27,0.07-0.45,0.12c-0.1,0.03-0.83,0.05-1.17,0.12
					c-0.03,0.01-0.21,0.1-0.29,0.12c-0.06,0.01-0.24-0.01-0.41,0.03c-0.01,0-0.21,0.16-0.26,0.15c-0.03-0.01,0-0.08-0.03-0.09
					c-0.24-0.08-0.51-0.11-0.82-0.23c-0.14,0.36-0.15,0.51-0.59,0.5c-0.34-0.01-0.12-0.33-0.64,0.32c-0.26,0.07-0.41-0.49-0.5-0.53
					c-0.07-0.03-0.58,0.1-0.81-0.44c0.69,0.19,0.94,0.44,1.04,0.44c0.09,0,0.66-0.37,0.76-0.38c0.18-0.02,0.33,0.12,0.41,0.12
					c0.05,0,0.27-0.11,0.35-0.12c0.1-0.01,0.15,0.17,0.76-0.23c0.18,0.02,0.13,0.23,0.21,0.26c0.19,0.09,0.94-0.23,1.14-0.26
					c0.02,0,0.42,0.03,0.5,0.03C14.53,18.51,14.49,18.45,14.93,18.51z"/>
			</g>
		</g>
		<g>
			<g>
				<path class="st11" d="M10.74,7.79c0.19,0.26,0.38-0.04,0.42,0.44c0.43-0.09,1.07,0.57,1.48,0.5c0.08,0.17,0.42,0.17,0.51,0.35
					c0.82-0.19,0.74,0.51,1.52-0.35c0.79,0.35,0.71,0.11,0.82,0.12c0.11,0,0.15,0.26,0.59-0.09c0.19,0.35,0.43,0.11,0.62,0.18
					c0.02,0.01,0.21,0.29,0.23,0.29c0.03,0.01,0.63-0.15,0.7-0.18c0.09-0.03,0.04-0.2,0.41-0.21c0.43-0.01,0.32,0.22,0.41,0.23
					c0.02,0,0.21-0.16,0.35-0.15c0.01,0,0.21,0.11,0.26,0.12c0.07,0.01,0.16-0.02,0.29,0c0.03,0.01,0.28,0.14,0.32,0.15
					c0.14,0.01,0.19-0.08,0.35-0.06c0.02,0,0.22,0.12,0.23,0.12c0.01,0,0.17-0.13,0.23-0.15c0.11-0.02,0.19,0.04,0.23,0.03
					c0.02,0,0.19-0.11,0.21-0.12c0.25-0.03,0.42,0.06,0.44,0.06c0.05,0,0.18-0.17,0.44-0.09c0.14,0.04,0.26,0.38,0.83,0.18
					c0,0,0.01-0.01,0.03,0.03c-0.57,0.26-0.79-0.15-0.89-0.18c-0.24-0.06-0.38,0.12-0.41,0.12c-0.02,0-0.19-0.12-0.38-0.09
					c-0.1,0.01-0.19,0.11-0.21,0.12c-0.09,0.02-0.19-0.02-0.32,0c-0.05,0.01-0.17,0.12-0.18,0.12c-0.08,0.01-0.29-0.12-0.32-0.12
					c-0.05,0-0.21,0.09-0.26,0.09c-0.11,0-0.45-0.28-0.63-0.1c0.56,0.75,0.64,0.55,0.78,0.63c0.03,0.02,0.26,0.35,0.53,0.26
					c0.09-0.03-0.03-0.24,0.41-0.21c0.11,0.01,0.26,0.1,0.35,0.12c0.08,0.02,0.24-0.21,0.35,0.21c0.46-0.19,0.33,0.08,0.41,0.12
					c0.05,0.02,0.23-0.09,0.73,0.23c0.14,0.09,0.15,0.33,0.6,0.29c0.18,0.77,0.31,1.54,0.26,2.34c-0.14-0.02-1.28-0.06-1.35-0.06
					c0.12-0.2-0.77-0.31-1.27-0.47c-0.97-0.3-1.89-0.74-2.87-1.03c-0.05-0.07,0.04-0.96-0.22-1.07c-0.08,0.67-0.06-0.22-0.31-0.48
					c-0.11,0.03-0.01,1.21-0.19,1.52c0.05-0.45,0.2-0.96-0.34-1.11c0.11,0.4-0.12-0.13-0.28,0.29c-0.01-0.11-0.2-0.85-0.28-0.85
					c-0.08,0-0.03,0.28-0.04,0.51c0,0.02-0.06,0.04-0.06,0.04c-0.08-0.01-0.18-0.02-0.26-0.03c-0.26-0.05-0.53-0.1-0.79-0.15
					c-0.22-0.57-0.16-1.22-0.29-0.09c0,0.04-0.18,0.04-0.26,0.03c-0.02,0-0.04,0-0.06,0c-0.01,0,0.05-0.03-0.29-0.06
					c-0.05,0-0.07-0.03-0.12-0.03c-0.37-0.35-0.32-0.22-0.41-0.21c-0.32-0.11-1.93,0.04-2.15,0.15c-0.09,0.04-0.06,0.05-0.07,0.09
					c-0.01,0.02,0.01,0.08,0,0.12c-0.03,0.13-0.06,0.26,0,0.38c-0.05,0.01-0.05,0.06-0.06,0.06c-0.1,0.05-0.3,0.26-0.32,0.26
					c-0.06,0.02-0.11,0.05-0.18,0.01c0-0.66,0-0.66,0-1.32c-0.43-0.27,0.01,1.55-0.35,1.29c0.04-1.84-0.18-1.58-0.25,0.04
					c-0.3,0.13,0.01-0.78-0.21-1.08c-0.18,0.6,0.02,1.29-0.4,1.13c0.01-0.92-0.2-0.83-0.18,0.03c-0.35,0.22,0.05-1.1-0.29-0.91
					c-0.04,0.45-0.04,0.45-0.07,0.89c-0.63-0.35,0.06,0.21-0.7,0.21c-0.09-0.06,0.13-0.2-0.16-0.23c-0.07-0.01-0.14,0.01-0.21,0
					C8.19,10.69,8.2,10.34,8.16,10c-0.21-0.26-0.15,0.48-0.23,1.04c-0.1,0.02-0.2,0.06-0.29,0.09c-0.12,0.03-0.24,0.06-0.35,0.09
					c-0.37,0.1-0.75,0.19-1.11,0.29c-0.07,0.02-0.14,0.04-0.21,0.06c-0.34,0.1-0.66,0.21-1,0.32c-0.44,0.15-0.87,0.31-1.3,0.47
					c-0.32,0.12-0.85,0.4-1.13,0.5c-0.54,0.19-0.74,0.19-1,0.26c-0.05-2.09,0.43-3.75,1.64-5.45C3.19,7.7,3.19,7.7,3.2,7.73
					C3.57,7.7,4.01,7.81,4.43,7.79c0.06,0.04,0.49,0.17,0.53,0.03c0.51,0.05,1.24,0,1.7,0.03c0.02,0,0.01,0.06,0.03,0.06
					c0.1,0.01,0.39-0.01,0.53,0c0.16,0.11,0.53,0.07,0.73,0.18C8.26,8.04,8.63,8.19,9,8.14c0.02,0,0.01,0.06,0.03,0.06
					C9.39,8.21,10.62,8.14,10.74,7.79z"/>
				
					<linearGradient id="SVGID_00000150809871120667119860000013750679678040860825_" gradientUnits="userSpaceOnUse" x1="6.5229" y1="5.3357" x2="7.0742" y2="8.3323">
					<stop  offset="0" style="stop-color:#6FAA8A"/>
					<stop  offset="1" style="stop-color:#A0CEC1"/>
				</linearGradient>
				<path style="fill:url(#SVGID_00000150809871120667119860000013750679678040860825_);" d="M10.74,7.79
					C10.62,8.14,9.39,8.21,9.03,8.2C9.01,8.19,9.02,8.14,9,8.14c-0.37,0.06-0.74-0.1-1.05-0.06C7.75,7.97,7.37,8.01,7.21,7.9
					c-0.14-0.01-0.42,0.01-0.53,0c-0.02,0-0.01-0.06-0.03-0.06c-0.46-0.03-1.19,0.02-1.7-0.03C4.92,7.96,4.48,7.83,4.43,7.79
					C4.01,7.81,3.57,7.7,3.2,7.73C3.19,7.7,3.19,7.7,3.18,7.67c0.5-0.7,1.21-1.55,1.9-2.05C6.21,4.81,6.36,5.33,6.6,5.41
					c0.27,0.09,0.48-0.22,1,0.82c0.14,0.02,1.05,0.63,1.07,0.69C8.69,7,8.63,7.32,8.68,7.38c0.01,0.02,0.33,0.06,0.41,0.09
					C9.18,7.5,9.33,7.64,9.35,7.64c0.06,0,0.12-0.19,0.5-0.15c0.04,0,0.17,0.12,0.21,0.12c0.01,0,0.11-0.11,0.21-0.12
					C10.7,7.44,10.72,7.76,10.74,7.79z"/>
				<g>
					
						<linearGradient id="SVGID_00000117665313517720388460000013909265597298223528_" gradientUnits="userSpaceOnUse" x1="18.6408" y1="6.7573" x2="17.0164" y2="10.3634">
						<stop  offset="0" style="stop-color:#2A6E4F"/>
						<stop  offset="1" style="stop-color:#75AA8C"/>
					</linearGradient>
					<path style="fill:url(#SVGID_00000117665313517720388460000013909265597298223528_);" d="M22.11,8.17
						c0.17,0.15,0.45,0.77,0.56,1c-0.57,0.2-0.7-0.13-0.83-0.18c-0.26-0.08-0.39,0.08-0.44,0.09c-0.02,0-0.19-0.09-0.44-0.06
						c-0.02,0-0.18,0.11-0.21,0.12c-0.05,0.01-0.12-0.05-0.23-0.03c-0.06,0.01-0.22,0.15-0.23,0.15c-0.01,0-0.22-0.12-0.23-0.12
						c-0.16-0.02-0.21,0.07-0.35,0.06c-0.04,0-0.29-0.14-0.32-0.15c-0.14-0.02-0.23,0.01-0.29,0c-0.05-0.01-0.25-0.12-0.26-0.12
						c-0.14-0.01-0.33,0.15-0.35,0.15c-0.09-0.02,0.02-0.24-0.41-0.23c-0.37,0.01-0.32,0.17-0.41,0.21
						c-0.08,0.03-0.67,0.19-0.7,0.18c-0.02-0.01-0.22-0.29-0.23-0.29c-0.19-0.07-0.42,0.18-0.62-0.18
						c-0.44,0.35-0.48,0.09-0.59,0.09c-0.11,0-0.03,0.24-0.82-0.12c-0.79,0.86-0.7,0.16-1.52,0.35c-0.09-0.18-0.43-0.19-0.51-0.35
						c0.27-0.05,1.78-1.18,2.15-1.29c0.23-0.07,0.91-0.12,1.11,0c0.11,0.07,0.24,0.34,0.26,0.35c0.07,0.04,0.31,0.01,0.35,0.03
						c0.13,0.04,0.53,0.26,0.56,0.26c0.02,0,0.19-0.08,0.38-0.03c0.08,0.02,0.41,0.3,0.53,0.29c0.04,0,0.51-0.3,0.76-0.41
						c0.35-0.16,0.73-0.24,0.76-0.26c0.21-0.12,0.41-0.94,1.26-0.26c0.27,0.21,0.43,0.57,0.47,0.59
						C21.44,8.07,21.78,7.88,22.11,8.17z"/>
					<path class="st14" d="M22.7,9.19c0.27,0.58,0.41,0.99,0.56,1.61c-0.45,0.04-0.46-0.2-0.6-0.29c-0.51-0.33-0.68-0.21-0.73-0.23
						c-0.08-0.04,0.05-0.31-0.41-0.12c-0.11-0.42-0.27-0.19-0.35-0.21c-0.09-0.02-0.24-0.11-0.35-0.12
						c-0.44-0.04-0.32,0.18-0.41,0.21c-0.26,0.08-0.5-0.25-0.53-0.26c-0.14-0.08-0.21,0.13-0.78-0.63c0.18-0.18,0.52,0.1,0.63,0.1
						c0.05,0,0.21-0.09,0.26-0.09c0.03,0,0.24,0.13,0.32,0.12c0.01,0,0.13-0.11,0.18-0.12c0.13-0.02,0.24,0.02,0.32,0
						c0.01,0,0.11-0.1,0.21-0.12c0.19-0.03,0.36,0.09,0.38,0.09c0.03,0,0.17-0.17,0.41-0.12C21.91,9.04,22.12,9.46,22.7,9.19z"/>
				</g>
			</g>
			<g>
				<path class="st15" d="M22.11,8.17c-0.33-0.29-0.67-0.1-0.86-0.18c-0.03-0.01-0.2-0.37-0.47-0.59c-0.85-0.68-1.05,0.14-1.26,0.26
					c-0.03,0.02-0.41,0.1-0.76,0.26c-0.26,0.11-0.72,0.41-0.76,0.41c-0.12,0.01-0.45-0.27-0.53-0.29C17.28,8,17.1,8.08,17.08,8.08
					c-0.03-0.01-0.42-0.22-0.56-0.26c-0.05-0.02-0.28,0.01-0.35-0.03c-0.02-0.01-0.15-0.28-0.26-0.35c-0.2-0.12-0.89-0.07-1.11,0
					c-0.37,0.11-1.88,1.24-2.15,1.29c-0.4,0.08-1.05-0.59-1.48-0.5c-0.04-0.48-0.23-0.18-0.42-0.44c-0.02-0.03-0.04-0.35-0.48-0.29
					c-0.09,0.01-0.19,0.12-0.21,0.12c-0.04,0-0.17-0.11-0.21-0.12c-0.38-0.05-0.44,0.15-0.5,0.15c-0.02,0-0.17-0.14-0.26-0.18
					c-0.08-0.03-0.4-0.07-0.41-0.09C8.63,7.32,8.69,7,8.66,6.92C8.64,6.86,7.73,6.25,7.59,6.23c-0.52-1.04-0.73-0.73-1-0.82
					c-0.23-0.08-0.39-0.6-1.51,0.21C5.03,5.61,5.03,5.61,4.97,5.6c0.47-0.4,1.08-0.8,1.63-1.07c0.2-0.1,1.11-0.46,1.32-0.53
					c0.58-0.19,2.31-0.55,2.99-0.56c3.52-0.51,7.88,0.74,10.33,3.41C21.47,7.12,22.14,7.94,22.11,8.17z"/>
				<path class="st16" d="M13.72,4.91c0.07,0.02,0.07,0.02,0.13,0.04C13.82,5.03,13.67,4.99,13.72,4.91z"/>
				<path class="st17" d="M14.33,5.21c0.07,0,0.07,0,0.15,0C14.65,5.36,14.42,5.25,14.33,5.21z"/>
				<path class="st16" d="M12.78,5.3c0.09-0.05,0.12,0.14-0.01,0.07C12.77,5.33,12.77,5.33,12.78,5.3z"/>
				<path class="st16" d="M12.84,4.83c0.1-0.01,0.1,0.18-0.04,0.04C12.81,4.85,12.81,4.85,12.84,4.83z"/>
			</g>
		</g>
		<g>
			
				<linearGradient id="SVGID_00000130623170896319503290000006104958784864524689_" gradientUnits="userSpaceOnUse" x1="18.9525" y1="12.2964" x2="18.977" y2="14.0834">
				<stop  offset="0" style="stop-color:#F1C03D"/>
				<stop  offset="1" style="stop-color:#928030"/>
			</linearGradient>
			<path style="fill:url(#SVGID_00000130623170896319503290000006104958784864524689_);" d="M21.99,13.15
				c-1.13,0.13-3.09,0.64-4.01,1.35c-0.07,0-0.14,0-0.21,0c-0.22-0.18-0.57-0.26-0.85-0.41c-0.21-0.11-0.62-0.38-0.79-0.53
				c-0.04-0.03-0.22-0.16-0.19-0.21c0.34-0.14,1.37-0.42,1.54-0.73c0.23-0.12,0.44-0.48,0.47-0.73
				C19.29,12.34,20.6,12.88,21.99,13.15z"/>
			<g>
				<path class="st19" d="M23.52,13.15c0.18,0.02,0.36,0.07,0.53,0.15c-1.08,0.15-1.72,0.33-2.71,0.76
					c-0.58,0.26-0.38,0.46-1.85,0.38c-0.01,0.03-0.01,0.03-0.01,0.06c-0.5,0-1,0-1.49,0c0.92-0.71,2.88-1.22,4.01-1.35
					c0.26-0.03,0.16-0.06,0.18-0.06C22.24,13.08,23.38,13.13,23.52,13.15z"/>
				<path class="st20" d="M24.04,13.29c0.74,0.31,0.2,0.93-0.34,1.08c-0.69,0.2-3.32,0.11-4.23,0.12c0.01-0.03,0.01-0.03,0.01-0.06
					c1.47,0.08,1.27-0.13,1.85-0.38C22.32,13.62,22.96,13.45,24.04,13.29z"/>
			</g>
			<path class="st21" d="M11.21,10.98c0.02,0.11,0.14,0.04,0.23,0.06c-0.1,0.12-0.6,0.03-0.95,0.06c-1.17,0.08-2.88,0.55-4.06,0.85
				c-0.41,0.11-0.83,0.18-1.25,0.29c-0.53,0.15-1.04,0.38-1.57,0.53c-0.24,0.07-0.49,0.13-0.73,0.18c-0.15,0.03-0.62,0.15-0.32-0.04
				c-0.01-0.02-0.01-0.02-0.03-0.04c0.28-0.1,0.8-0.38,1.13-0.5c0.43-0.16,0.87-0.32,1.3-0.47c0.06,0.11,1.15-0.23,1-0.32
				c0.07-0.02,0.14-0.04,0.21-0.06c-0.03,0.22,0.21,0.01,0.37-0.03c0.01,0,0.12,0.03,0.26,0c0.03-0.01,0.11-0.24,0.53-0.09
				c-0.02-0.09-0.02-0.09-0.04-0.18c0.12-0.03,0.24-0.06,0.35-0.09c0.04,0.09,0.04,0.09,0.07,0.18c0.31,0.03,0.19-0.07,0.22-0.26
				c0.08-0.56,0.03-1.3,0.23-1.04c0.04,0.34,0.03,0.7,0.06,1.04c0.02,0.21-0.08,0.26,0.19,0.23c0.01-0.12,0.01-0.12,0.01-0.23
				c0.29,0.03,0.07,0.17,0.16,0.23c0.76,0,0.07-0.56,0.7-0.21c0.04-0.45,0.04-0.45,0.07-0.89c0.34-0.19-0.05,1.13,0.29,0.91
				c-0.03-0.86,0.19-0.95,0.18-0.03c0.41,0.16,0.22-0.52,0.4-1.13c0.21,0.31-0.09,1.22,0.21,1.08c0.07-1.63,0.29-1.88,0.25-0.04
				c0.36,0.26-0.08-1.56,0.35-1.29c0,0.66,0,0.66,0,1.32C11.1,11.03,11.15,11,11.21,10.98z"/>
			<path class="st21" d="M22.17,13.09c-0.01,0,0.09,0.03-0.18,0.06c-1.39-0.27-2.7-0.81-4.04-1.26c-0.28-0.09-0.25-0.05-0.26-0.06
				c-0.19-0.05-0.22-0.03-0.23-0.03c0,0-0.07-0.04-0.09-0.06c-0.03-0.03,0.07-0.14-0.09-0.15c0.02-0.02,0.03-0.03,0.03-0.03
				c0.18-0.31,0.08-1.5,0.19-1.52c0.25,0.27,0.23,1.16,0.31,0.48c0.26,0.11,0.17,1,0.22,1.07c0.98,0.29,1.9,0.72,2.87,1.03
				C21.4,12.78,22.29,12.89,22.17,13.09z"/>
			<path class="st22" d="M7.29,11.21c0.02,0.09,0.02,0.09,0.04,0.18c-0.41-0.16-0.5,0.08-0.53,0.09c-0.14,0.03-0.25,0-0.26,0
				c-0.15,0.04-0.39,0.25-0.37,0.03C6.54,11.4,6.92,11.31,7.29,11.21z"/>
			<path class="st22" d="M4.97,11.89c0.33-0.11,0.66-0.22,1-0.32C6.12,11.66,5.03,12,4.97,11.89z"/>
			<path class="st22" d="M7.93,11.04c-0.03,0.19,0.09,0.29-0.22,0.26c-0.04-0.09-0.04-0.09-0.07-0.18
				C7.73,11.1,7.83,11.06,7.93,11.04z"/>
			<path class="st23" d="M8.43,11.04c-0.01,0.12-0.01,0.12-0.01,0.23c-0.27,0.02-0.17-0.02-0.19-0.23
				C8.29,11.04,8.36,11.03,8.43,11.04z"/>
			<g>
				
					<linearGradient id="SVGID_00000134247152851892600660000016509967999349115543_" gradientUnits="userSpaceOnUse" x1="7.1236" y1="13.3106" x2="6.8031" y2="15.0389">
					<stop  offset="0" style="stop-color:#677532"/>
					<stop  offset="1" style="stop-color:#2F3618"/>
				</linearGradient>
				<path style="fill:url(#SVGID_00000134247152851892600660000016509967999349115543_);" d="M10.68,13.76
					c0.5,0.12,1.07,0.38,1.42,0.47c0.58,0.15,1.2,0.18,1.26,0.21c0.02,0.01,0.01,0.04,0.01,0.06c-3.84,0-7.69,0.02-11.53-0.03
					c-0.79,0.04-1.99-0.89-0.69-1.26c0.57,0.07,1.17-0.16,1.73-0.21c0.94-0.08,3.2-0.04,4.15,0.06c1.08,0.11,2.09,0.43,3.13,0.67
					C10.2,13.74,10.13,13.63,10.68,13.76z"/>
				<path class="st25" d="M10.8,13.59c0.2,0.21,1.25,0.41,1.58,0.47c0.28,0.19,0.89,0.21,1.14,0.44c-0.05,0-0.1,0-0.15,0
					c0-0.02,0.01-0.05-0.01-0.06c-0.06-0.02-0.68-0.05-1.26-0.21c-0.35-0.09-0.92-0.35-1.42-0.47c0.14-0.24-0.11-0.08-0.18-0.23
					c0.13,0,0.24-0.05,0.28-0.03C10.82,13.51,10.79,13.58,10.8,13.59z"/>
				<path class="st25" d="M14.84,14.47c-0.44,0.05-0.88,0.03-1.32,0.03c-0.25-0.23-0.86-0.25-1.14-0.44
					c0.35,0.06,0.72,0.03,1.07,0.09C13.91,14.22,14.38,14.41,14.84,14.47z"/>
				<path class="st26" d="M2.54,12.85c0.01,0.02,0.01,0.02,0.03,0.04c-0.3,0.19,0.17,0.07,0.32,0.04c0,0.03,0,0.03,0,0.06
					c-0.56,0.05-1.16,0.27-1.73,0.21c0.13-0.04,0.25-0.05,0.38-0.09C1.8,13.05,1.99,13.05,2.54,12.85z"/>
				<path class="st25" d="M3.62,12.77c1.57-0.01,3.15,0.03,4.7,0.29c0.6,0.1,1.2,0.31,1.8,0.41c0.18,0.03,0.15,0.05,0.38,0.06
					c0.06,0.16,0.31,0,0.18,0.23c-0.55-0.13-0.49-0.02-0.51-0.03c-1.04-0.24-2.06-0.56-3.13-0.67c-0.95-0.1-3.21-0.14-4.15-0.06
					c0-0.03,0-0.03,0-0.06C3.13,12.9,3.39,12.83,3.62,12.77z"/>
			</g>
			<path class="st27" d="M17.42,12.5c0.16,0.01,0.1,0.04,0.06,0.12c-0.17,0.31-1.19,0.6-1.54,0.73c-0.03,0.05,0.15,0.17,0.19,0.21
				c-0.1,0-0.2,0.01-0.29,0c-0.75-0.05-1.51-0.17-2.26-0.18c0.08-0.12,0.37-0.1,0.53-0.12C14.97,13.16,16.78,13.09,17.42,12.5z"/>
			<g>
				<path class="st28" d="M13.58,13.38c0.75,0.01,1.51,0.13,2.26,0.18c0,0.03,0.01,0.06,0,0.09c0,0.01-0.07-0.02,0.01,0.09
					c0.13,0.16,0.88,0.56,1.01,0.76c-0.67-0.01-1.36,0.05-2.02-0.03c-0.46-0.06-0.93-0.25-1.39-0.32c-0.35-0.06-0.72-0.03-1.07-0.09
					C12.05,14,11,13.8,10.8,13.59c0.11-0.02,0.24-0.03,0.35-0.06C11.97,13.52,12.77,13.37,13.58,13.38z"/>
				<path class="st29" d="M16.92,14.08c0.27,0.15,0.63,0.23,0.85,0.41c-0.3,0-0.61,0-0.91,0c-0.13-0.2-0.88-0.6-1.01-0.76
					c-0.08-0.1-0.02-0.08-0.01-0.09C16.15,13.8,16.62,14.08,16.92,14.08z"/>
				<path class="st30" d="M16.13,13.56c0.18,0.15,0.59,0.42,0.79,0.53c-0.31,0-0.77-0.29-1.08-0.44c0.01-0.03,0-0.06,0-0.09
					C15.94,13.56,16.04,13.55,16.13,13.56z"/>
			</g>
			<path class="st30" d="M17.95,11.89c-0.03,0.26-0.24,0.61-0.47,0.73c0.05-0.08,0.11-0.11-0.06-0.12c0.13-0.12,0.36-0.49,0.26-0.67
				C17.7,11.83,17.67,11.79,17.95,11.89z"/>
			<path class="st21" d="M15.9,11.8c0.02,0.01,0.11,0.06,0.12,0.06c0.04,0.34,0.04,0.34,0.07,0.67c0.01-0.34,0.01-0.34,0.01-0.67
				c0.31,0.03-0.03-0.11-0.15-0.15c-0.07-0.16,0.09-0.24,0.09-0.26c0.05,0.01,0.18,0.06,0.21,0.09c0.08,0.09,0.06,0.22,0.12,0.38
				c0,0.01,0,0.02,0,0.03c-0.03-0.01-0.03-0.01-0.06-0.01c0.01,0.29,0.01,0.29,0.01,0.57c0.3-0.12,0.62-0.32,0.66-0.67
				c0.12-0.01,0.33-0.01,0.38-0.09c0.02,0.02,0.08,0.06,0.09,0.06c-0.74,1.14-2.22,1.15-3.43,1.32c-0.62,0.09-1.24,0.18-1.86,0.26
				c-0.18,0.02-0.19-0.07-0.23-0.06c-0.15,0.02-0.56,0.16-0.78,0.21c-0.11,0.03-0.24,0.04-0.35,0.06c-0.01-0.01,0.02-0.07-0.01-0.09
				c-0.04-0.02-0.15,0.03-0.28,0.03c-0.23-0.01-0.21-0.03-0.38-0.06c-0.08-0.45,0.4-0.08,0.47-0.25c0.03-0.07-0.05-1.15,0.16-1.16
				c0.22-0.01,0.06,1.67,0.45,1.3c-0.31-0.58,0.03-0.27,0.09-0.41c0.02-0.05-0.03-0.77,0.09-1.16c0.05,0,0.1,0,0.15,0
				c0.01,0.59,0.01,0.59,0.03,1.19c0.04,0.09,0.39-0.11,0.42-0.1c0.12,0.02,0.11,0.59,0.59-0.26c0.5,0.85,0.19-0.07,0.67,0.29
				c0.05-0.44,0.37-0.43,0.34,0.01c0.39,0.11,0.02-0.53,0.5-0.35c-0.03,0.62,0.28,0,0.57,0.28c0.01-0.45,0.01-0.45,0.01-0.91
				c0.01,0,0.15-0.06,0.28-0.03c0.03,0.01,0.01,0.09,0.01,0.09c0.01,0.41,0.01,0.41,0.01,0.82c0.64,0.03,0.4-0.26,0.4-0.7
				c0-0.12,0.06-0.36,0.03-0.53c0.06-0.01,0.05-0.06,0.06-0.06C15.84,11.4,15.53,11.58,15.9,11.8z"/>
			<path class="st27" d="M14.02,13.12c0.04,0.07,0.04,0.07,0.09,0.15c-0.15,0.02-0.45,0-0.53,0.12c-0.82-0.01-1.62,0.14-2.43,0.15
				c0.21-0.05,0.62-0.18,0.78-0.21c0.04-0.01,0.06,0.08,0.23,0.06C12.78,13.3,13.4,13.2,14.02,13.12z"/>
			<path class="st23" d="M11.39,11.8c-0.12,0.39-0.06,1.1-0.09,1.16c-0.06,0.14-0.4-0.17-0.09,0.41c-0.4,0.36-0.23-1.31-0.45-1.3
				c-0.21,0.01-0.13,1.09-0.16,1.16c-0.07,0.16-0.55-0.2-0.47,0.25c-0.6-0.1-1.2-0.31-1.8-0.41c-1.55-0.27-3.13-0.3-4.7-0.29
				c0.53-0.15,1.04-0.38,1.57-0.53c0.41-0.11,0.83-0.19,1.25-0.29c1.13-0.05,2.26-0.19,3.38-0.21
				C10.35,11.73,10.86,11.79,11.39,11.8z"/>
			<path class="st31" d="M11.74,11.1c0.11,0.01,0.17,0.03,0.18,0.03c0.1,0.01,0.22-0.01,0.32,0c0.07,0.01,0.14,0.02,0.21,0.03
				c0.09,0.01,0.18,0.02,0.26,0.03c0.07,0.01,0.14,0.02,0.21,0.03c0.08,0.01,0.16-0.01,0.23,0c0.04,0,0.32,0.09,0.53,0.12
				c0.21,0.03,0.51,0.08,0.7,0.09c0.03,0,0.09,0.1,0.15-0.06c0.03,0.14,0.1,0.12,0.32,0.18c0.02,0,0.04,0,0.06,0
				c0.1,0.02,0.28,0.06,0.38,0.06c0.03,0,0.08,0.01,0.12,0c0.03,0.16-0.03,0.41-0.03,0.53c-0.12-0.07-0.3-0.08-0.41-0.12
				c0,0,0.01-0.08-0.01-0.09c-0.13-0.03-0.26,0.03-0.28,0.03c-0.84-0.09-2.24-0.12-3.13-0.15c-0.05,0-0.1,0-0.15,0
				c-0.52-0.01-1.04-0.07-1.57-0.06c-1.13,0.02-2.26,0.15-3.38,0.21c1.17-0.3,2.88-0.77,4.06-0.85c0.35-0.02,0.85,0.06,0.95-0.06
				c0.02,0,0.03-0.04,0.1-0.03C11.59,11.01,11.42,11.06,11.74,11.1z"/>
			<path class="st31" d="M17.69,11.83c0.1,0.18-0.13,0.55-0.26,0.67c-0.64,0.59-2.45,0.66-3.31,0.76c-0.04-0.07-0.04-0.07-0.09-0.15
				c1.2-0.17,2.69-0.18,3.43-1.32C17.46,11.8,17.5,11.77,17.69,11.83z"/>
			<path class="st32" d="M17.36,11.74c-0.05,0.07-0.26,0.08-0.38,0.09c-0.08,0-0.16,0-0.23,0c0.07-0.12,0.32,0.01,0.53-0.23
				C17.43,11.6,17.34,11.71,17.36,11.74z"/>
			<path class="st33" d="M16.98,11.83c-0.03,0.35-0.36,0.55-0.66,0.67c-0.01-0.29-0.01-0.29-0.01-0.57
				c0.03,0.01,0.03,0.01,0.06,0.01c0.23,0.64,0.36-0.08,0.38-0.12C16.83,11.83,16.9,11.83,16.98,11.83z"/>
			<path class="st34" d="M15.96,11.71c0.12,0.03,0.45,0.18,0.15,0.15c-0.08-0.01-0.08,0-0.09,0c-0.01,0-0.1-0.05-0.12-0.06
				c0-0.03,0.01-0.07,0-0.09C15.92,11.71,15.94,11.71,15.96,11.71z"/>
			<path class="st35" d="M14.67,11.95c-0.01,0.45-0.01,0.45-0.01,0.91c-0.29-0.28-0.6,0.34-0.57-0.28c-0.47-0.18-0.1,0.46-0.5,0.35
				c0.03-0.45-0.29-0.45-0.34-0.01c-0.49-0.36-0.17,0.56-0.67-0.29c-0.47,0.85-0.46,0.29-0.59,0.26c-0.03-0.01-0.39,0.19-0.42,0.1
				c-0.01-0.59-0.01-0.59-0.03-1.19C12.43,11.82,13.83,11.85,14.67,11.95z"/>
			<path class="st35" d="M15.37,12.12c0,0.45,0.24,0.73-0.4,0.7c-0.01-0.41-0.01-0.41-0.01-0.82
				C15.07,12.04,15.25,12.05,15.37,12.12z"/>
			<path class="st36" d="M16.1,11.86c-0.01,0.34-0.01,0.34-0.01,0.67c-0.04-0.34-0.04-0.34-0.07-0.67
				C16.02,11.86,16.03,11.85,16.1,11.86z"/>
		</g>
		<g>
			<path class="st37" d="M13.23,10.6c0.01,0.02,0.02,0.04,0.03,0.06c0.04,0.12,0.05,0.2,0.06,0.21c0.03,0.06,0.03,0.13,0.07,0.15
				c0.16,0.06,0.82-0.11,0.92,0.09c-0.22,0.07-0.23,0.23-0.25,0.23c-0.05,0.02-0.28-0.24-0.4,0c-0.21-0.03-0.49-0.11-0.53-0.12
				c0.08-0.42-0.32-0.42-0.23,0c-0.07-0.01-0.14-0.02-0.21-0.03c0.02-0.34-0.32-0.41-0.26-0.03c-0.07-0.01-0.14-0.02-0.21-0.03
				c-0.12-0.26-0.24-0.3-0.32,0c-0.01,0-0.07-0.02-0.18-0.03c-0.1-0.19-0.1-0.19-0.21-0.38c0,0,0.01-0.05,0.06-0.06
				c0.15-0.03,1.12,0.11,1.23-0.04c0.07-0.1-0.07-0.22,0.12-0.25c0.01,0.12,0.01,0.12,0.03,0.23c0.17,0.1,0-0.11,0.12-0.35
				c0.18,0.05,0.04,0.19,0.09,0.37C13.18,10.65,13.23,10.58,13.23,10.6z"/>
			<path class="st38" d="M14.23,10.13c-0.32-0.01-0.39,0.01-0.7,0.12c-0.2,0.07-0.35,0.02-0.28,0.18c0.02-0.01,0.01-0.06,0.03-0.06
				c0.44-0.01,0.89,0,1.33-0.03c-0.03,0.07-0.04,0.14-0.12,0.18c-0.14,0.05-0.98,0-1.26,0.09c-0.01-0.02-0.05,0.05-0.06,0.01
				c-0.04-0.17,0.09-0.32-0.09-0.37c-0.07-0.02-0.76,0-0.81,0.03c0,0.18,0,0.18,0,0.35c-0.45-0.01,0.51-0.46-0.69-0.35
				c0.01-0.04-0.01-0.1,0-0.12c0.75-0.08,1.49-0.08,2.23-0.23C13.9,9.91,13.86,9.78,14.23,10.13z"/>
			<path class="st39" d="M15.25,10.28c0.01,0.03-0.01,0.12,0,0.13c0.03,0.03,0.11,0,0.13,0.01c0.03,0.02,0.01,0.06,0.01,0.06
				c-0.24-0.11-0.14,0.69-0.12,1.11c-0.1,0-0.28-0.03-0.38-0.06c0.03-0.36-0.02-0.71,0-1.07c0-0.03,0.09-0.05,0.09-0.06
				c0-0.03-0.03-0.21-0.03-0.22C15.09,9.05,15.04,9.71,15.25,10.28z"/>
			<path class="st39" d="M14.7,10.22c0.27,0.38,0.1,0.88,0.15,1.32c-0.22-0.06-0.29-0.04-0.32-0.18c-0.05-0.26,0.06-0.59-0.03-0.85
				c0.08-0.03,0.09-0.11,0.12-0.18c0.01-0.03,0.04-0.05,0.03-0.12C14.66,10.22,14.68,10.21,14.7,10.22z"/>
			<path class="st40" d="M16.31,10.45c-0.02,0.22,0.08,0.87-0.06,1.08c-0.02-0.02-0.16-0.08-0.21-0.09c0.01-0.08-0.09-0.76,0-1.03
				C16.13,10.44,16.22,10.44,16.31,10.45z"/>
			<path class="st41" d="M16.04,10.42c-0.09,0.26,0.01,0.95,0,1.03c0,0.02-0.16,0.1-0.09,0.26c-0.01,0-0.04,0-0.06,0
				c-0.1-0.25-0.05-0.43-0.06-0.7c0-0.09,0.01-0.43,0-0.45c-0.04-0.08-0.31-0.03-0.38-0.04c-0.08-0.02-0.06-0.03-0.06-0.03
				c0,0,0.01-0.04-0.01-0.06c-0.02-0.01-0.1,0.02-0.13-0.01c-0.01-0.01,0.01-0.1,0-0.13C15.52,10.32,15.78,10.38,16.04,10.42z"/>
			<path class="st42" d="M13.82,9.92c-0.74,0.16-1.47,0.16-2.23,0.23c0.02-0.04-0.01-0.05,0.07-0.09
				C11.88,9.97,13.5,9.81,13.82,9.92z"/>
			<path class="st42" d="M14.64,10.22c0.01,0.06-0.02,0.08-0.03,0.12c-0.44,0.03-0.89,0.02-1.33,0.03c-0.02,0-0.01,0.05-0.03,0.06
				c-0.08-0.15,0.08-0.11,0.28-0.18c0.21,0.07,0.68,0.01,0.82-0.09C14.69,10.18,14.62,10.22,14.64,10.22z"/>
			<path class="st40" d="M14.9,11.54c-0.02,0-0.04,0-0.06,0c-0.04-0.44,0.12-0.94-0.15-1.32c0.08,0.01,0.26,0.01,0.26-0.03
				c0,0.01,0.03,0.19,0.03,0.22c0,0.01-0.09,0.03-0.09,0.06C14.88,10.82,14.93,11.18,14.9,11.54z"/>
			<path class="st43" d="M11.74,11.1c-0.32-0.04-0.15-0.08-0.19-0.09c-0.07-0.01-0.08,0.03-0.1,0.03c-0.1-0.02-0.21,0.05-0.23-0.06
				c0.02-0.01,0.23-0.22,0.32-0.26C11.64,10.91,11.64,10.91,11.74,11.1z"/>
			<path class="st44" d="M14.23,10.13c0.05,0,0.06,0.03,0.12,0.03c-0.14,0.09-0.61,0.16-0.82,0.09
				C13.84,10.14,13.91,10.12,14.23,10.13z"/>
			<path class="st45" d="M14.49,10.51c0.09,0.26-0.02,0.59,0.03,0.85c-0.06,0.16-0.12,0.06-0.15,0.06c-0.04-0.1-0.01-0.23-0.06-0.32
				c-0.1-0.2-0.76-0.02-0.92-0.09c-0.04-0.02-0.04-0.08-0.07-0.15c0.01,0,0.01,0,0.03,0c0.17-0.03,0.96,0.06,1-0.06
				c0.08-0.19-0.67-0.11-1.08-0.15c-0.01-0.02-0.02-0.04-0.03-0.06C13.51,10.51,14.35,10.56,14.49,10.51z"/>
			<path class="st37" d="M14.35,10.8c-0.34,0.03-0.93-0.06-1,0.06c-0.01,0-0.01,0-0.03,0c0-0.01-0.01-0.08-0.06-0.21
				C13.67,10.7,14.42,10.61,14.35,10.8z"/>
			<path class="st43" d="M14.38,11.42c-0.2-0.01-0.5-0.06-0.7-0.09c0.12-0.24,0.35,0.02,0.4,0c0.02-0.01,0.02-0.16,0.25-0.23
				C14.36,11.19,14.33,11.32,14.38,11.42z"/>
			<path class="st46" d="M13.14,11.21c-0.08-0.01-0.16,0.01-0.23,0C12.83,10.79,13.23,10.79,13.14,11.21z"/>
			<path class="st46" d="M12.71,11.18c-0.09-0.01-0.18-0.02-0.26-0.03C12.39,10.78,12.73,10.85,12.71,11.18z"/>
			<path class="st41" d="M12.24,11.13c-0.1-0.01-0.22,0.01-0.32,0C12,10.82,12.12,10.87,12.24,11.13z"/>
			<path class="st47" d="M15.4,10.48c0,0-0.02,0.01,0.06,0.03c-0.03,0.17,0.02,0.34,0.03,0.5c0,0.16-0.01,0.36-0.03,0.53
				c0,0,0,0.04-0.06,0.06c-0.04,0.01-0.09,0-0.12,0C15.26,11.17,15.16,10.37,15.4,10.48z"/>
			<g>
				<path class="st48" d="M13.09,10.25c-0.11,0.24,0.05,0.45-0.12,0.35c-0.01-0.12-0.01-0.12-0.03-0.23
					c-0.19,0.03-0.05,0.15-0.12,0.25c-0.11,0.15-1.08,0.02-1.23,0.04c-0.06-0.13-0.03-0.25,0-0.38c1.19-0.11,0.24,0.34,0.69,0.35
					c0-0.18,0-0.18,0-0.35C12.32,10.25,13.01,10.23,13.09,10.25z"/>
				<path class="st38" d="M12.97,10.6c-0.01-0.12-0.01-0.12-0.03-0.23C12.95,10.48,12.95,10.48,12.97,10.6z"/>
				<path class="st38" d="M11.81,10.36c0.06,0.13,0.06,0.13,0.12,0.26C11.74,10.67,11.79,10.52,11.81,10.36z"/>
			</g>
			<path class="st48" d="M15.84,11.01c-0.08-0.03-0.13-0.01-0.21,0c-0.04,0-0.08,0-0.12,0c-0.01,0-0.01,0-0.03,0
				c0-0.16-0.06-0.33-0.03-0.5c0.07,0.02,0.34-0.03,0.38,0.04C15.85,10.58,15.84,10.91,15.84,11.01z"/>
			<path class="st49" d="M15.84,11.01c0.01,0.27-0.04,0.45,0.06,0.7c0.01,0.02,0,0.06,0,0.09c-0.36-0.22-0.06-0.4-0.44-0.26
				c0.01-0.16,0.03-0.36,0.03-0.53c0.01,0,0.01,0,0.03,0c-0.07,0.49,0.25,0.47,0.12,0C15.71,11,15.76,10.98,15.84,11.01z"/>
			<path class="st50" d="M14.35,10.8c-0.04,0.12-0.83,0.03-1,0.06C13.42,10.74,14,10.83,14.35,10.8z"/>
			<path class="st41" d="M15.63,11.01c0.13,0.47-0.19,0.49-0.12,0C15.56,11.01,15.6,11.01,15.63,11.01z"/>
		</g>
	</g>
</g>
</svg>
